BriemScript-Thin.ufo
<glyph name="exclam" format="2">
  <advance width="265"/>
  <unicode hex="0021"/>
  <outline>
    <contour>
      <point x="124" y="195" type="curve" smooth="yes"/>
      <point x="134" y="195"/>
      <point x="149" y="198"/>
      <point x="149" y="204" type="curve" smooth="yes"/>
      <point x="149" y="234"/>
      <point x="189" y="565"/>
      <point x="189" y="634" type="curve" smooth="yes"/>
      <point x="189" y="642"/>
      <point x="162" y="652"/>
      <point x="145" y="652" type="curve" smooth="yes"/>
      <point x="137" y="652"/>
      <point x="128" y="650"/>
      <point x="128" y="642" type="curve" smooth="yes"/>
      <point x="128" y="623"/>
      <point x="111" y="246"/>
      <point x="111" y="200" type="curve" smooth="yes"/>
      <point x="111" y="196"/>
      <point x="117" y="195"/>
    </contour>
    <contour>
      <point x="111" y="0" type="curve" smooth="yes"/>
      <point x="136" y="0"/>
      <point x="155" y="17"/>
      <point x="155" y="41" type="curve" smooth="yes"/>
      <point x="155" y="75"/>
      <point x="140" y="91"/>
      <point x="126" y="91" type="curve" smooth="yes"/>
      <point x="108" y="91"/>
      <point x="81" y="69"/>
      <point x="81" y="35" type="curve" smooth="yes"/>
      <point x="81" y="12"/>
      <point x="89" y="0"/>
    </contour>
  </outline>
</glyph>
<glyph name="quotedbl" format="2">
  <advance width="315"/>
  <unicode hex="0022"/>
  <outline>
    <contour>
      <point x="245" y="452" type="curve" smooth="yes"/>
      <point x="254" y="452"/>
      <point x="259" y="460"/>
      <point x="273" y="497" type="curve" smooth="yes"/>
      <point x="285" y="530"/>
      <point x="317" y="627"/>
      <point x="317" y="638" type="curve" smooth="yes"/>
      <point x="317" y="650"/>
      <point x="307" y="652"/>
      <point x="287" y="652" type="curve" smooth="yes"/>
      <point x="265" y="652"/>
      <point x="253" y="646"/>
      <point x="251" y="625" type="curve" smooth="yes"/>
      <point x="248" y="590"/>
      <point x="235" y="485"/>
      <point x="235" y="470" type="curve" smooth="yes"/>
      <point x="235" y="455"/>
      <point x="239" y="452"/>
    </contour>
    <contour>
      <point x="67" y="452" type="curve" smooth="yes"/>
      <point x="76" y="452"/>
      <point x="81" y="460"/>
      <point x="95" y="497" type="curve" smooth="yes"/>
      <point x="107" y="530"/>
      <point x="139" y="627"/>
      <point x="139" y="638" type="curve" smooth="yes"/>
      <point x="139" y="650"/>
      <point x="129" y="652"/>
      <point x="109" y="652" type="curve" smooth="yes"/>
      <point x="87" y="652"/>
      <point x="75" y="646"/>
      <point x="73" y="625" type="curve" smooth="yes"/>
      <point x="70" y="590"/>
      <point x="57" y="485"/>
      <point x="57" y="470" type="curve" smooth="yes"/>
      <point x="57" y="455"/>
      <point x="61" y="452"/>
    </contour>
  </outline>
</glyph>
<glyph name="dollar" format="2">
  <advance width="516"/>
  <unicode hex="0024"/>
  <outline>
    <contour>
      <point x="269" y="-166" type="curve" smooth="yes"/>
      <point x="277" y="-166"/>
      <point x="278" y="-163"/>
      <point x="278" y="-158" type="curve" smooth="yes"/>
      <point x="278" y="-116"/>
      <point x="280" y="-63"/>
      <point x="282" y="-8" type="curve"/>
      <point x="358" y="10"/>
      <point x="435" y="77"/>
      <point x="435" y="175" type="curve" smooth="yes"/>
      <point x="435" y="218"/>
      <point x="417" y="251"/>
      <point x="385" y="282" type="curve" smooth="yes"/>
      <point x="353" y="313"/>
      <point x="252" y="375"/>
      <point x="218" y="409" type="curve" smooth="yes"/>
      <point x="187" y="440"/>
      <point x="172" y="472"/>
      <point x="172" y="510" type="curve" smooth="yes"/>
      <point x="172" y="587"/>
      <point x="228" y="613"/>
      <point x="264" y="613" type="curve" smooth="yes"/>
      <point x="338" y="613"/>
      <point x="378" y="574"/>
      <point x="402" y="550" type="curve" smooth="yes"/>
      <point x="414" y="538"/>
      <point x="421" y="529"/>
      <point x="427" y="529" type="curve" smooth="yes"/>
      <point x="437" y="529"/>
      <point x="442" y="544"/>
      <point x="442" y="572" type="curve" smooth="yes"/>
      <point x="442" y="578"/>
      <point x="440" y="587"/>
      <point x="434" y="593" type="curve" smooth="yes"/>
      <point x="404" y="626"/>
      <point x="358" y="645"/>
      <point x="313" y="650" type="curve"/>
      <point x="318" y="723"/>
      <point x="323" y="776"/>
      <point x="323" y="780" type="curve" smooth="yes"/>
      <point x="323" y="798"/>
      <point x="302" y="806"/>
      <point x="279" y="806" type="curve" smooth="yes"/>
      <point x="272" y="806"/>
      <point x="270" y="804"/>
      <point x="270" y="799" type="curve" smooth="yes"/>
      <point x="269" y="771"/>
      <point x="267" y="716"/>
      <point x="264" y="651" type="curve"/>
      <point x="156" y="641"/>
      <point x="113" y="563"/>
      <point x="113" y="487" type="curve" smooth="yes"/>
      <point x="113" y="434"/>
      <point x="136" y="397"/>
      <point x="168" y="367" type="curve" smooth="yes"/>
      <point x="215" y="323"/>
      <point x="305" y="272"/>
      <point x="339" y="235" type="curve" smooth="yes"/>
      <point x="363" y="209"/>
      <point x="379" y="180"/>
      <point x="379" y="141" type="curve" smooth="yes"/>
      <point x="379" y="61"/>
      <point x="304" y="29"/>
      <point x="264" y="29" type="curve" smooth="yes"/>
      <point x="194" y="29"/>
      <point x="142" y="63"/>
      <point x="112" y="89" type="curve" smooth="yes"/>
      <point x="94" y="105"/>
      <point x="86" y="117"/>
      <point x="82" y="117" type="curve" smooth="yes"/>
      <point x="71" y="117"/>
      <point x="67" y="77"/>
      <point x="67" y="68" type="curve" smooth="yes"/>
      <point x="67" y="63"/>
      <point x="68" y="52"/>
      <point x="75" y="45" type="curve" smooth="yes"/>
      <point x="105" y="16"/>
      <point x="156" y="-11"/>
      <point x="234" y="-13" type="curve"/>
      <point x="229" y="-84"/>
      <point x="226" y="-135"/>
      <point x="226" y="-139" type="curve" smooth="yes"/>
      <point x="226" y="-157"/>
      <point x="248" y="-166"/>
    </contour>
  </outline>
</glyph>
<glyph name="ampersand" format="2">
  <advance width="701"/>
  <unicode hex="0026"/>
  <outline>
    <contour>
      <point x="312" y="-13" type="curve" smooth="yes"/>
      <point x="546" y="-13"/>
      <point x="606" y="146"/>
      <point x="606" y="233" type="curve" smooth="yes"/>
      <point x="606" y="282"/>
      <point x="591" y="325"/>
      <point x="562" y="341" type="curve"/>
      <point x="502" y="341" type="line"/>
      <point x="619" y="472"/>
      <point x="662" y="511"/>
      <point x="678" y="528" type="curve" smooth="yes"/>
      <point x="683" y="533"/>
      <point x="692" y="544"/>
      <point x="692" y="548" type="curve" smooth="yes"/>
      <point x="692" y="560"/>
      <point x="683" y="573"/>
      <point x="673" y="583" type="curve" smooth="yes"/>
      <point x="670" y="586"/>
      <point x="665" y="589"/>
      <point x="663" y="589" type="curve" smooth="yes"/>
      <point x="662" y="589"/>
      <point x="657" y="584"/>
      <point x="652" y="578" type="curve" smooth="yes"/>
      <point x="615" y="537"/>
      <point x="324" y="218"/>
      <point x="316" y="209" type="curve" smooth="yes"/>
      <point x="305" y="197"/>
      <point x="303" y="194"/>
      <point x="303" y="189" type="curve" smooth="yes"/>
      <point x="303" y="176"/>
      <point x="314" y="160"/>
      <point x="326" y="149" type="curve" smooth="yes"/>
      <point x="329" y="147"/>
      <point x="331" y="145"/>
      <point x="332" y="145" type="curve" smooth="yes"/>
      <point x="334" y="145"/>
      <point x="337" y="149"/>
      <point x="342" y="155" type="curve" smooth="yes"/>
      <point x="396" y="220"/>
      <point x="444" y="276"/>
      <point x="493" y="331" type="curve"/>
      <point x="526" y="329"/>
      <point x="556" y="266"/>
      <point x="556" y="214" type="curve" smooth="yes"/>
      <point x="556" y="125"/>
      <point x="487" y="25"/>
      <point x="322" y="25" type="curve" smooth="yes"/>
      <point x="172" y="25"/>
      <point x="100" y="117"/>
      <point x="100" y="203" type="curve" smooth="yes"/>
      <point x="100" y="285"/>
      <point x="151" y="352"/>
      <point x="277" y="352" type="curve" smooth="yes"/>
      <point x="284" y="352"/>
      <point x="290" y="360"/>
      <point x="290" y="369" type="curve" smooth="yes"/>
      <point x="290" y="388"/>
      <point x="284" y="394"/>
      <point x="274" y="394" type="curve" smooth="yes"/>
      <point x="248" y="394"/>
      <point x="171" y="432"/>
      <point x="171" y="515" type="curve" smooth="yes"/>
      <point x="171" y="569"/>
      <point x="216" y="617"/>
      <point x="285" y="617" type="curve" smooth="yes"/>
      <point x="346" y="617"/>
      <point x="382" y="593"/>
      <point x="416" y="560" type="curve" smooth="yes"/>
      <point x="422" y="555"/>
      <point x="427" y="550"/>
      <point x="430" y="550" type="curve" smooth="yes"/>
      <point x="438" y="550"/>
      <point x="443" y="562"/>
      <point x="443" y="582" type="curve" smooth="yes"/>
      <point x="443" y="591"/>
      <point x="443" y="600"/>
      <point x="434" y="608" type="curve" smooth="yes"/>
      <point x="409" y="631"/>
      <point x="355" y="652"/>
      <point x="289" y="652" type="curve" smooth="yes"/>
      <point x="200" y="652"/>
      <point x="112" y="612"/>
      <point x="112" y="519" type="curve" smooth="yes"/>
      <point x="112" y="440"/>
      <point x="158" y="397"/>
      <point x="212" y="377" type="curve"/>
      <point x="114" y="377"/>
      <point x="40" y="311"/>
      <point x="40" y="222" type="curve" smooth="yes"/>
      <point x="40" y="105"/>
      <point x="122" y="-13"/>
    </contour>
  </outline>
</glyph>
<glyph name="plus" format="2">
  <advance width="550"/>
  <unicode hex="002B"/>
  <outline>
    <contour>
      <point x="265" y="86" type="curve" smooth="yes"/>
      <point x="277" y="86"/>
      <point x="284" y="89"/>
      <point x="284" y="99" type="curve" smooth="yes"/>
      <point x="284" y="109"/>
      <point x="293" y="230"/>
      <point x="298" y="294" type="curve"/>
      <point x="485" y="294" type="line" smooth="yes"/>
      <point x="504" y="294"/>
      <point x="514" y="314"/>
      <point x="514" y="333" type="curve" smooth="yes"/>
      <point x="514" y="341"/>
      <point x="512" y="346"/>
      <point x="505" y="346" type="curve" smooth="yes"/>
      <point x="301" y="346" type="line"/>
      <point x="306" y="403"/>
      <point x="317" y="499"/>
      <point x="317" y="509" type="curve" smooth="yes"/>
      <point x="317" y="539"/>
      <point x="288" y="544"/>
      <point x="273" y="544" type="curve" smooth="yes"/>
      <point x="261" y="544"/>
      <point x="254" y="541"/>
      <point x="254" y="531" type="curve" smooth="yes"/>
      <point x="254" y="521"/>
      <point x="246" y="411"/>
      <point x="241" y="346" type="curve"/>
      <point x="64" y="346" type="line" smooth="yes"/>
      <point x="46" y="346"/>
      <point x="35" y="329"/>
      <point x="35" y="307" type="curve" smooth="yes"/>
      <point x="35" y="299"/>
      <point x="38" y="294"/>
      <point x="44" y="294" type="curve" smooth="yes"/>
      <point x="238" y="294" type="line"/>
      <point x="233" y="238"/>
      <point x="221" y="132"/>
      <point x="221" y="121" type="curve" smooth="yes"/>
      <point x="221" y="91"/>
      <point x="250" y="86"/>
    </contour>
  </outline>
</glyph>
<glyph name="comma" format="2">
  <advance width="275"/>
  <unicode hex="002C"/>
  <outline>
    <contour>
      <point x="41" y="-78" type="curve" smooth="yes"/>
      <point x="52" y="-78"/>
      <point x="62" y="-74"/>
      <point x="67" y="-69" type="curve" smooth="yes"/>
      <point x="103" y="-29"/>
      <point x="168" y="55"/>
      <point x="168" y="86" type="curve" smooth="yes"/>
      <point x="168" y="94"/>
      <point x="164" y="104"/>
      <point x="157" y="112" type="curve" smooth="yes"/>
      <point x="152" y="117"/>
      <point x="145" y="121"/>
      <point x="136" y="121" type="curve" smooth="yes"/>
      <point x="132" y="121"/>
      <point x="131" y="120"/>
      <point x="129" y="114" type="curve" smooth="yes"/>
      <point x="103" y="53"/>
      <point x="52" y="-37"/>
      <point x="41" y="-55" type="curve" smooth="yes"/>
      <point x="33" y="-67"/>
      <point x="30" y="-71"/>
      <point x="30" y="-73" type="curve" smooth="yes"/>
      <point x="30" y="-76"/>
      <point x="35" y="-78"/>
    </contour>
  </outline>
</glyph>
<glyph name="hyphen" format="2">
  <advance width="275"/>
  <unicode hex="002D"/>
  <outline>
    <contour>
      <point x="15" y="273" type="curve" smooth="yes"/>
      <point x="237" y="273" type="line" smooth="yes"/>
      <point x="253" y="273"/>
      <point x="259" y="295"/>
      <point x="259" y="315" type="curve" smooth="yes"/>
      <point x="259" y="322"/>
      <point x="257" y="324"/>
      <point x="252" y="324" type="curve" smooth="yes"/>
      <point x="30" y="324" type="line" smooth="yes"/>
      <point x="14" y="324"/>
      <point x="8" y="301"/>
      <point x="8" y="282" type="curve" smooth="yes"/>
      <point x="8" y="275"/>
      <point x="10" y="273"/>
    </contour>
  </outline>
</glyph>
<glyph name="slash" format="2">
  <advance width="537"/>
  <unicode hex="002F"/>
  <outline>
    <contour>
      <point x="57" y="-34" type="curve" smooth="yes"/>
      <point x="64" y="-34"/>
      <point x="72" y="-29"/>
      <point x="78" y="-19" type="curve" smooth="yes"/>
      <point x="129" y="68"/>
      <point x="473" y="586"/>
      <point x="504" y="630" type="curve" smooth="yes"/>
      <point x="514" y="644"/>
      <point x="515" y="649"/>
      <point x="515" y="651" type="curve" smooth="yes"/>
      <point x="515" y="661"/>
      <point x="495" y="675"/>
      <point x="476" y="675" type="curve" smooth="yes"/>
      <point x="469" y="675"/>
      <point x="461" y="670"/>
      <point x="455" y="660" type="curve" smooth="yes"/>
      <point x="313" y="443"/>
      <point x="170" y="226"/>
      <point x="26" y="8" type="curve" smooth="yes"/>
      <point x="19" y="-3"/>
      <point x="18" y="-5"/>
      <point x="18" y="-10" type="curve" smooth="yes"/>
      <point x="18" y="-20"/>
      <point x="38" y="-34"/>
    </contour>
  </outline>
</glyph>
<glyph name="two" format="2">
  <advance width="547"/>
  <unicode hex="0032"/>
  <outline>
    <contour>
      <point x="72" y="0" type="curve" smooth="yes"/>
      <point x="429" y="0" type="line" smooth="yes"/>
      <point x="444" y="0"/>
      <point x="452" y="25"/>
      <point x="452" y="46" type="curve" smooth="yes"/>
      <point x="452" y="53"/>
      <point x="450" y="59"/>
      <point x="446" y="59" type="curve" smooth="yes"/>
      <point x="444" y="59"/>
      <point x="311" y="43"/>
      <point x="202" y="43" type="curve" smooth="yes"/>
      <point x="173" y="43"/>
      <point x="151" y="43"/>
      <point x="130" y="43" type="curve"/>
      <point x="183" y="107"/>
      <point x="273" y="200"/>
      <point x="348" y="291" type="curve" smooth="yes"/>
      <point x="406" y="362"/>
      <point x="445" y="432"/>
      <point x="445" y="505" type="curve" smooth="yes"/>
      <point x="445" y="615"/>
      <point x="361" y="652"/>
      <point x="277" y="652" type="curve" smooth="yes"/>
      <point x="210" y="652"/>
      <point x="146" y="628"/>
      <point x="117" y="606" type="curve" smooth="yes"/>
      <point x="102" y="595"/>
      <point x="98" y="588"/>
      <point x="98" y="573" type="curve" smooth="yes"/>
      <point x="98" y="548"/>
      <point x="102" y="541"/>
      <point x="110" y="541" type="curve" smooth="yes"/>
      <point x="124" y="541"/>
      <point x="169" y="613"/>
      <point x="259" y="613" type="curve" smooth="yes"/>
      <point x="319" y="613"/>
      <point x="378" y="581"/>
      <point x="378" y="500" type="curve" smooth="yes"/>
      <point x="378" y="444"/>
      <point x="357" y="393"/>
      <point x="315" y="337" type="curve" smooth="yes"/>
      <point x="260" y="264"/>
      <point x="151" y="139"/>
      <point x="66" y="55" type="curve" smooth="yes"/>
      <point x="57" y="47"/>
      <point x="55" y="42"/>
      <point x="55" y="35" type="curve" smooth="yes"/>
      <point x="55" y="24"/>
      <point x="65" y="0"/>
    </contour>
  </outline>
</glyph>
<glyph name="five" format="2">
  <advance width="549"/>
  <unicode hex="0035"/>
  <outline>
    <contour>
      <point x="239" y="-13" type="curve" smooth="yes"/>
      <point x="355" y="-13"/>
      <point x="457" y="65"/>
      <point x="457" y="196" type="curve" smooth="yes"/>
      <point x="457" y="321"/>
      <point x="379" y="384"/>
      <point x="226" y="384" type="curve" smooth="yes"/>
      <point x="212" y="384"/>
      <point x="188" y="384"/>
      <point x="172" y="384" type="curve"/>
      <point x="195" y="587" type="line"/>
      <point x="433" y="587" type="line" smooth="yes"/>
      <point x="450" y="587"/>
      <point x="455" y="610"/>
      <point x="455" y="630" type="curve" smooth="yes"/>
      <point x="455" y="638"/>
      <point x="452" y="639"/>
      <point x="448" y="639" type="curve" smooth="yes"/>
      <point x="151" y="639" type="line"/>
      <point x="116" y="332" type="line"/>
      <point x="142" y="336"/>
      <point x="188" y="339"/>
      <point x="214" y="339" type="curve" smooth="yes"/>
      <point x="345" y="339"/>
      <point x="400" y="266"/>
      <point x="400" y="190" type="curve" smooth="yes"/>
      <point x="400" y="93"/>
      <point x="337" y="25"/>
      <point x="238" y="25" type="curve" smooth="yes"/>
      <point x="145" y="25"/>
      <point x="105" y="80"/>
      <point x="89" y="80" type="curve" smooth="yes"/>
      <point x="81" y="80"/>
      <point x="80" y="75"/>
      <point x="80" y="57" type="curve" smooth="yes"/>
      <point x="80" y="39"/>
      <point x="84" y="27"/>
      <point x="96" y="16" type="curve" smooth="yes"/>
      <point x="106" y="7"/>
      <point x="146" y="-13"/>
    </contour>
  </outline>
</glyph>
<glyph name="eight" format="2">
  <advance width="580"/>
  <unicode hex="0038"/>
  <outline>
    <contour>
      <point x="263" y="-13" type="curve" smooth="yes"/>
      <point x="413" y="-13"/>
      <point x="492" y="79"/>
      <point x="492" y="178" type="curve" smooth="yes"/>
      <point x="492" y="238"/>
      <point x="471" y="281"/>
      <point x="359" y="341" type="curve"/>
      <point x="428" y="371"/>
      <point x="488" y="430"/>
      <point x="488" y="512" type="curve" smooth="yes"/>
      <point x="488" y="599"/>
      <point x="410" y="652"/>
      <point x="308" y="652" type="curve" smooth="yes"/>
      <point x="221" y="652"/>
      <point x="117" y="615"/>
      <point x="117" y="500" type="curve" smooth="yes"/>
      <point x="117" y="431"/>
      <point x="162" y="375"/>
      <point x="234" y="336" type="curve"/>
      <point x="129" y="299"/>
      <point x="70" y="241"/>
      <point x="70" y="151" type="curve" smooth="yes"/>
      <point x="70" y="64"/>
      <point x="139" y="-13"/>
    </contour>
    <contour>
      <point x="277" y="23" type="curve" smooth="yes"/>
      <point x="165" y="23"/>
      <point x="130" y="104"/>
      <point x="130" y="157" type="curve" smooth="yes"/>
      <point x="130" y="249"/>
      <point x="204" y="293"/>
      <point x="275" y="318" type="curve"/>
      <point x="294" y="308"/>
      <point x="434" y="278"/>
      <point x="434" y="154" type="curve" smooth="yes"/>
      <point x="434" y="54"/>
      <point x="352" y="23"/>
    </contour>
    <contour>
      <point x="317" y="357" type="curve"/>
      <point x="235" y="396"/>
      <point x="178" y="434"/>
      <point x="178" y="508" type="curve" smooth="yes"/>
      <point x="178" y="588"/>
      <point x="243" y="619"/>
      <point x="305" y="619" type="curve" smooth="yes"/>
      <point x="373" y="619"/>
      <point x="431" y="575"/>
      <point x="431" y="512" type="curve" smooth="yes"/>
      <point x="431" y="453"/>
      <point x="390" y="399"/>
    </contour>
  </outline>
</glyph>
<glyph name="semicolon" format="2">
  <advance width="276"/>
  <unicode hex="003B"/>
  <outline>
    <contour>
      <point x="159" y="399" type="curve" smooth="yes"/>
      <point x="175" y="399"/>
      <point x="204" y="422"/>
      <point x="204" y="455" type="curve" smooth="yes"/>
      <point x="204" y="479"/>
      <point x="195" y="490"/>
      <point x="174" y="490" type="curve" smooth="yes"/>
      <point x="147" y="490"/>
      <point x="131" y="471"/>
      <point x="131" y="450" type="curve" smooth="yes"/>
      <point x="131" y="416"/>
      <point x="145" y="399"/>
    </contour>
    <contour>
      <point x="41" y="-78" type="curve" smooth="yes"/>
      <point x="52" y="-78"/>
      <point x="62" y="-74"/>
      <point x="67" y="-69" type="curve" smooth="yes"/>
      <point x="103" y="-29"/>
      <point x="168" y="55"/>
      <point x="168" y="86" type="curve" smooth="yes"/>
      <point x="168" y="94"/>
      <point x="164" y="104"/>
      <point x="157" y="112" type="curve" smooth="yes"/>
      <point x="152" y="117"/>
      <point x="145" y="121"/>
      <point x="136" y="121" type="curve" smooth="yes"/>
      <point x="132" y="121"/>
      <point x="131" y="120"/>
      <point x="129" y="114" type="curve" smooth="yes"/>
      <point x="103" y="53"/>
      <point x="52" y="-37"/>
      <point x="41" y="-55" type="curve" smooth="yes"/>
      <point x="33" y="-67"/>
      <point x="30" y="-71"/>
      <point x="30" y="-73" type="curve" smooth="yes"/>
      <point x="30" y="-76"/>
      <point x="35" y="-78"/>
    </contour>
  </outline>
</glyph>
<glyph name="less" format="2">
  <advance width="540"/>
  <unicode hex="003C"/>
  <outline>
    <contour>
      <point x="431" y="117" type="curve" smooth="yes"/>
      <point x="443" y="117"/>
      <point x="443" y="132"/>
      <point x="443" y="150" type="curve" smooth="yes"/>
      <point x="443" y="155"/>
      <point x="443" y="161"/>
      <point x="429" y="168" type="curve" smooth="yes"/>
      <point x="132" y="307" type="line"/>
      <point x="468" y="448" type="line" smooth="yes"/>
      <point x="486" y="456"/>
      <point x="485" y="482"/>
      <point x="485" y="487" type="curve" smooth="yes"/>
      <point x="485" y="495"/>
      <point x="482" y="506"/>
      <point x="477" y="506" type="curve" smooth="yes"/>
      <point x="473" y="506"/>
      <point x="466" y="505"/>
      <point x="453" y="499" type="curve" smooth="yes"/>
      <point x="99" y="345" type="line" smooth="yes"/>
      <point x="86" y="339"/>
      <point x="78" y="331"/>
      <point x="78" y="319" type="curve" smooth="yes"/>
      <point x="78" y="290"/>
      <point x="81" y="281"/>
      <point x="97" y="273" type="curve" smooth="yes"/>
      <point x="411" y="125" type="line" smooth="yes"/>
      <point x="424" y="119"/>
      <point x="427" y="117"/>
    </contour>
  </outline>
</glyph>
<glyph name="at" format="2">
  <advance width="805"/>
  <unicode hex="0040"/>
  <outline>
    <contour>
      <point x="127" y="-131" type="curve" smooth="yes"/>
      <point x="133" y="-131"/>
      <point x="137" y="-129"/>
      <point x="137" y="-125" type="curve" smooth="yes"/>
      <point x="137" y="-119"/>
      <point x="131" y="-103"/>
      <point x="128" y="-94" type="curve" smooth="yes"/>
      <point x="97" y="13"/>
      <point x="83" y="109"/>
      <point x="83" y="193" type="curve" smooth="yes"/>
      <point x="83" y="462"/>
      <point x="232" y="606"/>
      <point x="424" y="606" type="curve" smooth="yes"/>
      <point x="632" y="606"/>
      <point x="734" y="505"/>
      <point x="734" y="351" type="curve" smooth="yes"/>
      <point x="734" y="233"/>
      <point x="688" y="138"/>
      <point x="617" y="64" type="curve" smooth="yes"/>
      <point x="603" y="50"/>
      <point x="593" y="42"/>
      <point x="587" y="42" type="curve" smooth="yes"/>
      <point x="576" y="42"/>
      <point x="573" y="47"/>
      <point x="573" y="83" type="curve" smooth="yes"/>
      <point x="573" y="209"/>
      <point x="587" y="387"/>
      <point x="587" y="394" type="curve"/>
      <point x="592" y="394"/>
      <point x="597" y="404"/>
      <point x="597" y="419" type="curve" smooth="yes"/>
      <point x="597" y="424"/>
      <point x="596" y="425"/>
      <point x="593" y="426" type="curve" smooth="yes"/>
      <point x="520" y="440"/>
      <point x="429" y="448"/>
      <point x="414" y="448" type="curve" smooth="yes"/>
      <point x="358" y="448"/>
      <point x="305" y="414"/>
      <point x="262" y="356" type="curve" smooth="yes"/>
      <point x="218" y="297"/>
      <point x="215" y="120"/>
      <point x="215" y="53" type="curve" smooth="yes"/>
      <point x="215" y="33"/>
      <point x="216" y="21"/>
      <point x="219" y="15" type="curve" smooth="yes"/>
      <point x="223" y="6"/>
      <point x="252" y="-13"/>
      <point x="262" y="-13" type="curve" smooth="yes"/>
      <point x="316" y="-13"/>
      <point x="466" y="179"/>
      <point x="528" y="304" type="curve"/>
      <point x="521" y="224"/>
      <point x="516" y="102"/>
      <point x="516" y="53" type="curve" smooth="yes"/>
      <point x="516" y="33"/>
      <point x="516" y="21"/>
      <point x="519" y="15" type="curve" smooth="yes"/>
      <point x="523" y="6"/>
      <point x="553" y="-13"/>
      <point x="562" y="-13" type="curve" smooth="yes"/>
      <point x="578" y="-13"/>
      <point x="607" y="4"/>
      <point x="636" y="35" type="curve" smooth="yes"/>
      <point x="717" y="123"/>
      <point x="776" y="236"/>
      <point x="776" y="353" type="curve" smooth="yes"/>
      <point x="776" y="506"/>
      <point x="686" y="652"/>
      <point x="421" y="652" type="curve" smooth="yes"/>
      <point x="173" y="652"/>
      <point x="38" y="465"/>
      <point x="38" y="208" type="curve" smooth="yes"/>
      <point x="38" y="110"/>
      <point x="57" y="3"/>
      <point x="97" y="-108" type="curve" smooth="yes"/>
      <point x="102" y="-123"/>
      <point x="115" y="-131"/>
    </contour>
    <contour>
      <point x="286" y="42" type="curve" smooth="yes"/>
      <point x="275" y="42"/>
      <point x="272" y="47"/>
      <point x="272" y="83" type="curve" smooth="yes"/>
      <point x="272" y="297"/>
      <point x="311" y="412"/>
      <point x="382" y="412" type="curve" smooth="yes"/>
      <point x="414" y="412"/>
      <point x="463" y="408"/>
      <point x="535" y="394" type="curve"/>
      <point x="499" y="272"/>
      <point x="314" y="42"/>
    </contour>
  </outline>
</glyph>
<glyph name="A" format="2">
  <advance width="637"/>
  <unicode hex="0041"/>
  <anchor x="309" y="0" name="bottom"/>
  <anchor x="521" y="0" name="ogonek"/>
  <anchor x="361" y="652" name="top"/>
  <outline>
    <contour>
      <point x="40" y="-13" type="curve" smooth="yes"/>
      <point x="45" y="-13"/>
      <point x="47" y="-11"/>
      <point x="50" y="-4" type="curve" smooth="yes"/>
      <point x="60" y="23"/>
      <point x="157" y="224"/>
      <point x="172" y="247" type="curve"/>
      <point x="204" y="248"/>
      <point x="263" y="251"/>
      <point x="315" y="251" type="curve" smooth="yes"/>
      <point x="376" y="251"/>
      <point x="434" y="249"/>
      <point x="455" y="248" type="curve"/>
      <point x="481" y="169"/>
      <point x="516" y="52"/>
      <point x="523" y="22" type="curve" smooth="yes"/>
      <point x="526" y="10"/>
      <point x="529" y="6"/>
      <point x="532" y="3" type="curve" smooth="yes"/>
      <point x="540" y="-5"/>
      <point x="558" y="-13"/>
      <point x="586" y="-13" type="curve" smooth="yes"/>
      <point x="596" y="-13"/>
      <point x="597" y="-10"/>
      <point x="597" y="-5" type="curve" smooth="yes"/>
      <point x="597" y="-1"/>
      <point x="596" y="1"/>
      <point x="593" y="10" type="curve" smooth="yes"/>
      <point x="563" y="102"/>
      <point x="408" y="563"/>
      <point x="387" y="634" type="curve" smooth="yes"/>
      <point x="385" y="642"/>
      <point x="361" y="652"/>
      <point x="337" y="652" type="curve" smooth="yes"/>
      <point x="330" y="652"/>
      <point x="327" y="651"/>
      <point x="325" y="646" type="curve" smooth="yes"/>
      <point x="269" y="533"/>
      <point x="40" y="82"/>
      <point x="5" y="26" type="curve" smooth="yes"/>
      <point x="3" y="22"/>
      <point x="0" y="16"/>
      <point x="0" y="14" type="curve" smooth="yes"/>
      <point x="0" y="-4"/>
      <point x="20" y="-13"/>
    </contour>
    <contour>
      <point x="193" y="290" type="line"/>
      <point x="217" y="336"/>
      <point x="308" y="524"/>
      <point x="344" y="578" type="curve"/>
      <point x="360" y="533"/>
      <point x="424" y="350"/>
      <point x="441" y="290" type="curve"/>
    </contour>
  </outline>
</glyph>
<glyph name="B" format="2">
  <advance width="561"/>
  <unicode hex="0042"/>
  <anchor x="246" y="0" name="bottom"/>
  <anchor x="286" y="652" name="top"/>
  <outline>
    <contour>
      <point x="98" y="0" type="curve"/>
      <point x="256" y="0" type="line" smooth="yes"/>
      <point x="403" y="0"/>
      <point x="482" y="102"/>
      <point x="482" y="196" type="curve" smooth="yes"/>
      <point x="482" y="272"/>
      <point x="433" y="341"/>
      <point x="327" y="350" type="curve"/>
      <point x="353" y="360"/>
      <point x="462" y="397"/>
      <point x="462" y="510" type="curve" smooth="yes"/>
      <point x="462" y="593"/>
      <point x="400" y="639"/>
      <point x="277" y="639" type="curve" smooth="yes"/>
      <point x="134" y="639" type="line"/>
      <point x="125" y="422"/>
      <point x="105" y="76"/>
    </contour>
    <contour>
      <point x="253" y="37" type="curve" smooth="yes"/>
      <point x="176" y="37"/>
      <point x="164" y="43"/>
      <point x="164" y="82" type="curve" smooth="yes"/>
      <point x="164" y="142"/>
      <point x="168" y="278"/>
      <point x="172" y="320" type="curve"/>
      <point x="201" y="320"/>
      <point x="230" y="320"/>
      <point x="259" y="320" type="curve" smooth="yes"/>
      <point x="321" y="320"/>
      <point x="422" y="305"/>
      <point x="422" y="199" type="curve" smooth="yes"/>
      <point x="422" y="91"/>
      <point x="355" y="37"/>
    </contour>
    <contour>
      <point x="176" y="357" type="curve"/>
      <point x="181" y="460"/>
      <point x="188" y="551"/>
      <point x="195" y="596" type="curve"/>
      <point x="214" y="598"/>
      <point x="250" y="602"/>
      <point x="269" y="602" type="curve" smooth="yes"/>
      <point x="357" y="602"/>
      <point x="403" y="575"/>
      <point x="403" y="503" type="curve" smooth="yes"/>
      <point x="403" y="460"/>
      <point x="383" y="419"/>
      <point x="355" y="397" type="curve" smooth="yes"/>
      <point x="313" y="364"/>
      <point x="266" y="357"/>
    </contour>
  </outline>
</glyph>
<glyph name="C" format="2">
  <advance width="671"/>
  <unicode hex="0043"/>
  <anchor x="365" y="0" name="bottom"/>
  <anchor x="404" y="652" name="top"/>
  <outline>
    <contour>
      <point x="398" y="-13" type="curve" smooth="yes"/>
      <point x="493" y="-13"/>
      <point x="577" y="10"/>
      <point x="603" y="26" type="curve" smooth="yes"/>
      <point x="613" y="32"/>
      <point x="616" y="50"/>
      <point x="616" y="68" type="curve" smooth="yes"/>
      <point x="616" y="76"/>
      <point x="616" y="82"/>
      <point x="613" y="82" type="curve" smooth="yes"/>
      <point x="610" y="82"/>
      <point x="603" y="79"/>
      <point x="593" y="74" type="curve" smooth="yes"/>
      <point x="560" y="57"/>
      <point x="485" y="32"/>
      <point x="388" y="32" type="curve" smooth="yes"/>
      <point x="244" y="32"/>
      <point x="121" y="121"/>
      <point x="121" y="316" type="curve" smooth="yes"/>
      <point x="121" y="513"/>
      <point x="243" y="613"/>
      <point x="396" y="613" type="curve" smooth="yes"/>
      <point x="525" y="613"/>
      <point x="587" y="555"/>
      <point x="605" y="555" type="curve" smooth="yes"/>
      <point x="611" y="555"/>
      <point x="616" y="581"/>
      <point x="616" y="596" type="curve" smooth="yes"/>
      <point x="616" y="603"/>
      <point x="618" y="610"/>
      <point x="597" y="620" type="curve" smooth="yes"/>
      <point x="556" y="640"/>
      <point x="491" y="652"/>
      <point x="384" y="652" type="curve" smooth="yes"/>
      <point x="149" y="652"/>
      <point x="60" y="476"/>
      <point x="60" y="312" type="curve" smooth="yes"/>
      <point x="60" y="58"/>
      <point x="241" y="-13"/>
    </contour>
  </outline>
</glyph>
<glyph name="H" format="2">
  <advance width="786"/>
  <unicode hex="0048"/>
  <anchor x="378" y="0" name="bottom"/>
  <anchor x="398" y="326" name="center"/>
  <anchor x="423" y="652" name="top"/>
  <anchor x="22" y="652" name="topleft"/>
  <outline>
    <contour>
      <point x="151" y="-13" type="curve" smooth="yes"/>
      <point x="159" y="-13"/>
      <point x="161" y="-10"/>
      <point x="161" y="-5" type="curve" smooth="yes"/>
      <point x="161" y="107"/>
      <point x="164" y="214"/>
      <point x="171" y="309" type="curve"/>
      <point x="249" y="313"/>
      <point x="327" y="315"/>
      <point x="404" y="315" type="curve" smooth="yes"/>
      <point x="476" y="315"/>
      <point x="548" y="313"/>
      <point x="618" y="310" type="curve"/>
      <point x="609" y="160"/>
      <point x="598" y="20"/>
      <point x="598" y="14" type="curve" smooth="yes"/>
      <point x="598" y="-4"/>
      <point x="628" y="-13"/>
      <point x="651" y="-13" type="curve" smooth="yes"/>
      <point x="659" y="-13"/>
      <point x="662" y="-10"/>
      <point x="662" y="-5" type="curve" smooth="yes"/>
      <point x="662" y="317"/>
      <point x="697" y="612"/>
      <point x="697" y="626" type="curve" smooth="yes"/>
      <point x="697" y="644"/>
      <point x="666" y="652"/>
      <point x="643" y="652" type="curve" smooth="yes"/>
      <point x="634" y="652"/>
      <point x="633" y="650"/>
      <point x="633" y="645" type="curve" smooth="yes"/>
      <point x="632" y="597"/>
      <point x="627" y="476"/>
      <point x="620" y="353" type="curve"/>
      <point x="173" y="353" type="line"/>
      <point x="183" y="509"/>
      <point x="196" y="618"/>
      <point x="196" y="626" type="curve" smooth="yes"/>
      <point x="196" y="644"/>
      <point x="166" y="652"/>
      <point x="143" y="652" type="curve" smooth="yes"/>
      <point x="134" y="652"/>
      <point x="133" y="650"/>
      <point x="133" y="645" type="curve" smooth="yes"/>
      <point x="130" y="537"/>
      <point x="98" y="26"/>
      <point x="98" y="14" type="curve" smooth="yes"/>
      <point x="98" y="-4"/>
      <point x="128" y="-13"/>
    </contour>
  </outline>
</glyph>
<glyph name="L" format="2">
  <advance width="483"/>
  <unicode hex="004C"/>
  <anchor x="279" y="0" name="bottom"/>
  <anchor x="236" y="326" name="center"/>
  <anchor x="243" y="652" name="top"/>
  <anchor x="416" y="524" name="topright"/>
  <outline>
    <contour>
      <point x="98" y="0" type="curve"/>
      <point x="439" y="0" type="line" smooth="yes"/>
      <point x="447" y="0"/>
      <point x="457" y="26"/>
      <point x="457" y="44" type="curve" smooth="yes"/>
      <point x="457" y="52"/>
      <point x="457" y="58"/>
      <point x="454" y="58" type="curve" smooth="yes"/>
      <point x="452" y="58"/>
      <point x="362" y="37"/>
      <point x="253" y="37" type="curve" smooth="yes"/>
      <point x="176" y="37"/>
      <point x="164" y="43"/>
      <point x="164" y="82" type="curve" smooth="yes"/>
      <point x="164" y="322"/>
      <point x="197" y="620"/>
      <point x="197" y="626" type="curve" smooth="yes"/>
      <point x="197" y="644"/>
      <point x="167" y="652"/>
      <point x="144" y="652" type="curve" smooth="yes"/>
      <point x="136" y="652"/>
      <point x="134" y="650"/>
      <point x="134" y="645" type="curve" smooth="yes"/>
      <point x="127" y="428"/>
      <point x="105" y="76"/>
    </contour>
  </outline>
</glyph>
<glyph name="M" format="2">
  <advance width="979"/>
  <unicode hex="004D"/>
  <anchor x="470" y="0" name="bottom"/>
  <anchor x="504" y="652" name="top"/>
  <outline>
    <contour>
      <point x="137" y="-13" type="curve" smooth="yes"/>
      <point x="144" y="-13"/>
      <point x="145" y="-10"/>
      <point x="145" y="-5" type="curve" smooth="yes"/>
      <point x="145" y="49"/>
      <point x="188" y="379"/>
      <point x="213" y="562" type="curve"/>
      <point x="256" y="466"/>
      <point x="393" y="134"/>
      <point x="447" y="5" type="curve" smooth="yes"/>
      <point x="451" y="-4"/>
      <point x="462" y="-13"/>
      <point x="477" y="-13" type="curve" smooth="yes"/>
      <point x="482" y="-13"/>
      <point x="486" y="-8"/>
      <point x="488" y="-4" type="curve" smooth="yes"/>
      <point x="591" y="183"/>
      <point x="756" y="477"/>
      <point x="811" y="576" type="curve"/>
      <point x="811" y="559"/>
      <point x="815" y="427"/>
      <point x="814" y="281" type="curve" smooth="yes"/>
      <point x="813" y="194"/>
      <point x="809" y="83"/>
      <point x="809" y="14" type="curve" smooth="yes"/>
      <point x="809" y="-4"/>
      <point x="838" y="-13"/>
      <point x="859" y="-13" type="curve" smooth="yes"/>
      <point x="867" y="-13"/>
      <point x="869" y="-10"/>
      <point x="869" y="-3" type="curve" smooth="yes"/>
      <point x="869" y="210"/>
      <point x="866" y="412"/>
      <point x="864" y="625" type="curve" smooth="yes"/>
      <point x="864" y="645"/>
      <point x="828" y="652"/>
      <point x="807" y="652" type="curve" smooth="yes"/>
      <point x="798" y="652"/>
      <point x="796" y="651"/>
      <point x="792" y="644" type="curve" smooth="yes"/>
      <point x="750" y="567"/>
      <point x="588" y="262"/>
      <point x="483" y="76" type="curve"/>
      <point x="429" y="191"/>
      <point x="323" y="443"/>
      <point x="250" y="628" type="curve" smooth="yes"/>
      <point x="244" y="644"/>
      <point x="219" y="652"/>
      <point x="189" y="652" type="curve" smooth="yes"/>
      <point x="178" y="652"/>
      <point x="176" y="650"/>
      <point x="175" y="637" type="curve" smooth="yes"/>
      <point x="153" y="429"/>
      <point x="90" y="24"/>
      <point x="90" y="14" type="curve" smooth="yes"/>
      <point x="90" y="-4"/>
      <point x="117" y="-13"/>
    </contour>
  </outline>
</glyph>
<glyph name="O" format="2">
  <advance width="749"/>
  <unicode hex="004F"/>
  <anchor x="364" y="0" name="bottom"/>
  <anchor x="381" y="326" name="center"/>
  <anchor x="432" y="10" name="ogonek"/>
  <anchor x="398" y="652" name="top"/>
  <anchor x="44" y="652" name="topleft"/>
  <anchor x="561" y="602" name="topright"/>
  <outline>
    <contour>
      <point x="374" y="-13" type="curve" smooth="yes"/>
      <point x="590" y="-13"/>
      <point x="689" y="134"/>
      <point x="689" y="349" type="curve" smooth="yes"/>
      <point x="689" y="528"/>
      <point x="600" y="652"/>
      <point x="382" y="652" type="curve" smooth="yes"/>
      <point x="166" y="652"/>
      <point x="67" y="506"/>
      <point x="67" y="291" type="curve" smooth="yes"/>
      <point x="67" y="112"/>
      <point x="156" y="-13"/>
    </contour>
    <contour>
      <point x="375" y="24" type="curve" smooth="yes"/>
      <point x="200" y="24"/>
      <point x="128" y="135"/>
      <point x="128" y="294" type="curve" smooth="yes"/>
      <point x="128" y="485"/>
      <point x="208" y="615"/>
      <point x="381" y="615" type="curve" smooth="yes"/>
      <point x="556" y="615"/>
      <point x="628" y="505"/>
      <point x="628" y="346" type="curve" smooth="yes"/>
      <point x="628" y="154"/>
      <point x="548" y="24"/>
    </contour>
  </outline>
</glyph>
<glyph name="R" format="2">
  <advance width="566"/>
  <unicode hex="0052"/>
  <anchor x="278" y="0" name="bottom"/>
  <anchor x="312" y="652" name="top"/>
  <outline>
    <contour>
      <point x="151" y="-13" type="curve" smooth="yes"/>
      <point x="159" y="-13"/>
      <point x="161" y="-10"/>
      <point x="161" y="-5" type="curve" smooth="yes"/>
      <point x="161" y="112"/>
      <point x="164" y="218"/>
      <point x="170" y="307" type="curve"/>
      <point x="177" y="298"/>
      <point x="196" y="296"/>
      <point x="204" y="293" type="curve"/>
      <point x="254" y="253"/>
      <point x="385" y="125"/>
      <point x="492" y="8" type="curve" smooth="yes"/>
      <point x="503" y="-4"/>
      <point x="513" y="-13"/>
      <point x="523" y="-13" type="curve" smooth="yes"/>
      <point x="540" y="-13"/>
      <point x="566" y="7"/>
      <point x="566" y="14" type="curve" smooth="yes"/>
      <point x="566" y="17"/>
      <point x="565" y="21"/>
      <point x="558" y="27" type="curve" smooth="yes"/>
      <point x="542" y="40"/>
      <point x="321" y="262"/>
      <point x="278" y="306" type="curve"/>
      <point x="404" y="314"/>
      <point x="483" y="407"/>
      <point x="483" y="491" type="curve" smooth="yes"/>
      <point x="483" y="566"/>
      <point x="424" y="639"/>
      <point x="282" y="639" type="curve" smooth="yes"/>
      <point x="136" y="639" type="line"/>
      <point x="130" y="529"/>
      <point x="98" y="26"/>
      <point x="98" y="14" type="curve" smooth="yes"/>
      <point x="98" y="-4"/>
      <point x="128" y="-13"/>
    </contour>
    <contour>
      <point x="172" y="331" type="curve"/>
      <point x="180" y="485"/>
      <point x="191" y="559"/>
      <point x="195" y="597" type="curve"/>
      <point x="211" y="600"/>
      <point x="226" y="602"/>
      <point x="251" y="602" type="curve" smooth="yes"/>
      <point x="384" y="602"/>
      <point x="423" y="554"/>
      <point x="423" y="480" type="curve" smooth="yes"/>
      <point x="423" y="440"/>
      <point x="407" y="411"/>
      <point x="383" y="388" type="curve" smooth="yes"/>
      <point x="329" y="337"/>
      <point x="235" y="324"/>
    </contour>
  </outline>
</glyph>
<glyph name="T" format="2">
  <advance width="527"/>
  <unicode hex="0054"/>
  <anchor x="250" y="0" name="bottom"/>
  <anchor x="290" y="326" name="center"/>
  <anchor x="287" y="652" name="top"/>
  <outline>
    <contour>
      <point x="273" y="-13" type="curve" smooth="yes"/>
      <point x="282" y="-13"/>
      <point x="284" y="-10"/>
      <point x="284" y="-5" type="curve" smooth="yes"/>
      <point x="284" y="264"/>
      <point x="306" y="514"/>
      <point x="314" y="596" type="curve"/>
      <point x="320" y="596" type="line"/>
      <point x="452" y="596"/>
      <point x="514" y="588"/>
      <point x="524" y="588" type="curve" smooth="yes"/>
      <point x="534" y="588"/>
      <point x="539" y="607"/>
      <point x="539" y="630" type="curve" smooth="yes"/>
      <point x="539" y="638"/>
      <point x="537" y="639"/>
      <point x="532" y="639" type="curve" smooth="yes"/>
      <point x="49" y="639" type="line" smooth="yes"/>
      <point x="39" y="639"/>
      <point x="34" y="620"/>
      <point x="34" y="597" type="curve" smooth="yes"/>
      <point x="34" y="590"/>
      <point x="37" y="588"/>
      <point x="42" y="588" type="curve" smooth="yes"/>
      <point x="53" y="588"/>
      <point x="104" y="596"/>
      <point x="247" y="596" type="curve"/>
      <point x="253" y="596" type="line"/>
      <point x="248" y="358"/>
      <point x="221" y="24"/>
      <point x="221" y="14" type="curve" smooth="yes"/>
      <point x="221" y="-4"/>
      <point x="251" y="-13"/>
    </contour>
  </outline>
</glyph>
<glyph name="V" format="2">
  <advance width="618"/>
  <unicode hex="0056"/>
  <anchor x="280" y="0" name="bottom"/>
  <anchor x="337" y="652" name="top"/>
  <outline>
    <contour>
      <point x="292" y="-13" type="curve" smooth="yes"/>
      <point x="300" y="-13"/>
      <point x="302" y="-11"/>
      <point x="305" y="-6" type="curve" smooth="yes"/>
      <point x="365" y="107"/>
      <point x="583" y="558"/>
      <point x="608" y="613" type="curve" smooth="yes"/>
      <point x="610" y="617"/>
      <point x="613" y="623"/>
      <point x="613" y="626" type="curve" smooth="yes"/>
      <point x="613" y="641"/>
      <point x="590" y="652"/>
      <point x="569" y="652" type="curve" smooth="yes"/>
      <point x="564" y="652"/>
      <point x="561" y="651"/>
      <point x="559" y="644" type="curve" smooth="yes"/>
      <point x="528" y="548"/>
      <point x="326" y="121"/>
      <point x="290" y="64" type="curve"/>
      <point x="251" y="151"/>
      <point x="115" y="593"/>
      <point x="103" y="628" type="curve" smooth="yes"/>
      <point x="100" y="637"/>
      <point x="85" y="652"/>
      <point x="46" y="652" type="curve" smooth="yes"/>
      <point x="36" y="652"/>
      <point x="35" y="650"/>
      <point x="35" y="645" type="curve" smooth="yes"/>
      <point x="35" y="641"/>
      <point x="36" y="639"/>
      <point x="39" y="630" type="curve" smooth="yes"/>
      <point x="66" y="538"/>
      <point x="221" y="77"/>
      <point x="245" y="6" type="curve" smooth="yes"/>
      <point x="248" y="-3"/>
      <point x="268" y="-13"/>
    </contour>
  </outline>
</glyph>
<glyph name="X" format="2">
  <advance width="598"/>
  <unicode hex="0058"/>
  <anchor x="291" y="0" name="bottom"/>
  <anchor x="335" y="645" name="top"/>
  <outline>
    <contour>
      <point x="50" y="-13" type="curve" smooth="yes"/>
      <point x="54" y="-13"/>
      <point x="56" y="-13"/>
      <point x="66" y="1" type="curve" smooth="yes"/>
      <point x="127" y="86"/>
      <point x="200" y="174"/>
      <point x="300" y="297" type="curve"/>
      <point x="350" y="224"/>
      <point x="478" y="28"/>
      <point x="501" y="0" type="curve" smooth="yes"/>
      <point x="509" y="-10"/>
      <point x="511" y="-13"/>
      <point x="518" y="-13" type="curve" smooth="yes"/>
      <point x="530" y="-13"/>
      <point x="550" y="-4"/>
      <point x="562" y="6" type="curve" smooth="yes"/>
      <point x="567" y="10"/>
      <point x="568" y="13"/>
      <point x="568" y="14" type="curve" smooth="yes"/>
      <point x="568" y="15"/>
      <point x="564" y="21"/>
      <point x="557" y="31" type="curve" smooth="yes"/>
      <point x="525" y="75"/>
      <point x="430" y="200"/>
      <point x="346" y="331" type="curve"/>
      <point x="408" y="409"/>
      <point x="463" y="484"/>
      <point x="529" y="577" type="curve" smooth="yes"/>
      <point x="534" y="585"/>
      <point x="536" y="590"/>
      <point x="536" y="598" type="curve" smooth="yes"/>
      <point x="536" y="622"/>
      <point x="523" y="652"/>
      <point x="510" y="652" type="curve" smooth="yes"/>
      <point x="507" y="652"/>
      <point x="506" y="650"/>
      <point x="503" y="644" type="curve" smooth="yes"/>
      <point x="481" y="592"/>
      <point x="400" y="465"/>
      <point x="324" y="366" type="curve"/>
      <point x="248" y="474"/>
      <point x="181" y="581"/>
      <point x="141" y="645" type="curve" smooth="yes"/>
      <point x="137" y="651"/>
      <point x="132" y="652"/>
      <point x="123" y="652" type="curve" smooth="yes"/>
      <point x="102" y="652"/>
      <point x="76" y="636"/>
      <point x="76" y="628" type="curve" smooth="yes"/>
      <point x="76" y="625"/>
      <point x="77" y="623"/>
      <point x="83" y="614" type="curve" smooth="yes"/>
      <point x="104" y="583"/>
      <point x="175" y="493"/>
      <point x="277" y="334" type="curve"/>
      <point x="203" y="243"/>
      <point x="127" y="155"/>
      <point x="34" y="52" type="curve" smooth="yes"/>
      <point x="28" y="46"/>
      <point x="26" y="43"/>
      <point x="26" y="38" type="curve" smooth="yes"/>
      <point x="26" y="20"/>
      <point x="35" y="-13"/>
    </contour>
  </outline>
</glyph>
<glyph name="Z" format="2">
  <advance width="539"/>
  <unicode hex="005A"/>
  <anchor x="289" y="0" name="bottom"/>
  <anchor x="276" y="326" name="center"/>
  <anchor x="313" y="652" name="top"/>
  <outline>
    <contour>
      <point x="61" y="0" type="curve" smooth="yes"/>
      <point x="484" y="0" type="line" smooth="yes"/>
      <point x="490" y="0"/>
      <point x="501" y="23"/>
      <point x="501" y="43" type="curve" smooth="yes"/>
      <point x="501" y="53"/>
      <point x="499" y="61"/>
      <point x="494" y="61" type="curve" smooth="yes"/>
      <point x="487" y="61"/>
      <point x="461" y="46"/>
      <point x="206" y="46" type="curve" smooth="yes"/>
      <point x="112" y="46" type="line"/>
      <point x="125" y="72"/>
      <point x="470" y="551"/>
      <point x="490" y="578" type="curve" smooth="yes"/>
      <point x="498" y="588"/>
      <point x="499" y="598"/>
      <point x="499" y="605" type="curve" smooth="yes"/>
      <point x="499" y="619"/>
      <point x="490" y="639"/>
      <point x="481" y="639" type="curve" smooth="yes"/>
      <point x="109" y="639" type="line" smooth="yes"/>
      <point x="100" y="639"/>
      <point x="91" y="616"/>
      <point x="91" y="594" type="curve" smooth="yes"/>
      <point x="91" y="584"/>
      <point x="92" y="578"/>
      <point x="97" y="578" type="curve" smooth="yes"/>
      <point x="110" y="578"/>
      <point x="122" y="594"/>
      <point x="338" y="594" type="curve" smooth="yes"/>
      <point x="431" y="594" type="line"/>
      <point x="368" y="482"/>
      <point x="143" y="179"/>
      <point x="52" y="58" type="curve" smooth="yes"/>
      <point x="44" y="48"/>
      <point x="44" y="44"/>
      <point x="44" y="38" type="curve" smooth="yes"/>
      <point x="44" y="24"/>
      <point x="52" y="0"/>
    </contour>
  </outline>
</glyph>
<glyph name="bracketleft" format="2">
  <advance width="311"/>
  <unicode hex="005B"/>
  <outline>
    <contour>
      <point x="84" y="-244" type="curve"/>
      <point x="261" y="-244" type="line" smooth="yes"/>
      <point x="277" y="-244"/>
      <point x="283" y="-228"/>
      <point x="283" y="-205" type="curve" smooth="yes"/>
      <point x="283" y="-199"/>
      <point x="282" y="-196"/>
      <point x="277" y="-196" type="curve" smooth="yes"/>
      <point x="273" y="-196"/>
      <point x="253" y="-200"/>
      <point x="140" y="-203" type="curve"/>
      <point x="140" y="44"/>
      <point x="181" y="642"/>
      <point x="187" y="713" type="curve"/>
      <point x="280" y="712"/>
      <point x="312" y="708"/>
      <point x="316" y="708" type="curve" smooth="yes"/>
      <point x="321" y="708"/>
      <point x="327" y="727"/>
      <point x="327" y="742" type="curve" smooth="yes"/>
      <point x="327" y="754"/>
      <point x="325" y="756"/>
      <point x="318" y="756" type="curve" smooth="yes"/>
      <point x="134" y="756" type="line"/>
      <point x="127" y="550"/>
      <point x="84" y="-189"/>
    </contour>
  </outline>
</glyph>
<glyph name="underscore" format="2">
  <advance width="500"/>
  <unicode hex="005F"/>
  <outline>
    <contour>
      <point x="-20" y="-140" type="curve" smooth="yes"/>
      <point x="494" y="-140" type="line" smooth="yes"/>
      <point x="511" y="-140"/>
      <point x="517" y="-119"/>
      <point x="517" y="-101" type="curve" smooth="yes"/>
      <point x="517" y="-95"/>
      <point x="514" y="-93"/>
      <point x="509" y="-93" type="curve" smooth="yes"/>
      <point x="-5" y="-93" type="line" smooth="yes"/>
      <point x="-22" y="-93"/>
      <point x="-28" y="-115"/>
      <point x="-28" y="-133" type="curve" smooth="yes"/>
      <point x="-28" y="-139"/>
      <point x="-25" y="-140"/>
    </contour>
  </outline>
</glyph>
<glyph name="a" format="2">
  <advance width="645"/>
  <unicode hex="0061"/>
  <anchor x="303" y="0" name="bottom"/>
  <anchor x="529" y="10" name="ogonek"/>
  <anchor x="339" y="524" name="top"/>
  <outline>
    <contour>
      <point x="142" y="-13" type="curve" smooth="yes"/>
      <point x="205" y="-13"/>
      <point x="379" y="210"/>
      <point x="451" y="355" type="curve"/>
      <point x="445" y="262"/>
      <point x="438" y="121"/>
      <point x="438" y="63" type="curve" smooth="yes"/>
      <point x="438" y="40"/>
      <point x="438" y="26"/>
      <point x="441" y="20" type="curve" smooth="yes"/>
      <point x="446" y="9"/>
      <point x="480" y="-13"/>
      <point x="491" y="-13" type="curve" smooth="yes"/>
      <point x="533" y="-13"/>
      <point x="618" y="88"/>
      <point x="651" y="131" type="curve" smooth="yes"/>
      <point x="653" y="133"/>
      <point x="654" y="137"/>
      <point x="654" y="141" type="curve" smooth="yes"/>
      <point x="654" y="154"/>
      <point x="644" y="170"/>
      <point x="640" y="170" type="curve" smooth="yes"/>
      <point x="637" y="170"/>
      <point x="636" y="167"/>
      <point x="633" y="164" type="curve"/>
      <point x="612" y="136"/>
      <point x="530" y="41"/>
      <point x="511" y="41" type="curve" smooth="yes"/>
      <point x="499" y="41"/>
      <point x="495" y="48"/>
      <point x="495" y="89" type="curve" smooth="yes"/>
      <point x="495" y="237"/>
      <point x="511" y="451"/>
      <point x="511" y="460" type="curve"/>
      <point x="516" y="460"/>
      <point x="523" y="472"/>
      <point x="523" y="490" type="curve" smooth="yes"/>
      <point x="523" y="495"/>
      <point x="520" y="496"/>
      <point x="519" y="496" type="curve" smooth="yes"/>
      <point x="442" y="513"/>
      <point x="338" y="524"/>
      <point x="320" y="524" type="curve" smooth="yes"/>
      <point x="253" y="524"/>
      <point x="191" y="484"/>
      <point x="142" y="417" type="curve" smooth="yes"/>
      <point x="91" y="348"/>
      <point x="88" y="141"/>
      <point x="88" y="63" type="curve" smooth="yes"/>
      <point x="88" y="40"/>
      <point x="89" y="26"/>
      <point x="92" y="20" type="curve" smooth="yes"/>
      <point x="97" y="9"/>
      <point x="131" y="-13"/>
    </contour>
    <contour>
      <point x="161" y="41" type="curve" smooth="yes"/>
      <point x="149" y="41"/>
      <point x="145" y="48"/>
      <point x="145" y="89" type="curve" smooth="yes"/>
      <point x="145" y="339"/>
      <point x="199" y="481"/>
      <point x="282" y="481" type="curve" smooth="yes"/>
      <point x="320" y="481"/>
      <point x="377" y="476"/>
      <point x="460" y="460" type="curve"/>
      <point x="418" y="319"/>
      <point x="194" y="41"/>
    </contour>
  </outline>
</glyph>
<glyph name="c" format="2">
  <advance width="448"/>
  <unicode hex="0063"/>
  <anchor x="230" y="0" name="bottom"/>
  <anchor x="285" y="524" name="top"/>
  <outline>
    <contour>
      <point x="237" y="-13" type="curve" smooth="yes"/>
      <point x="311" y="-13"/>
      <point x="368" y="16"/>
      <point x="411" y="62" type="curve" smooth="yes"/>
      <point x="417" y="68"/>
      <point x="418" y="71"/>
      <point x="418" y="77" type="curve" smooth="yes"/>
      <point x="418" y="89"/>
      <point x="412" y="103"/>
      <point x="406" y="103" type="curve" smooth="yes"/>
      <point x="402" y="103"/>
      <point x="400" y="100"/>
      <point x="387" y="88" type="curve" smooth="yes"/>
      <point x="366" y="69"/>
      <point x="319" y="30"/>
      <point x="258" y="30" type="curve" smooth="yes"/>
      <point x="168" y="30"/>
      <point x="125" y="112"/>
      <point x="125" y="227" type="curve" smooth="yes"/>
      <point x="125" y="387"/>
      <point x="188" y="489"/>
      <point x="258" y="489" type="curve" smooth="yes"/>
      <point x="301" y="489"/>
      <point x="331" y="478"/>
      <point x="364" y="440" type="curve" smooth="yes"/>
      <point x="373" y="430"/>
      <point x="377" y="426"/>
      <point x="385" y="426" type="curve" smooth="yes"/>
      <point x="394" y="426"/>
      <point x="402" y="448"/>
      <point x="402" y="464" type="curve" smooth="yes"/>
      <point x="402" y="472"/>
      <point x="398" y="480"/>
      <point x="388" y="489" type="curve" smooth="yes"/>
      <point x="360" y="514"/>
      <point x="331" y="524"/>
      <point x="270" y="524" type="curve" smooth="yes"/>
      <point x="179" y="524"/>
      <point x="63" y="450"/>
      <point x="63" y="222" type="curve" smooth="yes"/>
      <point x="63" y="53"/>
      <point x="139" y="-13"/>
    </contour>
  </outline>
</glyph>
<glyph name="d" format="2">
  <advance width="645"/>
  <unicode hex="0064"/>
  <anchor x="303" y="0" name="bottom"/>
  <anchor x="323" y="262" name="center"/>
  <anchor x="480" y="639" name="cross"/>
  <anchor x="253" y="524" name="top"/>
  <anchor x="638" y="630" name="topright"/>
  <outline>
    <contour>
      <point x="142" y="-13" type="curve" smooth="yes"/>
      <point x="205" y="-13"/>
      <point x="379" y="210"/>
      <point x="451" y="355" type="curve"/>
      <point x="445" y="262"/>
      <point x="438" y="121"/>
      <point x="438" y="63" type="curve" smooth="yes"/>
      <point x="438" y="40"/>
      <point x="438" y="26"/>
      <point x="441" y="20" type="curve" smooth="yes"/>
      <point x="446" y="9"/>
      <point x="480" y="-13"/>
      <point x="491" y="-13" type="curve" smooth="yes"/>
      <point x="533" y="-13"/>
      <point x="618" y="88"/>
      <point x="651" y="131" type="curve" smooth="yes"/>
      <point x="653" y="133"/>
      <point x="654" y="136"/>
      <point x="654" y="141" type="curve" smooth="yes"/>
      <point x="654" y="154"/>
      <point x="644" y="170"/>
      <point x="641" y="170" type="curve" smooth="yes"/>
      <point x="637" y="170"/>
      <point x="636" y="167"/>
      <point x="633" y="164" type="curve"/>
      <point x="612" y="136"/>
      <point x="530" y="42"/>
      <point x="511" y="42" type="curve" smooth="yes"/>
      <point x="499" y="42"/>
      <point x="495" y="48"/>
      <point x="495" y="89" type="curve" smooth="yes"/>
      <point x="495" y="237"/>
      <point x="511" y="451"/>
      <point x="511" y="460" type="curve"/>
      <point x="516" y="460"/>
      <point x="523" y="472"/>
      <point x="523" y="490" type="curve" smooth="yes"/>
      <point x="523" y="495"/>
      <point x="521" y="497"/>
      <point x="519" y="497" type="curve" smooth="yes"/>
      <point x="515" y="497" type="line"/>
      <point x="524" y="632"/>
      <point x="530" y="709"/>
      <point x="530" y="729" type="curve" smooth="yes"/>
      <point x="530" y="747"/>
      <point x="503" y="756"/>
      <point x="481" y="756" type="curve" smooth="yes"/>
      <point x="474" y="756"/>
      <point x="472" y="753"/>
      <point x="472" y="748" type="curve" smooth="yes"/>
      <point x="471" y="655"/>
      <point x="469" y="602"/>
      <point x="462" y="508" type="curve"/>
      <point x="397" y="518"/>
      <point x="334" y="524"/>
      <point x="320" y="524" type="curve" smooth="yes"/>
      <point x="253" y="524"/>
      <point x="191" y="484"/>
      <point x="142" y="417" type="curve" smooth="yes"/>
      <point x="91" y="348"/>
      <point x="88" y="141"/>
      <point x="88" y="63" type="curve" smooth="yes"/>
      <point x="88" y="40"/>
      <point x="89" y="26"/>
      <point x="92" y="20" type="curve" smooth="yes"/>
      <point x="97" y="9"/>
      <point x="131" y="-13"/>
    </contour>
    <contour>
      <point x="161" y="42" type="curve" smooth="yes"/>
      <point x="149" y="42"/>
      <point x="145" y="48"/>
      <point x="145" y="89" type="curve" smooth="yes"/>
      <point x="145" y="339"/>
      <point x="199" y="481"/>
      <point x="282" y="481" type="curve" smooth="yes"/>
      <point x="320" y="481"/>
      <point x="377" y="476"/>
      <point x="460" y="460" type="curve"/>
      <point x="418" y="319"/>
      <point x="194" y="42"/>
    </contour>
  </outline>
</glyph>
<glyph name="e" format="2">
  <advance width="465"/>
  <unicode hex="0065"/>
  <anchor x="234" y="0" name="bottom"/>
  <anchor x="371" y="0" name="ogonek"/>
  <anchor x="299" y="524" name="top"/>
  <outline>
    <contour>
      <point x="240" y="-13" type="curve" smooth="yes"/>
      <point x="314" y="-13"/>
      <point x="371" y="16"/>
      <point x="414" y="62" type="curve" smooth="yes"/>
      <point x="420" y="68"/>
      <point x="421" y="71"/>
      <point x="421" y="77" type="curve" smooth="yes"/>
      <point x="421" y="89"/>
      <point x="415" y="103"/>
      <point x="409" y="103" type="curve" smooth="yes"/>
      <point x="405" y="103"/>
      <point x="403" y="100"/>
      <point x="390" y="88" type="curve" smooth="yes"/>
      <point x="369" y="69"/>
      <point x="317" y="30"/>
      <point x="256" y="30" type="curve" smooth="yes"/>
      <point x="165" y="30"/>
      <point x="126" y="112"/>
      <point x="126" y="227" type="curve" smooth="yes"/>
      <point x="126" y="246"/>
      <point x="126" y="275"/>
      <point x="128" y="282" type="curve"/>
      <point x="154" y="276"/>
      <point x="194" y="271"/>
      <point x="236" y="271" type="curve" smooth="yes"/>
      <point x="318" y="271"/>
      <point x="419" y="311"/>
      <point x="419" y="413" type="curve" smooth="yes"/>
      <point x="419" y="472"/>
      <point x="381" y="524"/>
      <point x="283" y="524" type="curve" smooth="yes"/>
      <point x="171" y="524"/>
      <point x="66" y="450"/>
      <point x="66" y="222" type="curve" smooth="yes"/>
      <point x="66" y="53"/>
      <point x="142" y="-13"/>
    </contour>
    <contour>
      <point x="234" y="310" type="curve" smooth="yes"/>
      <point x="188" y="310"/>
      <point x="144" y="325"/>
      <point x="139" y="333" type="curve"/>
      <point x="158" y="441"/>
      <point x="211" y="492"/>
      <point x="270" y="492" type="curve" smooth="yes"/>
      <point x="329" y="492"/>
      <point x="354" y="456"/>
      <point x="354" y="416" type="curve" smooth="yes"/>
      <point x="354" y="348"/>
      <point x="311" y="310"/>
    </contour>
  </outline>
</glyph>
<glyph name="g" format="2">
  <advance width="590"/>
  <unicode hex="0067"/>
  <anchor x="278" y="-244" name="bottom"/>
  <anchor x="348" y="524" name="top"/>
  <outline>
    <contour>
      <point x="324" y="-244" type="curve" smooth="yes"/>
      <point x="356" y="-244"/>
      <point x="402" y="-228"/>
      <point x="438" y="-193" type="curve" smooth="yes"/>
      <point x="475" y="-157"/>
      <point x="502" y="-103"/>
      <point x="502" y="-28" type="curve" smooth="yes"/>
      <point x="502" y="307"/>
      <point x="502" y="399"/>
      <point x="516" y="460" type="curve"/>
      <point x="521" y="460"/>
      <point x="528" y="472"/>
      <point x="528" y="490" type="curve" smooth="yes"/>
      <point x="528" y="495"/>
      <point x="525" y="496"/>
      <point x="524" y="496" type="curve" smooth="yes"/>
      <point x="447" y="513"/>
      <point x="343" y="524"/>
      <point x="325" y="524" type="curve" smooth="yes"/>
      <point x="258" y="524"/>
      <point x="196" y="484"/>
      <point x="147" y="417" type="curve" smooth="yes"/>
      <point x="96" y="348"/>
      <point x="93" y="141"/>
      <point x="93" y="63" type="curve" smooth="yes"/>
      <point x="93" y="40"/>
      <point x="94" y="26"/>
      <point x="97" y="20" type="curve" smooth="yes"/>
      <point x="102" y="9"/>
      <point x="136" y="-13"/>
      <point x="147" y="-13" type="curve" smooth="yes"/>
      <point x="210" y="-13"/>
      <point x="384" y="210"/>
      <point x="456" y="355" type="curve"/>
      <point x="448" y="268"/>
      <point x="447" y="129"/>
      <point x="447" y="45" type="curve" smooth="yes"/>
      <point x="447" y="-164"/>
      <point x="413" y="-193"/>
      <point x="332" y="-193" type="curve" smooth="yes"/>
      <point x="215" y="-193"/>
      <point x="97" y="-128"/>
      <point x="90" y="-128" type="curve" smooth="yes"/>
      <point x="85" y="-128"/>
      <point x="82" y="-135"/>
      <point x="82" y="-149" type="curve" smooth="yes"/>
      <point x="82" y="-159"/>
      <point x="86" y="-171"/>
      <point x="92" y="-174" type="curve" smooth="yes"/>
      <point x="136" y="-197"/>
      <point x="234" y="-244"/>
    </contour>
    <contour>
      <point x="166" y="42" type="curve" smooth="yes"/>
      <point x="154" y="42"/>
      <point x="150" y="48"/>
      <point x="150" y="89" type="curve" smooth="yes"/>
      <point x="150" y="339"/>
      <point x="204" y="481"/>
      <point x="287" y="481" type="curve" smooth="yes"/>
      <point x="325" y="481"/>
      <point x="382" y="476"/>
      <point x="465" y="460" type="curve"/>
      <point x="423" y="319"/>
      <point x="199" y="42"/>
    </contour>
  </outline>
</glyph>
<glyph name="i" format="2">
  <advance width="312"/>
  <unicode hex="0069"/>
  <anchor x="156" y="0" name="bottom"/>
  <outline>
    <contour>
      <point x="158" y="-13" type="curve" smooth="yes"/>
      <point x="200" y="-13"/>
      <point x="285" y="88"/>
      <point x="318" y="131" type="curve" smooth="yes"/>
      <point x="320" y="133"/>
      <point x="321" y="137"/>
      <point x="321" y="141" type="curve" smooth="yes"/>
      <point x="321" y="154"/>
      <point x="311" y="170"/>
      <point x="307" y="170" type="curve" smooth="yes"/>
      <point x="304" y="170"/>
      <point x="303" y="167"/>
      <point x="300" y="164" type="curve"/>
      <point x="279" y="136"/>
      <point x="197" y="41"/>
      <point x="178" y="41" type="curve" smooth="yes"/>
      <point x="166" y="41"/>
      <point x="162" y="48"/>
      <point x="162" y="89" type="curve" smooth="yes"/>
      <point x="162" y="164"/>
      <point x="187" y="451"/>
      <point x="187" y="497" type="curve" smooth="yes"/>
      <point x="187" y="515"/>
      <point x="160" y="524"/>
      <point x="138" y="524" type="curve" smooth="yes"/>
      <point x="131" y="524"/>
      <point x="130" y="521"/>
      <point x="130" y="516" type="curve" smooth="yes"/>
      <point x="130" y="447"/>
      <point x="109" y="191"/>
      <point x="107" y="63" type="curve" smooth="yes"/>
      <point x="107" y="40"/>
      <point x="106" y="26"/>
      <point x="109" y="20" type="curve" smooth="yes"/>
      <point x="114" y="9"/>
      <point x="147" y="-13"/>
    </contour>
    <contour>
      <point x="171" y="664" type="curve" smooth="yes"/>
      <point x="191" y="664"/>
      <point x="210" y="689"/>
      <point x="210" y="710" type="curve" smooth="yes"/>
      <point x="210" y="744"/>
      <point x="196" y="756"/>
      <point x="181" y="756" type="curve" smooth="yes"/>
      <point x="160" y="756"/>
      <point x="137" y="732"/>
      <point x="137" y="699" type="curve" smooth="yes"/>
      <point x="137" y="675"/>
      <point x="151" y="664"/>
    </contour>
  </outline>
</glyph>
<glyph name="j" format="2">
  <advance width="286"/>
  <unicode hex="006A"/>
  <outline>
    <contour>
      <point x="-18" y="-244" type="curve" smooth="yes"/>
      <point x="23" y="-244"/>
      <point x="87" y="-212"/>
      <point x="121" y="-159" type="curve" smooth="yes"/>
      <point x="148" y="-117"/>
      <point x="171" y="-82"/>
      <point x="184" y="146" type="curve" smooth="yes"/>
      <point x="189" y="241"/>
      <point x="191" y="356"/>
      <point x="191" y="497" type="curve" smooth="yes"/>
      <point x="191" y="515"/>
      <point x="164" y="524"/>
      <point x="142" y="524" type="curve" smooth="yes"/>
      <point x="135" y="524"/>
      <point x="134" y="521"/>
      <point x="134" y="516" type="curve" smooth="yes"/>
      <point x="134" y="382"/>
      <point x="131" y="255"/>
      <point x="124" y="146" type="curve" smooth="yes"/>
      <point x="114" y="-19"/>
      <point x="95" y="-139"/>
      <point x="65" y="-168" type="curve" smooth="yes"/>
      <point x="47" y="-185"/>
      <point x="20" y="-193"/>
      <point x="-9" y="-193" type="curve" smooth="yes"/>
      <point x="-62" y="-193"/>
      <point x="-113" y="-178"/>
      <point x="-119" y="-178" type="curve" smooth="yes"/>
      <point x="-127" y="-178"/>
      <point x="-130" y="-179"/>
      <point x="-130" y="-192" type="curve" smooth="yes"/>
      <point x="-130" y="-211"/>
      <point x="-128" y="-220"/>
      <point x="-120" y="-224" type="curve" smooth="yes"/>
      <point x="-110" y="-229"/>
      <point x="-63" y="-244"/>
    </contour>
    <contour>
      <point x="175" y="664" type="curve" smooth="yes"/>
      <point x="195" y="664"/>
      <point x="214" y="689"/>
      <point x="214" y="710" type="curve" smooth="yes"/>
      <point x="214" y="744"/>
      <point x="200" y="756"/>
      <point x="185" y="756" type="curve" smooth="yes"/>
      <point x="164" y="756"/>
      <point x="141" y="732"/>
      <point x="141" y="699" type="curve" smooth="yes"/>
      <point x="141" y="675"/>
      <point x="155" y="664"/>
    </contour>
  </outline>
</glyph>
<glyph name="k" format="2">
  <advance width="559"/>
  <unicode hex="006B"/>
  <anchor x="290" y="0" name="bottom"/>
  <anchor x="398" y="640" name="top"/>
  <outline>
    <contour>
      <point x="147" y="-13" type="curve" smooth="yes"/>
      <point x="154" y="-13"/>
      <point x="157" y="-10"/>
      <point x="157" y="-5" type="curve" smooth="yes"/>
      <point x="157" y="36"/>
      <point x="165" y="79"/>
      <point x="178" y="122" type="curve" smooth="yes"/>
      <point x="232" y="301"/>
      <point x="377" y="480"/>
      <point x="447" y="480" type="curve" smooth="yes"/>
      <point x="470" y="480"/>
      <point x="487" y="456"/>
      <point x="487" y="436" type="curve" smooth="yes"/>
      <point x="487" y="363"/>
      <point x="365" y="275"/>
      <point x="229" y="233" type="curve"/>
      <point x="320" y="171"/>
      <point x="463" y="25"/>
      <point x="484" y="0" type="curve" smooth="yes"/>
      <point x="492" y="-9"/>
      <point x="496" y="-13"/>
      <point x="499" y="-13" type="curve" smooth="yes"/>
      <point x="503" y="-13"/>
      <point x="507" y="-8"/>
      <point x="510" y="0" type="curve" smooth="yes"/>
      <point x="513" y="9"/>
      <point x="515" y="21"/>
      <point x="515" y="35" type="curve" smooth="yes"/>
      <point x="515" y="45"/>
      <point x="508" y="57"/>
      <point x="496" y="71" type="curve" smooth="yes"/>
      <point x="471" y="102"/>
      <point x="376" y="188"/>
      <point x="326" y="229" type="curve"/>
      <point x="412" y="269"/>
      <point x="535" y="336"/>
      <point x="535" y="425" type="curve" smooth="yes"/>
      <point x="535" y="477"/>
      <point x="504" y="524"/>
      <point x="452" y="524" type="curve" smooth="yes"/>
      <point x="404" y="524"/>
      <point x="267" y="431"/>
      <point x="171" y="203" type="curve"/>
      <point x="171" y="236"/>
      <point x="208" y="683"/>
      <point x="208" y="729" type="curve" smooth="yes"/>
      <point x="208" y="747"/>
      <point x="180" y="756"/>
      <point x="159" y="756" type="curve" smooth="yes"/>
      <point x="151" y="756"/>
      <point x="150" y="753"/>
      <point x="150" y="748" type="curve" smooth="yes"/>
      <point x="146" y="560"/>
      <point x="107" y="18"/>
      <point x="107" y="14" type="curve" smooth="yes"/>
      <point x="107" y="-4"/>
      <point x="128" y="-13"/>
    </contour>
  </outline>
</glyph>
<glyph name="p" format="2">
  <advance width="582"/>
  <unicode hex="0070"/>
  <anchor x="301" y="0" name="bottom"/>
  <anchor x="311" y="514" name="top"/>
  <outline>
    <contour>
      <point x="141" y="-244" type="curve" smooth="yes"/>
      <point x="149" y="-244"/>
      <point x="150" y="-242"/>
      <point x="150" y="-237" type="curve" smooth="yes"/>
      <point x="151" y="-169"/>
      <point x="152" y="-120"/>
      <point x="159" y="5" type="curve"/>
      <point x="222" y="-5"/>
      <point x="287" y="-13"/>
      <point x="307" y="-13" type="curve" smooth="yes"/>
      <point x="374" y="-13"/>
      <point x="434" y="28"/>
      <point x="480" y="94" type="curve" smooth="yes"/>
      <point x="512" y="140"/>
      <point x="519" y="245"/>
      <point x="519" y="333" type="curve" smooth="yes"/>
      <point x="519" y="438"/>
      <point x="516" y="481"/>
      <point x="510" y="491" type="curve" smooth="yes"/>
      <point x="504" y="503"/>
      <point x="470" y="524"/>
      <point x="458" y="524" type="curve" smooth="yes"/>
      <point x="395" y="524"/>
      <point x="234" y="311"/>
      <point x="169" y="166" type="curve"/>
      <point x="175" y="242"/>
      <point x="191" y="458"/>
      <point x="191" y="497" type="curve" smooth="yes"/>
      <point x="191" y="515"/>
      <point x="164" y="524"/>
      <point x="142" y="524" type="curve" smooth="yes"/>
      <point x="135" y="524"/>
      <point x="134" y="521"/>
      <point x="134" y="516" type="curve" smooth="yes"/>
      <point x="134" y="416"/>
      <point x="117" y="164"/>
      <point x="110" y="52" type="curve"/>
      <point x="105" y="52"/>
      <point x="98" y="39"/>
      <point x="98" y="21" type="curve" smooth="yes"/>
      <point x="98" y="16"/>
      <point x="101" y="15"/>
      <point x="102" y="15" type="curve" smooth="yes"/>
      <point x="110" y="14" type="line"/>
      <point x="101" y="-128"/>
      <point x="94" y="-196"/>
      <point x="94" y="-218" type="curve" smooth="yes"/>
      <point x="94" y="-236"/>
      <point x="122" y="-244"/>
    </contour>
    <contour>
      <point x="343" y="30" type="curve" smooth="yes"/>
      <point x="305" y="30"/>
      <point x="248" y="35"/>
      <point x="164" y="52" type="curve"/>
      <point x="199" y="193"/>
      <point x="409" y="470"/>
      <point x="442" y="470" type="curve" smooth="yes"/>
      <point x="462" y="470"/>
      <point x="463" y="438"/>
      <point x="463" y="341" type="curve" smooth="yes"/>
      <point x="463" y="142"/>
      <point x="417" y="30"/>
    </contour>
  </outline>
</glyph>
<glyph name="q" format="2">
  <advance width="605"/>
  <unicode hex="0071"/>
  <outline>
    <contour>
      <point x="470" y="-244" type="curve" smooth="yes"/>
      <point x="477" y="-244"/>
      <point x="479" y="-242"/>
      <point x="479" y="-237" type="curve" smooth="yes"/>
      <point x="480" y="-35"/>
      <point x="504" y="438"/>
      <point x="511" y="460" type="curve"/>
      <point x="516" y="460"/>
      <point x="523" y="472"/>
      <point x="523" y="490" type="curve" smooth="yes"/>
      <point x="523" y="495"/>
      <point x="520" y="496"/>
      <point x="519" y="496" type="curve" smooth="yes"/>
      <point x="442" y="513"/>
      <point x="338" y="524"/>
      <point x="320" y="524" type="curve" smooth="yes"/>
      <point x="253" y="524"/>
      <point x="191" y="484"/>
      <point x="142" y="417" type="curve" smooth="yes"/>
      <point x="91" y="348"/>
      <point x="88" y="141"/>
      <point x="88" y="63" type="curve" smooth="yes"/>
      <point x="88" y="40"/>
      <point x="89" y="26"/>
      <point x="92" y="20" type="curve" smooth="yes"/>
      <point x="97" y="9"/>
      <point x="131" y="-13"/>
      <point x="142" y="-13" type="curve" smooth="yes"/>
      <point x="205" y="-13"/>
      <point x="379" y="210"/>
      <point x="451" y="355" type="curve"/>
      <point x="448" y="241"/>
      <point x="421" y="-136"/>
      <point x="421" y="-219" type="curve" smooth="yes"/>
      <point x="421" y="-237"/>
      <point x="448" y="-244"/>
    </contour>
    <contour>
      <point x="161" y="42" type="curve" smooth="yes"/>
      <point x="149" y="42"/>
      <point x="145" y="48"/>
      <point x="145" y="89" type="curve" smooth="yes"/>
      <point x="145" y="339"/>
      <point x="199" y="481"/>
      <point x="282" y="481" type="curve" smooth="yes"/>
      <point x="320" y="481"/>
      <point x="377" y="476"/>
      <point x="460" y="460" type="curve"/>
      <point x="418" y="319"/>
      <point x="194" y="42"/>
    </contour>
  </outline>
</glyph>
<glyph name="w" format="2">
  <advance width="781"/>
  <unicode hex="0077"/>
  <anchor x="371" y="0" name="bottom"/>
  <anchor x="415" y="524" name="top"/>
  <outline>
    <contour>
      <point x="170" y="-13" type="curve" smooth="yes"/>
      <point x="176" y="-13"/>
      <point x="178" y="-10"/>
      <point x="182" y="-4" type="curve" smooth="yes"/>
      <point x="275" y="136"/>
      <point x="376" y="329"/>
      <point x="409" y="440" type="curve"/>
      <point x="437" y="370"/>
      <point x="483" y="238"/>
      <point x="540" y="13" type="curve" smooth="yes"/>
      <point x="545" y="-6"/>
      <point x="575" y="-13"/>
      <point x="592" y="-13" type="curve" smooth="yes"/>
      <point x="598" y="-13"/>
      <point x="600" y="-10"/>
      <point x="603" y="-4" type="curve" smooth="yes"/>
      <point x="699" y="184"/>
      <point x="768" y="373"/>
      <point x="768" y="497" type="curve" smooth="yes"/>
      <point x="768" y="503"/>
      <point x="767" y="506"/>
      <point x="763" y="510" type="curve" smooth="yes"/>
      <point x="754" y="519"/>
      <point x="736" y="524"/>
      <point x="721" y="524" type="curve" smooth="yes"/>
      <point x="715" y="524"/>
      <point x="715" y="521"/>
      <point x="715" y="516" type="curve" smooth="yes"/>
      <point x="715" y="490"/>
      <point x="716" y="441"/>
      <point x="699" y="365" type="curve" smooth="yes"/>
      <point x="682" y="290"/>
      <point x="651" y="186"/>
      <point x="588" y="53" type="curve"/>
      <point x="584" y="67"/>
      <point x="580" y="86"/>
      <point x="573" y="110" type="curve" smooth="yes"/>
      <point x="539" y="227"/>
      <point x="474" y="442"/>
      <point x="456" y="485" type="curve" smooth="yes"/>
      <point x="450" y="499"/>
      <point x="444" y="508"/>
      <point x="438" y="514" type="curve" smooth="yes"/>
      <point x="430" y="521"/>
      <point x="418" y="524"/>
      <point x="395" y="524" type="curve" smooth="yes"/>
      <point x="384" y="524"/>
      <point x="381" y="523"/>
      <point x="380" y="516" type="curve" smooth="yes"/>
      <point x="375" y="474"/>
      <point x="356" y="417"/>
      <point x="330" y="354" type="curve" smooth="yes"/>
      <point x="288" y="252"/>
      <point x="228" y="137"/>
      <point x="176" y="54" type="curve"/>
      <point x="175" y="71"/>
      <point x="172" y="96"/>
      <point x="168" y="125" type="curve" smooth="yes"/>
      <point x="152" y="244"/>
      <point x="122" y="443"/>
      <point x="112" y="485" type="curve" smooth="yes"/>
      <point x="104" y="518"/>
      <point x="98" y="524"/>
      <point x="56" y="524" type="curve" smooth="yes"/>
      <point x="44" y="524"/>
      <point x="40" y="521"/>
      <point x="40" y="515" type="curve" smooth="yes"/>
      <point x="40" y="499"/>
      <point x="85" y="383"/>
      <point x="124" y="13" type="curve" smooth="yes"/>
      <point x="126" y="-6"/>
      <point x="153" y="-13"/>
    </contour>
  </outline>
</glyph>
<glyph name="x" format="2">
  <advance width="430"/>
  <unicode hex="0078"/>
  <anchor x="201" y="0" name="bottom"/>
  <anchor x="241" y="524" name="top"/>
  <outline>
    <contour>
      <point x="35" y="-13" type="curve" smooth="yes"/>
      <point x="40" y="-13"/>
      <point x="65" y="37"/>
      <point x="212" y="224" type="curve"/>
      <point x="237" y="185"/>
      <point x="348" y="23"/>
      <point x="370" y="-6" type="curve" smooth="yes"/>
      <point x="374" y="-11"/>
      <point x="375" y="-13"/>
      <point x="380" y="-13" type="curve" smooth="yes"/>
      <point x="383" y="-13"/>
      <point x="389" y="-7"/>
      <point x="391" y="-3" type="curve" smooth="yes"/>
      <point x="397" y="6"/>
      <point x="405" y="23"/>
      <point x="405" y="42" type="curve" smooth="yes"/>
      <point x="405" y="52"/>
      <point x="401" y="58"/>
      <point x="397" y="63" type="curve" smooth="yes"/>
      <point x="368" y="98"/>
      <point x="290" y="208"/>
      <point x="254" y="264" type="curve"/>
      <point x="315" y="341"/>
      <point x="385" y="419"/>
      <point x="411" y="459" type="curve" smooth="yes"/>
      <point x="417" y="469"/>
      <point x="421" y="476"/>
      <point x="421" y="481" type="curve" smooth="yes"/>
      <point x="421" y="501"/>
      <point x="410" y="524"/>
      <point x="402" y="524" type="curve" smooth="yes"/>
      <point x="397" y="524"/>
      <point x="362" y="460"/>
      <point x="230" y="292" type="curve"/>
      <point x="140" y="428"/>
      <point x="113" y="497"/>
      <point x="101" y="519" type="curve" smooth="yes"/>
      <point x="99" y="522"/>
      <point x="96" y="524"/>
      <point x="92" y="524" type="curve" smooth="yes"/>
      <point x="87" y="524"/>
      <point x="82" y="521"/>
      <point x="76" y="516" type="curve" smooth="yes"/>
      <point x="60" y="502"/>
      <point x="57" y="492"/>
      <point x="57" y="482" type="curve" smooth="yes"/>
      <point x="57" y="476"/>
      <point x="60" y="467"/>
      <point x="67" y="453" type="curve" smooth="yes"/>
      <point x="91" y="404"/>
      <point x="153" y="312"/>
      <point x="187" y="253" type="curve"/>
      <point x="124" y="173"/>
      <point x="31" y="65"/>
      <point x="21" y="49" type="curve" smooth="yes"/>
      <point x="17" y="43"/>
      <point x="16" y="37"/>
      <point x="16" y="30" type="curve" smooth="yes"/>
      <point x="16" y="10"/>
      <point x="26" y="-13"/>
    </contour>
  </outline>
</glyph>
<glyph name="z" format="2">
  <advance width="446"/>
  <unicode hex="007A"/>
  <anchor x="239" y="0" name="bottom"/>
  <anchor x="249" y="262" name="center"/>
  <anchor x="259" y="524" name="top"/>
  <outline>
    <contour>
      <point x="62" y="0" type="curve" smooth="yes"/>
      <point x="382" y="0" type="line" smooth="yes"/>
      <point x="398" y="0"/>
      <point x="405" y="26"/>
      <point x="405" y="49" type="curve" smooth="yes"/>
      <point x="405" y="57"/>
      <point x="402" y="59"/>
      <point x="397" y="59" type="curve" smooth="yes"/>
      <point x="392" y="59"/>
      <point x="346" y="38"/>
      <point x="158" y="38" type="curve" smooth="yes"/>
      <point x="143" y="38"/>
      <point x="126" y="38"/>
      <point x="108" y="38" type="curve"/>
      <point x="119" y="53"/>
      <point x="129" y="67"/>
      <point x="141" y="83" type="curve" smooth="yes"/>
      <point x="216" y="186"/>
      <point x="342" y="356"/>
      <point x="391" y="429" type="curve" smooth="yes"/>
      <point x="401" y="444"/>
      <point x="408" y="455"/>
      <point x="408" y="460" type="curve" smooth="yes"/>
      <point x="408" y="485"/>
      <point x="397" y="511"/>
      <point x="392" y="511" type="curve" smooth="yes"/>
      <point x="110" y="511" type="line" smooth="yes"/>
      <point x="99" y="511"/>
      <point x="92" y="488"/>
      <point x="92" y="464" type="curve" smooth="yes"/>
      <point x="92" y="455"/>
      <point x="95" y="454"/>
      <point x="100" y="454" type="curve" smooth="yes"/>
      <point x="109" y="454"/>
      <point x="125" y="471"/>
      <point x="306" y="471" type="curve" smooth="yes"/>
      <point x="320" y="471"/>
      <point x="336" y="471"/>
      <point x="353" y="471" type="curve"/>
      <point x="349" y="462"/>
      <point x="339" y="444"/>
      <point x="322" y="419" type="curve" smooth="yes"/>
      <point x="264" y="334"/>
      <point x="137" y="163"/>
      <point x="69" y="69" type="curve" smooth="yes"/>
      <point x="61" y="58"/>
      <point x="48" y="42"/>
      <point x="48" y="39" type="curve" smooth="yes"/>
      <point x="48" y="20"/>
      <point x="57" y="0"/>
    </contour>
  </outline>
</glyph>
<glyph name="braceleft" format="2">
  <advance width="311"/>
  <unicode hex="007B"/>
  <outline>
    <contour>
      <point x="188" y="-244" type="curve" smooth="yes"/>
      <point x="194" y="-244"/>
      <point x="199" y="-243"/>
      <point x="203" y="-242" type="curve" smooth="yes"/>
      <point x="207" y="-241"/>
      <point x="210" y="-238"/>
      <point x="210" y="-233" type="curve" smooth="yes"/>
      <point x="210" y="-219"/>
      <point x="204" y="-214"/>
      <point x="191" y="-214" type="curve" smooth="yes"/>
      <point x="170" y="-214"/>
      <point x="154" y="-198"/>
      <point x="154" y="-134" type="curve" smooth="yes"/>
      <point x="154" y="-62"/>
      <point x="171" y="56"/>
      <point x="171" y="143" type="curve" smooth="yes"/>
      <point x="171" y="203"/>
      <point x="144" y="238"/>
      <point x="99" y="256" type="curve"/>
      <point x="141" y="265"/>
      <point x="177" y="302"/>
      <point x="185" y="354" type="curve" smooth="yes"/>
      <point x="195" y="418"/>
      <point x="195" y="569"/>
      <point x="205" y="649" type="curve" smooth="yes"/>
      <point x="214" y="718"/>
      <point x="233" y="724"/>
      <point x="249" y="724" type="curve" smooth="yes"/>
      <point x="270" y="724"/>
      <point x="273" y="726"/>
      <point x="273" y="736" type="curve" smooth="yes"/>
      <point x="273" y="745"/>
      <point x="270" y="751"/>
      <point x="265" y="753" type="curve" smooth="yes"/>
      <point x="260" y="755"/>
      <point x="255" y="756"/>
      <point x="248" y="756" type="curve" smooth="yes"/>
      <point x="190" y="756"/>
      <point x="145" y="713"/>
      <point x="142" y="608" type="curve" smooth="yes"/>
      <point x="140" y="540"/>
      <point x="136" y="405"/>
      <point x="134" y="385" type="curve" smooth="yes"/>
      <point x="128" y="315"/>
      <point x="111" y="283"/>
      <point x="62" y="272" type="curve" smooth="yes"/>
      <point x="55" y="270"/>
      <point x="52" y="266"/>
      <point x="52" y="262" type="curve" smooth="yes"/>
      <point x="52" y="255"/>
      <point x="53" y="248"/>
      <point x="60" y="245" type="curve" smooth="yes"/>
      <point x="104" y="228"/>
      <point x="119" y="204"/>
      <point x="119" y="151" type="curve" smooth="yes"/>
      <point x="119" y="103"/>
      <point x="94" y="-73"/>
      <point x="94" y="-119" type="curve" smooth="yes"/>
      <point x="94" y="-197"/>
      <point x="132" y="-244"/>
    </contour>
  </outline>
</glyph>
<glyph name="asciitilde" format="2">
  <advance width="554"/>
  <unicode hex="007E"/>
  <outline>
    <contour>
      <point x="382" y="243" type="curve" smooth="yes"/>
      <point x="409" y="243"/>
      <point x="423" y="248"/>
      <point x="441" y="276" type="curve" smooth="yes"/>
      <point x="454" y="296"/>
      <point x="469" y="344"/>
      <point x="469" y="374" type="curve" smooth="yes"/>
      <point x="469" y="380"/>
      <point x="458" y="385"/>
      <point x="446" y="385" type="curve" smooth="yes"/>
      <point x="443" y="385"/>
      <point x="441" y="383"/>
      <point x="440" y="378" type="curve" smooth="yes"/>
      <point x="426" y="320"/>
      <point x="416" y="301"/>
      <point x="392" y="301" type="curve" smooth="yes"/>
      <point x="356" y="301"/>
      <point x="211" y="397"/>
      <point x="170" y="397" type="curve" smooth="yes"/>
      <point x="144" y="397"/>
      <point x="129" y="390"/>
      <point x="111" y="364" type="curve" smooth="yes"/>
      <point x="97" y="343"/>
      <point x="84" y="295"/>
      <point x="84" y="264" type="curve" smooth="yes"/>
      <point x="84" y="259"/>
      <point x="95" y="254"/>
      <point x="105" y="254" type="curve" smooth="yes"/>
      <point x="110" y="254"/>
      <point x="112" y="256"/>
      <point x="113" y="262" type="curve" smooth="yes"/>
      <point x="126" y="319"/>
      <point x="136" y="339"/>
      <point x="160" y="339" type="curve" smooth="yes"/>
      <point x="197" y="339"/>
      <point x="342" y="243"/>
    </contour>
  </outline>
</glyph>
<glyph name="sterling" format="2">
  <advance width="467"/>
  <unicode hex="00A3"/>
  <outline>
    <contour>
      <point x="113" y="0" type="curve" smooth="yes"/>
      <point x="412" y="0" type="line" smooth="yes"/>
      <point x="429" y="0"/>
      <point x="435" y="25"/>
      <point x="435" y="50" type="curve" smooth="yes"/>
      <point x="435" y="60"/>
      <point x="432" y="62"/>
      <point x="427" y="62" type="curve" smooth="yes"/>
      <point x="422" y="62"/>
      <point x="386" y="46"/>
      <point x="193" y="46" type="curve" smooth="yes"/>
      <point x="149" y="46" type="line"/>
      <point x="166" y="64"/>
      <point x="197" y="111"/>
      <point x="197" y="193" type="curve" smooth="yes"/>
      <point x="197" y="305" type="line"/>
      <point x="344" y="305" type="line" smooth="yes"/>
      <point x="361" y="305"/>
      <point x="367" y="326"/>
      <point x="367" y="344" type="curve" smooth="yes"/>
      <point x="367" y="350"/>
      <point x="364" y="351"/>
      <point x="359" y="351" type="curve" smooth="yes"/>
      <point x="196" y="351" type="line"/>
      <point x="196" y="427" type="line" smooth="yes"/>
      <point x="196" y="568"/>
      <point x="231" y="601"/>
      <point x="293" y="601" type="curve" smooth="yes"/>
      <point x="374" y="601"/>
      <point x="420" y="576"/>
      <point x="426" y="576" type="curve" smooth="yes"/>
      <point x="437" y="576"/>
      <point x="441" y="585"/>
      <point x="441" y="599" type="curve" smooth="yes"/>
      <point x="441" y="606"/>
      <point x="440" y="610"/>
      <point x="435" y="613" type="curve" smooth="yes"/>
      <point x="410" y="631"/>
      <point x="359" y="652"/>
      <point x="317" y="652" type="curve" smooth="yes"/>
      <point x="276" y="652"/>
      <point x="237" y="632"/>
      <point x="202" y="599" type="curve" smooth="yes"/>
      <point x="159" y="558"/>
      <point x="138" y="503"/>
      <point x="138" y="401" type="curve" smooth="yes"/>
      <point x="138" y="351" type="line"/>
      <point x="63" y="351" type="line" smooth="yes"/>
      <point x="47" y="351"/>
      <point x="41" y="330"/>
      <point x="41" y="312" type="curve" smooth="yes"/>
      <point x="41" y="306"/>
      <point x="43" y="305"/>
      <point x="48" y="305" type="curve" smooth="yes"/>
      <point x="142" y="305" type="line"/>
      <point x="142" y="204" type="line" smooth="yes"/>
      <point x="142" y="113"/>
      <point x="128" y="77"/>
      <point x="106" y="44" type="curve" smooth="yes"/>
      <point x="102" y="38"/>
      <point x="101" y="35"/>
      <point x="101" y="26" type="curve" smooth="yes"/>
      <point x="101" y="14"/>
      <point x="106" y="0"/>
    </contour>
  </outline>
</glyph>
<glyph name="currency" format="2">
  <advance width="419"/>
  <unicode hex="00A4"/>
  <outline>
    <contour>
      <point x="33" y="51" type="curve" smooth="yes"/>
      <point x="37" y="51"/>
      <point x="40" y="55"/>
      <point x="49" y="68" type="curve" smooth="yes"/>
      <point x="60" y="83"/>
      <point x="78" y="109"/>
      <point x="105" y="146" type="curve"/>
      <point x="131" y="129"/>
      <point x="164" y="120"/>
      <point x="200" y="120" type="curve" smooth="yes"/>
      <point x="241" y="120"/>
      <point x="273" y="128"/>
      <point x="300" y="143" type="curve"/>
      <point x="324" y="108"/>
      <point x="345" y="65"/>
      <point x="352" y="56" type="curve" smooth="yes"/>
      <point x="356" y="50"/>
      <point x="359" y="49"/>
      <point x="363" y="49" type="curve" smooth="yes"/>
      <point x="372" y="49"/>
      <point x="391" y="74"/>
      <point x="391" y="90" type="curve" smooth="yes"/>
      <point x="391" y="97"/>
      <point x="389" y="105"/>
      <point x="381" y="119" type="curve" smooth="yes"/>
      <point x="373" y="133"/>
      <point x="354" y="157"/>
      <point x="341" y="175" type="curve"/>
      <point x="379" y="212"/>
      <point x="401" y="271"/>
      <point x="401" y="331" type="curve" smooth="yes"/>
      <point x="401" y="385"/>
      <point x="382" y="431"/>
      <point x="359" y="452" type="curve"/>
      <point x="380" y="478"/>
      <point x="397" y="496"/>
      <point x="405" y="511" type="curve" smooth="yes"/>
      <point x="409" y="518"/>
      <point x="410" y="521"/>
      <point x="410" y="530" type="curve" smooth="yes"/>
      <point x="410" y="550"/>
      <point x="400" y="572"/>
      <point x="393" y="572" type="curve" smooth="yes"/>
      <point x="389" y="572"/>
      <point x="386" y="568"/>
      <point x="377" y="555" type="curve" smooth="yes"/>
      <point x="366" y="540"/>
      <point x="348" y="514"/>
      <point x="321" y="477" type="curve"/>
      <point x="295" y="494"/>
      <point x="262" y="503"/>
      <point x="226" y="503" type="curve" smooth="yes"/>
      <point x="185" y="503"/>
      <point x="153" y="495"/>
      <point x="126" y="480" type="curve"/>
      <point x="102" y="515"/>
      <point x="81" y="558"/>
      <point x="74" y="567" type="curve" smooth="yes"/>
      <point x="70" y="573"/>
      <point x="67" y="574"/>
      <point x="63" y="574" type="curve" smooth="yes"/>
      <point x="54" y="574"/>
      <point x="35" y="549"/>
      <point x="35" y="533" type="curve" smooth="yes"/>
      <point x="35" y="526"/>
      <point x="37" y="518"/>
      <point x="45" y="504" type="curve" smooth="yes"/>
      <point x="53" y="490"/>
      <point x="72" y="466"/>
      <point x="85" y="448" type="curve"/>
      <point x="47" y="411"/>
      <point x="25" y="352"/>
      <point x="25" y="292" type="curve" smooth="yes"/>
      <point x="25" y="238"/>
      <point x="44" y="192"/>
      <point x="67" y="171" type="curve"/>
      <point x="46" y="145"/>
      <point x="29" y="127"/>
      <point x="21" y="112" type="curve" smooth="yes"/>
      <point x="17" y="105"/>
      <point x="16" y="102"/>
      <point x="16" y="93" type="curve" smooth="yes"/>
      <point x="16" y="73"/>
      <point x="26" y="51"/>
    </contour>
    <contour>
      <point x="203" y="156" type="curve" smooth="yes"/>
      <point x="134" y="156"/>
      <point x="86" y="209"/>
      <point x="86" y="287" type="curve" smooth="yes"/>
      <point x="86" y="406"/>
      <point x="131" y="468"/>
      <point x="223" y="468" type="curve" smooth="yes"/>
      <point x="290" y="468"/>
      <point x="339" y="416"/>
      <point x="339" y="336" type="curve" smooth="yes"/>
      <point x="339" y="220"/>
      <point x="294" y="156"/>
    </contour>
  </outline>
</glyph>
<glyph name="yen" format="2">
  <advance width="564"/>
  <unicode hex="00A5"/>
  <outline>
    <contour>
      <point x="299" y="-13" type="curve" smooth="yes"/>
      <point x="307" y="-13"/>
      <point x="309" y="-10"/>
      <point x="309" y="-5" type="curve" smooth="yes"/>
      <point x="311" y="70"/>
      <point x="314" y="145"/>
      <point x="316" y="223" type="curve"/>
      <point x="469" y="223" type="line" smooth="yes"/>
      <point x="485" y="223"/>
      <point x="491" y="242"/>
      <point x="491" y="259" type="curve" smooth="yes"/>
      <point x="491" y="266"/>
      <point x="489" y="267"/>
      <point x="484" y="267" type="curve" smooth="yes"/>
      <point x="319" y="267" type="line"/>
      <point x="376" y="369"/>
      <point x="492" y="542"/>
      <point x="522" y="595" type="curve" smooth="yes"/>
      <point x="526" y="603"/>
      <point x="529" y="608"/>
      <point x="529" y="612" type="curve" smooth="yes"/>
      <point x="529" y="628"/>
      <point x="518" y="652"/>
      <point x="504" y="652" type="curve" smooth="yes"/>
      <point x="500" y="652"/>
      <point x="497" y="650"/>
      <point x="495" y="646" type="curve" smooth="yes"/>
      <point x="481" y="621"/>
      <point x="360" y="418"/>
      <point x="299" y="320" type="curve"/>
      <point x="265" y="378"/>
      <point x="202" y="504"/>
      <point x="115" y="640" type="curve" smooth="yes"/>
      <point x="108" y="651"/>
      <point x="103" y="652"/>
      <point x="95" y="652" type="curve" smooth="yes"/>
      <point x="69" y="652"/>
      <point x="45" y="637"/>
      <point x="45" y="631" type="curve" smooth="yes"/>
      <point x="45" y="629"/>
      <point x="48" y="624"/>
      <point x="55" y="615" type="curve" smooth="yes"/>
      <point x="79" y="583"/>
      <point x="150" y="490"/>
      <point x="265" y="270" type="curve"/>
      <point x="266" y="267" type="line"/>
      <point x="113" y="267" type="line" smooth="yes"/>
      <point x="97" y="267"/>
      <point x="91" y="249"/>
      <point x="91" y="231" type="curve" smooth="yes"/>
      <point x="91" y="225"/>
      <point x="93" y="223"/>
      <point x="98" y="223" type="curve" smooth="yes"/>
      <point x="260" y="223" type="line"/>
      <point x="253" y="132"/>
      <point x="246" y="24"/>
      <point x="246" y="14" type="curve" smooth="yes"/>
      <point x="246" y="-4"/>
      <point x="276" y="-13"/>
    </contour>
  </outline>
</glyph>
<glyph name="brokenbar" format="2">
  <advance width="275"/>
  <unicode hex="00A6"/>
  <outline>
    <contour>
      <point x="136" y="678" type="curve" smooth="yes"/>
      <point x="135" y="678" type="line" smooth="yes"/>
      <point x="126" y="678"/>
      <point x="123" y="676"/>
      <point x="123" y="671" type="curve" smooth="yes"/>
      <point x="122" y="569"/>
      <point x="111" y="365"/>
      <point x="111" y="360" type="curve" smooth="yes"/>
      <point x="111" y="342"/>
      <point x="129" y="334"/>
      <point x="151" y="334" type="curve" smooth="yes"/>
      <point x="160" y="334"/>
      <point x="161" y="336"/>
      <point x="161" y="341" type="curve" smooth="yes"/>
      <point x="161" y="424"/>
      <point x="180" y="638"/>
      <point x="180" y="652" type="curve" smooth="yes"/>
      <point x="180" y="670"/>
      <point x="158" y="678"/>
    </contour>
    <contour>
      <point x="126" y="178" type="curve" smooth="yes"/>
      <point x="125" y="178" type="line" smooth="yes"/>
      <point x="116" y="178"/>
      <point x="115" y="176"/>
      <point x="115" y="171" type="curve" smooth="yes"/>
      <point x="115" y="88"/>
      <point x="96" y="-126"/>
      <point x="96" y="-140" type="curve" smooth="yes"/>
      <point x="96" y="-158"/>
      <point x="118" y="-166"/>
      <point x="141" y="-166" type="curve" smooth="yes"/>
      <point x="150" y="-166"/>
      <point x="153" y="-164"/>
      <point x="153" y="-159" type="curve" smooth="yes"/>
      <point x="154" y="-57"/>
      <point x="165" y="147"/>
      <point x="165" y="152" type="curve" smooth="yes"/>
      <point x="165" y="170"/>
      <point x="147" y="178"/>
    </contour>
  </outline>
</glyph>
<glyph name="section" format="2">
  <advance width="550"/>
  <unicode hex="00A7"/>
  <outline>
    <contour>
      <point x="246" y="-13" type="curve" smooth="yes"/>
      <point x="327" y="-13"/>
      <point x="413" y="37"/>
      <point x="413" y="115" type="curve" smooth="yes"/>
      <point x="413" y="160"/>
      <point x="384" y="184"/>
      <point x="332" y="213" type="curve"/>
      <point x="392" y="234"/>
      <point x="438" y="276"/>
      <point x="438" y="329" type="curve" smooth="yes"/>
      <point x="438" y="367"/>
      <point x="429" y="388"/>
      <point x="396" y="417" type="curve" smooth="yes"/>
      <point x="355" y="453"/>
      <point x="247" y="466"/>
      <point x="199" y="512" type="curve" smooth="yes"/>
      <point x="186" y="524"/>
      <point x="181" y="537"/>
      <point x="181" y="554" type="curve" smooth="yes"/>
      <point x="181" y="605"/>
      <point x="229" y="620"/>
      <point x="271" y="620" type="curve" smooth="yes"/>
      <point x="365" y="620"/>
      <point x="417" y="561"/>
      <point x="422" y="561" type="curve" smooth="yes"/>
      <point x="432" y="561"/>
      <point x="441" y="578"/>
      <point x="441" y="598" type="curve" smooth="yes"/>
      <point x="441" y="600"/>
      <point x="440" y="607"/>
      <point x="437" y="610" type="curve"/>
      <point x="399" y="639"/>
      <point x="343" y="652"/>
      <point x="285" y="652" type="curve" smooth="yes"/>
      <point x="179" y="652"/>
      <point x="128" y="605"/>
      <point x="128" y="543" type="curve" smooth="yes"/>
      <point x="128" y="494"/>
      <point x="156" y="465"/>
      <point x="213" y="435" type="curve"/>
      <point x="135" y="419"/>
      <point x="110" y="363"/>
      <point x="110" y="330" type="curve" smooth="yes"/>
      <point x="110" y="290"/>
      <point x="120" y="263"/>
      <point x="155" y="232" type="curve" smooth="yes"/>
      <point x="203" y="188"/>
      <point x="299" y="182"/>
      <point x="343" y="137" type="curve" smooth="yes"/>
      <point x="354" y="125"/>
      <point x="361" y="111"/>
      <point x="361" y="92" type="curve" smooth="yes"/>
      <point x="361" y="40"/>
      <point x="302" y="23"/>
      <point x="254" y="23" type="curve" smooth="yes"/>
      <point x="157" y="23"/>
      <point x="114" y="81"/>
      <point x="105" y="81" type="curve" smooth="yes"/>
      <point x="95" y="81"/>
      <point x="87" y="58"/>
      <point x="87" y="47" type="curve" smooth="yes"/>
      <point x="87" y="42"/>
      <point x="88" y="34"/>
      <point x="93" y="31" type="curve" smooth="yes"/>
      <point x="139" y="-1"/>
      <point x="188" y="-13"/>
    </contour>
    <contour>
      <point x="295" y="230" type="curve"/>
      <point x="254" y="241"/>
      <point x="210" y="257"/>
      <point x="185" y="278" type="curve" smooth="yes"/>
      <point x="168" y="292"/>
      <point x="159" y="311"/>
      <point x="159" y="342" type="curve" smooth="yes"/>
      <point x="159" y="382"/>
      <point x="211" y="412"/>
      <point x="256" y="417" type="curve"/>
      <point x="296" y="407"/>
      <point x="342" y="397"/>
      <point x="370" y="369" type="curve" smooth="yes"/>
      <point x="382" y="357"/>
      <point x="389" y="334"/>
      <point x="389" y="319" type="curve" smooth="yes"/>
      <point x="389" y="277"/>
      <point x="337" y="238"/>
    </contour>
  </outline>
</glyph>
<glyph name="ordfeminine" format="2">
  <advance width="422"/>
  <unicode hex="00AA"/>
  <outline>
    <contour>
      <point x="101" y="313" type="curve" smooth="yes"/>
      <point x="140" y="313"/>
      <point x="251" y="451"/>
      <point x="288" y="533" type="curve"/>
      <point x="286" y="483"/>
      <point x="280" y="397"/>
      <point x="280" y="367" type="curve" smooth="yes"/>
      <point x="280" y="352"/>
      <point x="279" y="343"/>
      <point x="281" y="339" type="curve" smooth="yes"/>
      <point x="287" y="328"/>
      <point x="317" y="313"/>
      <point x="324" y="313" type="curve" smooth="yes"/>
      <point x="350" y="313"/>
      <point x="404" y="374"/>
      <point x="424" y="398" type="curve" smooth="yes"/>
      <point x="425" y="399"/>
      <point x="427" y="404"/>
      <point x="427" y="407" type="curve" smooth="yes"/>
      <point x="427" y="422"/>
      <point x="419" y="429"/>
      <point x="416" y="429" type="curve" smooth="yes"/>
      <point x="414" y="429"/>
      <point x="411" y="426"/>
      <point x="409" y="423" type="curve" smooth="yes"/>
      <point x="403" y="412"/>
      <point x="356" y="360"/>
      <point x="349" y="360" type="curve" smooth="yes"/>
      <point x="340" y="360"/>
      <point x="336" y="365"/>
      <point x="336" y="391" type="curve" smooth="yes"/>
      <point x="336" y="473"/>
      <point x="343" y="597"/>
      <point x="346" y="610" type="curve"/>
      <point x="351" y="610"/>
      <point x="354" y="618"/>
      <point x="354" y="630" type="curve" smooth="yes"/>
      <point x="354" y="634"/>
      <point x="353" y="636"/>
      <point x="351" y="636" type="curve"/>
      <point x="292" y="647"/>
      <point x="231" y="652"/>
      <point x="210" y="652" type="curve" smooth="yes"/>
      <point x="162" y="652"/>
      <point x="122" y="628"/>
      <point x="91" y="585" type="curve" smooth="yes"/>
      <point x="58" y="540"/>
      <point x="56" y="411"/>
      <point x="56" y="367" type="curve" smooth="yes"/>
      <point x="56" y="353"/>
      <point x="55" y="345"/>
      <point x="58" y="339" type="curve" smooth="yes"/>
      <point x="63" y="328"/>
      <point x="92" y="313"/>
    </contour>
    <contour>
      <point x="122" y="360" type="curve" smooth="yes"/>
      <point x="116" y="360"/>
      <point x="111" y="364"/>
      <point x="111" y="390" type="curve" smooth="yes"/>
      <point x="111" y="535"/>
      <point x="139" y="618"/>
      <point x="183" y="618" type="curve" smooth="yes"/>
      <point x="206" y="618"/>
      <point x="246" y="616"/>
      <point x="288" y="606" type="curve"/>
      <point x="280" y="541"/>
      <point x="139" y="360"/>
    </contour>
  </outline>
</glyph>
<glyph name="logicalnot" format="2">
  <advance width="489"/>
  <unicode hex="00AC"/>
  <outline>
    <contour>
      <point x="389" y="194" type="curve" smooth="yes"/>
      <point x="397" y="194"/>
      <point x="398" y="196"/>
      <point x="398" y="202" type="curve" smooth="yes"/>
      <point x="398" y="225"/>
      <point x="404" y="338"/>
      <point x="404" y="345" type="curve" smooth="yes"/>
      <point x="404" y="351"/>
      <point x="402" y="353"/>
      <point x="397" y="353" type="curve" smooth="yes"/>
      <point x="107" y="353" type="line" smooth="yes"/>
      <point x="91" y="353"/>
      <point x="84" y="331"/>
      <point x="84" y="307" type="curve" smooth="yes"/>
      <point x="84" y="301"/>
      <point x="87" y="300"/>
      <point x="92" y="300" type="curve" smooth="yes"/>
      <point x="354" y="300" type="line"/>
      <point x="351" y="266"/>
      <point x="349" y="234"/>
      <point x="349" y="220" type="curve" smooth="yes"/>
      <point x="349" y="203"/>
      <point x="368" y="194"/>
    </contour>
  </outline>
</glyph>
<glyph name="registered" format="2">
  <advance width="748"/>
  <unicode hex="00AE"/>
  <outline>
    <contour>
      <point x="370" y="-13" type="curve" smooth="yes"/>
      <point x="586" y="-13"/>
      <point x="685" y="134"/>
      <point x="685" y="349" type="curve" smooth="yes"/>
      <point x="685" y="528"/>
      <point x="596" y="652"/>
      <point x="378" y="652" type="curve" smooth="yes"/>
      <point x="162" y="652"/>
      <point x="63" y="506"/>
      <point x="63" y="291" type="curve" smooth="yes"/>
      <point x="63" y="112"/>
      <point x="152" y="-13"/>
    </contour>
    <contour>
      <point x="371" y="26" type="curve" smooth="yes"/>
      <point x="196" y="26"/>
      <point x="123" y="135"/>
      <point x="123" y="295" type="curve" smooth="yes"/>
      <point x="123" y="486"/>
      <point x="204" y="614"/>
      <point x="377" y="614" type="curve" smooth="yes"/>
      <point x="552" y="614"/>
      <point x="625" y="506"/>
      <point x="625" y="346" type="curve" smooth="yes"/>
      <point x="625" y="155"/>
      <point x="544" y="26"/>
    </contour>
    <contour>
      <point x="280" y="121" type="curve" smooth="yes"/>
      <point x="291" y="121"/>
      <point x="292" y="122"/>
      <point x="292" y="126" type="curve" smooth="yes"/>
      <point x="292" y="195"/>
      <point x="295" y="254"/>
      <point x="300" y="301" type="curve"/>
      <point x="302" y="298"/>
      <point x="322" y="296"/>
      <point x="330" y="296" type="curve"/>
      <point x="351" y="281"/>
      <point x="423" y="203"/>
      <point x="496" y="132" type="curve" smooth="yes"/>
      <point x="504" y="125"/>
      <point x="511" y="121"/>
      <point x="519" y="121" type="curve" smooth="yes"/>
      <point x="530" y="121"/>
      <point x="557" y="135"/>
      <point x="557" y="140" type="curve" smooth="yes"/>
      <point x="557" y="143"/>
      <point x="555" y="146"/>
      <point x="551" y="150" type="curve" smooth="yes"/>
      <point x="541" y="160"/>
      <point x="436" y="266"/>
      <point x="395" y="304" type="curve"/>
      <point x="476" y="317"/>
      <point x="507" y="370"/>
      <point x="507" y="417" type="curve" smooth="yes"/>
      <point x="507" y="477"/>
      <point x="472" y="509"/>
      <point x="374" y="509" type="curve" smooth="yes"/>
      <point x="261" y="509" type="line"/>
      <point x="257" y="443"/>
      <point x="237" y="145"/>
      <point x="237" y="137" type="curve" smooth="yes"/>
      <point x="237" y="126"/>
      <point x="256" y="121"/>
    </contour>
    <contour>
      <point x="302" y="325" type="curve"/>
      <point x="302" y="350"/>
      <point x="311" y="453"/>
      <point x="311" y="475" type="curve"/>
      <point x="324" y="476"/>
      <point x="331" y="477"/>
      <point x="345" y="477" type="curve" smooth="yes"/>
      <point x="423" y="477"/>
      <point x="453" y="466"/>
      <point x="453" y="409" type="curve" smooth="yes"/>
      <point x="453" y="386"/>
      <point x="442" y="369"/>
      <point x="428" y="356" type="curve" smooth="yes"/>
      <point x="385" y="317"/>
      <point x="313" y="324"/>
    </contour>
  </outline>
</glyph>
<glyph name="twosuperior" format="2">
  <advance width="425"/>
  <unicode hex="00B2"/>
  <outline>
    <contour>
      <point x="74" y="213" type="curve" smooth="yes"/>
      <point x="340" y="213" type="line" smooth="yes"/>
      <point x="351" y="213"/>
      <point x="359" y="230"/>
      <point x="359" y="247" type="curve" smooth="yes"/>
      <point x="359" y="255"/>
      <point x="358" y="261"/>
      <point x="354" y="261" type="curve" smooth="yes"/>
      <point x="352" y="261"/>
      <point x="258" y="250"/>
      <point x="184" y="250" type="curve" smooth="yes"/>
      <point x="163" y="250"/>
      <point x="145" y="250"/>
      <point x="131" y="250" type="curve"/>
      <point x="191" y="308"/>
      <point x="253" y="368"/>
      <point x="295" y="418" type="curve" smooth="yes"/>
      <point x="331" y="460"/>
      <point x="353" y="501"/>
      <point x="353" y="548" type="curve" smooth="yes"/>
      <point x="353" y="627"/>
      <point x="289" y="652"/>
      <point x="215" y="652" type="curve" smooth="yes"/>
      <point x="171" y="652"/>
      <point x="125" y="638"/>
      <point x="102" y="622" type="curve" smooth="yes"/>
      <point x="91" y="615"/>
      <point x="89" y="608"/>
      <point x="89" y="598" type="curve" smooth="yes"/>
      <point x="89" y="577"/>
      <point x="93" y="569"/>
      <point x="100" y="569" type="curve" smooth="yes"/>
      <point x="110" y="569"/>
      <point x="145" y="618"/>
      <point x="218" y="618" type="curve" smooth="yes"/>
      <point x="254" y="618"/>
      <point x="291" y="596"/>
      <point x="291" y="545" type="curve" smooth="yes"/>
      <point x="291" y="506"/>
      <point x="280" y="480"/>
      <point x="248" y="439" type="curve" smooth="yes"/>
      <point x="210" y="391"/>
      <point x="132" y="315"/>
      <point x="69" y="257" type="curve" smooth="yes"/>
      <point x="62" y="250"/>
      <point x="60" y="246"/>
      <point x="60" y="241" type="curve" smooth="yes"/>
      <point x="60" y="233"/>
      <point x="67" y="213"/>
    </contour>
  </outline>
</glyph>
<glyph name="threesuperior" format="2">
  <advance width="425"/>
  <unicode hex="00B3"/>
  <outline>
    <contour>
      <point x="188" y="200" type="curve" smooth="yes"/>
      <point x="289" y="200"/>
      <point x="364" y="255"/>
      <point x="364" y="337" type="curve" smooth="yes"/>
      <point x="364" y="396"/>
      <point x="322" y="437"/>
      <point x="268" y="449" type="curve"/>
      <point x="294" y="460"/>
      <point x="352" y="492"/>
      <point x="352" y="556" type="curve" smooth="yes"/>
      <point x="352" y="626"/>
      <point x="288" y="652"/>
      <point x="217" y="652" type="curve" smooth="yes"/>
      <point x="168" y="652"/>
      <point x="128" y="643"/>
      <point x="105" y="628" type="curve" smooth="yes"/>
      <point x="94" y="621"/>
      <point x="87" y="614"/>
      <point x="87" y="602" type="curve" smooth="yes"/>
      <point x="87" y="582"/>
      <point x="90" y="578"/>
      <point x="96" y="578" type="curve" smooth="yes"/>
      <point x="102" y="578"/>
      <point x="114" y="585"/>
      <point x="134" y="597" type="curve" smooth="yes"/>
      <point x="154" y="609"/>
      <point x="179" y="618"/>
      <point x="206" y="618" type="curve" smooth="yes"/>
      <point x="253" y="618"/>
      <point x="288" y="593"/>
      <point x="288" y="544" type="curve" smooth="yes"/>
      <point x="288" y="479"/>
      <point x="214" y="454"/>
      <point x="184" y="453" type="curve" smooth="yes"/>
      <point x="177" y="453"/>
      <point x="174" y="443"/>
      <point x="174" y="433" type="curve" smooth="yes"/>
      <point x="174" y="427"/>
      <point x="174" y="425"/>
      <point x="176" y="425" type="curve" smooth="yes"/>
      <point x="240" y="425"/>
      <point x="302" y="401"/>
      <point x="302" y="324" type="curve" smooth="yes"/>
      <point x="302" y="267"/>
      <point x="252" y="236"/>
      <point x="186" y="236" type="curve" smooth="yes"/>
      <point x="128" y="236"/>
      <point x="82" y="273"/>
      <point x="70" y="273" type="curve" smooth="yes"/>
      <point x="61" y="273"/>
      <point x="60" y="267"/>
      <point x="60" y="255" type="curve" smooth="yes"/>
      <point x="60" y="236"/>
      <point x="65" y="228"/>
      <point x="76" y="222" type="curve" smooth="yes"/>
      <point x="99" y="209"/>
      <point x="130" y="200"/>
    </contour>
  </outline>
</glyph>
<glyph name="onesuperior" format="2">
  <advance width="425"/>
  <unicode hex="00B9"/>
  <outline>
    <contour>
      <point x="248" y="200" type="curve" smooth="yes"/>
      <point x="258" y="200"/>
      <point x="260" y="204"/>
      <point x="260" y="209" type="curve" smooth="yes"/>
      <point x="260" y="413"/>
      <point x="285" y="620"/>
      <point x="285" y="629" type="curve" smooth="yes"/>
      <point x="285" y="645"/>
      <point x="252" y="652"/>
      <point x="235" y="652" type="curve" smooth="yes"/>
      <point x="232" y="652"/>
      <point x="104" y="564"/>
      <point x="96" y="557" type="curve" smooth="yes"/>
      <point x="91" y="553"/>
      <point x="90" y="545"/>
      <point x="90" y="537" type="curve" smooth="yes"/>
      <point x="90" y="523"/>
      <point x="96" y="508"/>
      <point x="101" y="508" type="curve" smooth="yes"/>
      <point x="106" y="508"/>
      <point x="164" y="565"/>
      <point x="218" y="596" type="curve"/>
      <point x="216" y="520"/>
      <point x="195" y="232"/>
      <point x="195" y="223" type="curve" smooth="yes"/>
      <point x="195" y="208"/>
      <point x="226" y="200"/>
    </contour>
  </outline>
</glyph>
<glyph name="onequarter" format="2">
  <advance width="800"/>
  <unicode hex="00BC"/>
  <outline>
    <contour>
      <point x="605" y="-13" type="curve" smooth="yes"/>
      <point x="614" y="-13"/>
      <point x="616" y="-9"/>
      <point x="616" y="-4" type="curve" smooth="yes"/>
      <point x="616" y="38"/>
      <point x="621" y="125"/>
      <point x="621" y="133" type="curve" smooth="yes"/>
      <point x="733" y="133" type="line" smooth="yes"/>
      <point x="746" y="133"/>
      <point x="751" y="152"/>
      <point x="751" y="165" type="curve" smooth="yes"/>
      <point x="751" y="172"/>
      <point x="749" y="174"/>
      <point x="745" y="174" type="curve" smooth="yes"/>
      <point x="733" y="174"/>
      <point x="690" y="170"/>
      <point x="621" y="168" type="curve" smooth="yes"/>
      <point x="621" y="182"/>
      <point x="635" y="408"/>
      <point x="635" y="417" type="curve" smooth="yes"/>
      <point x="635" y="432"/>
      <point x="609" y="439"/>
      <point x="590" y="439" type="curve" smooth="yes"/>
      <point x="583" y="439"/>
      <point x="578" y="437"/>
      <point x="575" y="433" type="curve" smooth="yes"/>
      <point x="541" y="392"/>
      <point x="382" y="197"/>
      <point x="373" y="175" type="curve" smooth="yes"/>
      <point x="371" y="171"/>
      <point x="370" y="168"/>
      <point x="370" y="166" type="curve" smooth="yes"/>
      <point x="370" y="155"/>
      <point x="382" y="133"/>
      <point x="397" y="133" type="curve" smooth="yes"/>
      <point x="566" y="133" type="line" smooth="yes"/>
      <point x="566" y="124"/>
      <point x="558" y="27"/>
      <point x="558" y="10" type="curve" smooth="yes"/>
      <point x="558" y="-5"/>
      <point x="584" y="-13"/>
    </contour>
    <contour>
      <point x="248" y="200" type="curve" smooth="yes"/>
      <point x="258" y="200"/>
      <point x="260" y="204"/>
      <point x="260" y="209" type="curve" smooth="yes"/>
      <point x="260" y="413"/>
      <point x="285" y="620"/>
      <point x="285" y="629" type="curve" smooth="yes"/>
      <point x="285" y="645"/>
      <point x="252" y="652"/>
      <point x="235" y="652" type="curve" smooth="yes"/>
      <point x="232" y="652"/>
      <point x="104" y="564"/>
      <point x="96" y="557" type="curve" smooth="yes"/>
      <point x="91" y="553"/>
      <point x="90" y="545"/>
      <point x="90" y="537" type="curve" smooth="yes"/>
      <point x="90" y="523"/>
      <point x="96" y="508"/>
      <point x="101" y="508" type="curve" smooth="yes"/>
      <point x="106" y="508"/>
      <point x="164" y="565"/>
      <point x="218" y="596" type="curve"/>
      <point x="216" y="520"/>
      <point x="195" y="232"/>
      <point x="195" y="223" type="curve" smooth="yes"/>
      <point x="195" y="208"/>
      <point x="226" y="200"/>
    </contour>
    <contour>
      <point x="413" y="167" type="line" smooth="yes"/>
      <point x="434" y="207"/>
      <point x="549" y="350"/>
      <point x="575" y="377" type="curve" smooth="yes"/>
      <point x="575" y="317"/>
      <point x="566" y="182"/>
      <point x="566" y="167" type="curve" smooth="yes"/>
    </contour>
  </outline>
</glyph>
<glyph name="threequarters" format="2">
  <advance width="830"/>
  <unicode hex="00BE"/>
  <outline>
    <contour>
      <point x="667" y="-13" type="curve" smooth="yes"/>
      <point x="676" y="-13"/>
      <point x="678" y="-9"/>
      <point x="678" y="-4" type="curve" smooth="yes"/>
      <point x="678" y="38"/>
      <point x="683" y="125"/>
      <point x="683" y="133" type="curve"/>
      <point x="795" y="133" type="line" smooth="yes"/>
      <point x="808" y="133"/>
      <point x="813" y="152"/>
      <point x="813" y="165" type="curve" smooth="yes"/>
      <point x="813" y="172"/>
      <point x="811" y="174"/>
      <point x="807" y="174" type="curve" smooth="yes"/>
      <point x="795" y="174"/>
      <point x="752" y="170"/>
      <point x="683" y="168" type="curve"/>
      <point x="683" y="182"/>
      <point x="697" y="408"/>
      <point x="697" y="417" type="curve" smooth="yes"/>
      <point x="697" y="432"/>
      <point x="671" y="439"/>
      <point x="652" y="439" type="curve" smooth="yes"/>
      <point x="645" y="439"/>
      <point x="640" y="437"/>
      <point x="637" y="433" type="curve" smooth="yes"/>
      <point x="603" y="392"/>
      <point x="444" y="197"/>
      <point x="435" y="175" type="curve" smooth="yes"/>
      <point x="433" y="171"/>
      <point x="432" y="168"/>
      <point x="432" y="166" type="curve" smooth="yes"/>
      <point x="432" y="155"/>
      <point x="444" y="133"/>
      <point x="459" y="133" type="curve" smooth="yes"/>
      <point x="628" y="133" type="line"/>
      <point x="628" y="124"/>
      <point x="620" y="27"/>
      <point x="620" y="10" type="curve" smooth="yes"/>
      <point x="620" y="-5"/>
      <point x="646" y="-13"/>
    </contour>
    <contour>
      <point x="188" y="200" type="curve" smooth="yes"/>
      <point x="289" y="200"/>
      <point x="364" y="255"/>
      <point x="364" y="337" type="curve" smooth="yes"/>
      <point x="364" y="396"/>
      <point x="322" y="437"/>
      <point x="268" y="449" type="curve"/>
      <point x="294" y="460"/>
      <point x="352" y="492"/>
      <point x="352" y="556" type="curve" smooth="yes"/>
      <point x="352" y="626"/>
      <point x="288" y="652"/>
      <point x="217" y="652" type="curve" smooth="yes"/>
      <point x="168" y="652"/>
      <point x="128" y="643"/>
      <point x="105" y="628" type="curve" smooth="yes"/>
      <point x="94" y="621"/>
      <point x="87" y="614"/>
      <point x="87" y="602" type="curve" smooth="yes"/>
      <point x="87" y="582"/>
      <point x="90" y="578"/>
      <point x="96" y="578" type="curve" smooth="yes"/>
      <point x="102" y="578"/>
      <point x="114" y="585"/>
      <point x="134" y="597" type="curve" smooth="yes"/>
      <point x="154" y="609"/>
      <point x="179" y="618"/>
      <point x="206" y="618" type="curve" smooth="yes"/>
      <point x="253" y="618"/>
      <point x="288" y="593"/>
      <point x="288" y="544" type="curve" smooth="yes"/>
      <point x="288" y="479"/>
      <point x="214" y="454"/>
      <point x="184" y="453" type="curve" smooth="yes"/>
      <point x="177" y="453"/>
      <point x="174" y="443"/>
      <point x="174" y="433" type="curve" smooth="yes"/>
      <point x="174" y="427"/>
      <point x="174" y="425"/>
      <point x="176" y="425" type="curve" smooth="yes"/>
      <point x="240" y="425"/>
      <point x="302" y="401"/>
      <point x="302" y="324" type="curve" smooth="yes"/>
      <point x="302" y="267"/>
      <point x="252" y="236"/>
      <point x="186" y="236" type="curve" smooth="yes"/>
      <point x="128" y="236"/>
      <point x="82" y="273"/>
      <point x="70" y="273" type="curve" smooth="yes"/>
      <point x="61" y="273"/>
      <point x="60" y="267"/>
      <point x="60" y="255" type="curve" smooth="yes"/>
      <point x="60" y="236"/>
      <point x="65" y="229"/>
      <point x="76" y="222" type="curve" smooth="yes"/>
      <point x="98" y="208"/>
      <point x="130" y="200"/>
    </contour>
    <contour>
      <point x="475" y="167" type="line"/>
      <point x="496" y="207"/>
      <point x="611" y="350"/>
      <point x="637" y="377" type="curve"/>
      <point x="637" y="318"/>
      <point x="628" y="182"/>
      <point x="628" y="167" type="curve"/>
    </contour>
  </outline>
</glyph>
<glyph name="questiondown" format="2">
  <advance width="427"/>
  <unicode hex="00BF"/>
  <outline>
    <contour>
      <point x="199" y="-127" type="curve" smooth="yes"/>
      <point x="263" y="-127"/>
      <point x="339" y="-97"/>
      <point x="358" y="-50" type="curve" smooth="yes"/>
      <point x="359" y="-47"/>
      <point x="362" y="-43"/>
      <point x="362" y="-35" type="curve" smooth="yes"/>
      <point x="362" y="-14"/>
      <point x="353" y="18"/>
      <point x="345" y="18" type="curve" smooth="yes"/>
      <point x="342" y="18"/>
      <point x="342" y="15"/>
      <point x="335" y="0" type="curve" smooth="yes"/>
      <point x="309" y="-59"/>
      <point x="253" y="-93"/>
      <point x="184" y="-93" type="curve" smooth="yes"/>
      <point x="116" y="-93"/>
      <point x="82" y="-40"/>
      <point x="82" y="18" type="curve" smooth="yes"/>
      <point x="82" y="98"/>
      <point x="169" y="161"/>
      <point x="232" y="209" type="curve" smooth="yes"/>
      <point x="254" y="226"/>
      <point x="277" y="252"/>
      <point x="277" y="283" type="curve" smooth="yes"/>
      <point x="277" y="296"/>
      <point x="277" y="317"/>
      <point x="265" y="317" type="curve" smooth="yes"/>
      <point x="251" y="317"/>
      <point x="261" y="287"/>
      <point x="179" y="226" type="curve" smooth="yes"/>
      <point x="115" y="178"/>
      <point x="23" y="113"/>
      <point x="23" y="21" type="curve" smooth="yes"/>
      <point x="23" y="-22"/>
      <point x="36" y="-55"/>
      <point x="57" y="-78" type="curve" smooth="yes"/>
      <point x="89" y="-113"/>
      <point x="141" y="-127"/>
    </contour>
    <contour>
      <point x="242" y="433" type="curve" smooth="yes"/>
      <point x="258" y="433"/>
      <point x="287" y="456"/>
      <point x="287" y="489" type="curve" smooth="yes"/>
      <point x="287" y="513"/>
      <point x="279" y="524"/>
      <point x="257" y="524" type="curve" smooth="yes"/>
      <point x="231" y="524"/>
      <point x="214" y="505"/>
      <point x="214" y="484" type="curve" smooth="yes"/>
      <point x="214" y="450"/>
      <point x="228" y="433"/>
    </contour>
  </outline>
</glyph>
<glyph name="Eth" format="2">
  <advance width="743"/>
  <unicode hex="00D0"/>
  <outline>
    <contour>
      <point x="109" y="0" type="curve"/>
      <point x="291" y="0" type="line" smooth="yes"/>
      <point x="568" y="0"/>
      <point x="687" y="157"/>
      <point x="687" y="365" type="curve" smooth="yes"/>
      <point x="687" y="552"/>
      <point x="572" y="639"/>
      <point x="371" y="639" type="curve" smooth="yes"/>
      <point x="145" y="639" type="line"/>
      <point x="141" y="554"/>
      <point x="136" y="448"/>
      <point x="131" y="349" type="curve"/>
      <point x="56" y="349" type="line" smooth="yes"/>
      <point x="47" y="349"/>
      <point x="41" y="329"/>
      <point x="41" y="311" type="curve" smooth="yes"/>
      <point x="41" y="305"/>
      <point x="43" y="301"/>
      <point x="48" y="301" type="curve" smooth="yes"/>
      <point x="51" y="301"/>
      <point x="86" y="305"/>
      <point x="129" y="305" type="curve"/>
      <point x="121" y="165"/>
      <point x="114" y="40"/>
    </contour>
    <contour>
      <point x="264" y="37" type="curve" smooth="yes"/>
      <point x="187" y="37"/>
      <point x="175" y="43"/>
      <point x="175" y="82" type="curve" smooth="yes"/>
      <point x="175" y="156"/>
      <point x="178" y="232"/>
      <point x="183" y="305" type="curve"/>
      <point x="283" y="304"/>
      <point x="318" y="302"/>
      <point x="323" y="302" type="curve" smooth="yes"/>
      <point x="332" y="302"/>
      <point x="337" y="321"/>
      <point x="337" y="339" type="curve" smooth="yes"/>
      <point x="337" y="345"/>
      <point x="334" y="349"/>
      <point x="329" y="349" type="curve" smooth="yes"/>
      <point x="186" y="349" type="line"/>
      <point x="192" y="441"/>
      <point x="201" y="526"/>
      <point x="206" y="596" type="curve"/>
      <point x="252" y="601"/>
      <point x="294" y="603"/>
      <point x="333" y="603" type="curve" smooth="yes"/>
      <point x="528" y="603"/>
      <point x="619" y="538"/>
      <point x="619" y="349" type="curve" smooth="yes"/>
      <point x="619" y="124"/>
      <point x="478" y="37"/>
    </contour>
  </outline>
</glyph>
<glyph name="multiply" format="2">
  <advance width="553"/>
  <unicode hex="00D7"/>
  <outline>
    <contour>
      <point x="106" y="101" type="curve" smooth="yes"/>
      <point x="111" y="101"/>
      <point x="117" y="110"/>
      <point x="131" y="123" type="curve" smooth="yes"/>
      <point x="181" y="172"/>
      <point x="231" y="222"/>
      <point x="281" y="271" type="curve"/>
      <point x="321" y="222"/>
      <point x="362" y="172"/>
      <point x="402" y="122" type="curve" smooth="yes"/>
      <point x="411" y="111"/>
      <point x="415" y="106"/>
      <point x="419" y="106" type="curve" smooth="yes"/>
      <point x="432" y="106"/>
      <point x="453" y="132"/>
      <point x="453" y="150" type="curve" smooth="yes"/>
      <point x="453" y="155"/>
      <point x="452" y="160"/>
      <point x="448" y="164" type="curve" smooth="yes"/>
      <point x="408" y="213"/>
      <point x="368" y="262"/>
      <point x="327" y="311" type="curve"/>
      <point x="378" y="360"/>
      <point x="429" y="409"/>
      <point x="480" y="458" type="curve" smooth="yes"/>
      <point x="486" y="464"/>
      <point x="487" y="471"/>
      <point x="487" y="477" type="curve" smooth="yes"/>
      <point x="487" y="500"/>
      <point x="467" y="519"/>
      <point x="459" y="519" type="curve" smooth="yes"/>
      <point x="457" y="519"/>
      <point x="452" y="514"/>
      <point x="434" y="496" type="curve" smooth="yes"/>
      <point x="388" y="450"/>
      <point x="344" y="401"/>
      <point x="298" y="353" type="curve"/>
      <point x="261" y="402"/>
      <point x="223" y="451"/>
      <point x="185" y="500" type="curve" smooth="yes"/>
      <point x="175" y="513"/>
      <point x="171" y="516"/>
      <point x="167" y="516" type="curve" smooth="yes"/>
      <point x="153" y="516"/>
      <point x="133" y="490"/>
      <point x="133" y="472" type="curve" smooth="yes"/>
      <point x="133" y="467"/>
      <point x="134" y="463"/>
      <point x="138" y="458" type="curve" smooth="yes"/>
      <point x="175" y="410"/>
      <point x="211" y="361"/>
      <point x="248" y="312" type="curve"/>
      <point x="194" y="262"/>
      <point x="140" y="212"/>
      <point x="85" y="161" type="curve" smooth="yes"/>
      <point x="79" y="156"/>
      <point x="76" y="149"/>
      <point x="76" y="142" type="curve" smooth="yes"/>
      <point x="76" y="120"/>
      <point x="97" y="101"/>
    </contour>
  </outline>
</glyph>
<glyph name="Oslash" format="2">
  <advance width="748"/>
  <unicode hex="00D8"/>
  <anchor x="360" y="0" name="bottom"/>
  <anchor x="394" y="652" name="top"/>
  <outline>
    <contour>
      <point x="84" y="-101" type="curve" smooth="yes"/>
      <point x="88" y="-101"/>
      <point x="91" y="-97"/>
      <point x="96" y="-90" type="curve" smooth="yes"/>
      <point x="185" y="31" type="line"/>
      <point x="232" y="3"/>
      <point x="293" y="-13"/>
      <point x="370" y="-13" type="curve" smooth="yes"/>
      <point x="586" y="-13"/>
      <point x="685" y="134"/>
      <point x="685" y="349" type="curve" smooth="yes"/>
      <point x="685" y="442"/>
      <point x="661" y="520"/>
      <point x="607" y="573" type="curve"/>
      <point x="692" y="682" type="line" smooth="yes"/>
      <point x="699" y="690"/>
      <point x="701" y="695"/>
      <point x="701" y="700" type="curve" smooth="yes"/>
      <point x="701" y="717"/>
      <point x="679" y="733"/>
      <point x="673" y="733" type="curve" smooth="yes"/>
      <point x="669" y="733"/>
      <point x="666" y="729"/>
      <point x="661" y="722" type="curve" smooth="yes"/>
      <point x="572" y="602" type="line"/>
      <point x="524" y="635"/>
      <point x="460" y="652"/>
      <point x="378" y="652" type="curve" smooth="yes"/>
      <point x="162" y="652"/>
      <point x="63" y="506"/>
      <point x="63" y="291" type="curve" smooth="yes"/>
      <point x="63" y="193"/>
      <point x="89" y="111"/>
      <point x="150" y="58" type="curve"/>
      <point x="65" y="-50" type="line" smooth="yes"/>
      <point x="58" y="-58"/>
      <point x="56" y="-63"/>
      <point x="56" y="-68" type="curve" smooth="yes"/>
      <point x="56" y="-85"/>
      <point x="78" y="-101"/>
    </contour>
    <contour>
      <point x="186" y="95" type="curve"/>
      <point x="160" y="124"/>
      <point x="124" y="182"/>
      <point x="124" y="296" type="curve" smooth="yes"/>
      <point x="124" y="485"/>
      <point x="209" y="617"/>
      <point x="374" y="617" type="curve" smooth="yes"/>
      <point x="450" y="617"/>
      <point x="505" y="596"/>
      <point x="539" y="566" type="curve"/>
      <point x="479" y="482"/>
      <point x="272" y="213"/>
    </contour>
    <contour>
      <point x="371" y="24" type="curve" smooth="yes"/>
      <point x="309" y="24"/>
      <point x="257" y="38"/>
      <point x="218" y="66" type="curve"/>
      <point x="281" y="152"/>
      <point x="492" y="428"/>
      <point x="571" y="534" type="curve"/>
      <point x="609" y="488"/>
      <point x="624" y="414"/>
      <point x="624" y="346" type="curve" smooth="yes"/>
      <point x="624" y="154"/>
      <point x="544" y="24"/>
    </contour>
  </outline>
</glyph>
<glyph name="ae" format="2">
  <advance width="803"/>
  <unicode hex="00E6"/>
  <anchor x="387" y="0" name="bottom"/>
  <anchor x="501" y="524" name="top"/>
  <outline>
    <contour>
      <point x="142" y="-13" type="curve" smooth="yes"/>
      <point x="204" y="-13"/>
      <point x="365" y="200"/>
      <point x="407" y="277" type="curve"/>
      <point x="406" y="271"/>
      <point x="404" y="236"/>
      <point x="404" y="222" type="curve" smooth="yes"/>
      <point x="404" y="53"/>
      <point x="480" y="-13"/>
      <point x="578" y="-13" type="curve" smooth="yes"/>
      <point x="652" y="-13"/>
      <point x="709" y="16"/>
      <point x="752" y="62" type="curve" smooth="yes"/>
      <point x="758" y="68"/>
      <point x="759" y="71"/>
      <point x="759" y="77" type="curve" smooth="yes"/>
      <point x="759" y="89"/>
      <point x="753" y="103"/>
      <point x="747" y="103" type="curve" smooth="yes"/>
      <point x="743" y="103"/>
      <point x="741" y="101"/>
      <point x="728" y="88" type="curve" smooth="yes"/>
      <point x="708" y="69"/>
      <point x="660" y="30"/>
      <point x="599" y="30" type="curve" smooth="yes"/>
      <point x="504" y="30"/>
      <point x="465" y="112"/>
      <point x="465" y="227" type="curve" smooth="yes"/>
      <point x="465" y="246"/>
      <point x="465" y="275"/>
      <point x="466" y="282" type="curve"/>
      <point x="492" y="276"/>
      <point x="533" y="271"/>
      <point x="574" y="271" type="curve" smooth="yes"/>
      <point x="656" y="271"/>
      <point x="757" y="311"/>
      <point x="757" y="413" type="curve" smooth="yes"/>
      <point x="757" y="472"/>
      <point x="719" y="524"/>
      <point x="621" y="524" type="curve" smooth="yes"/>
      <point x="581" y="524"/>
      <point x="542" y="514"/>
      <point x="516" y="496" type="curve"/>
      <point x="446" y="513"/>
      <point x="338" y="524"/>
      <point x="320" y="524" type="curve" smooth="yes"/>
      <point x="253" y="524"/>
      <point x="191" y="484"/>
      <point x="142" y="417" type="curve" smooth="yes"/>
      <point x="91" y="348"/>
      <point x="88" y="141"/>
      <point x="88" y="63" type="curve" smooth="yes"/>
      <point x="88" y="40"/>
      <point x="89" y="26"/>
      <point x="92" y="20" type="curve" smooth="yes"/>
      <point x="97" y="9"/>
      <point x="131" y="-13"/>
    </contour>
    <contour>
      <point x="161" y="42" type="curve" smooth="yes"/>
      <point x="149" y="42"/>
      <point x="145" y="48"/>
      <point x="145" y="89" type="curve" smooth="yes"/>
      <point x="145" y="339"/>
      <point x="199" y="481"/>
      <point x="282" y="481" type="curve" smooth="yes"/>
      <point x="320" y="481"/>
      <point x="377" y="476"/>
      <point x="460" y="460" type="curve"/>
      <point x="418" y="319"/>
      <point x="194" y="42"/>
    </contour>
    <contour>
      <point x="573" y="310" type="curve" smooth="yes"/>
      <point x="527" y="310"/>
      <point x="483" y="325"/>
      <point x="478" y="333" type="curve"/>
      <point x="497" y="441"/>
      <point x="550" y="492"/>
      <point x="609" y="492" type="curve" smooth="yes"/>
      <point x="668" y="492"/>
      <point x="693" y="456"/>
      <point x="693" y="416" type="curve" smooth="yes"/>
      <point x="693" y="348"/>
      <point x="650" y="310"/>
    </contour>
  </outline>
</glyph>
<glyph name="Lslash" format="2">
  <advance width="490"/>
  <unicode hex="0141"/>
  <outline>
    <contour>
      <point x="105" y="0" type="curve"/>
      <point x="446" y="0" type="line" smooth="yes"/>
      <point x="454" y="0"/>
      <point x="464" y="26"/>
      <point x="464" y="44" type="curve" smooth="yes"/>
      <point x="464" y="52"/>
      <point x="464" y="58"/>
      <point x="461" y="58" type="curve" smooth="yes"/>
      <point x="459" y="58"/>
      <point x="369" y="37"/>
      <point x="260" y="37" type="curve" smooth="yes"/>
      <point x="183" y="37"/>
      <point x="171" y="43"/>
      <point x="171" y="82" type="curve" smooth="yes"/>
      <point x="171" y="148"/>
      <point x="173" y="215"/>
      <point x="177" y="280" type="curve"/>
      <point x="221" y="321"/>
      <point x="282" y="373"/>
      <point x="306" y="401" type="curve" smooth="yes"/>
      <point x="311" y="407"/>
      <point x="314" y="412"/>
      <point x="314" y="423" type="curve" smooth="yes"/>
      <point x="314" y="438"/>
      <point x="309" y="464"/>
      <point x="300" y="464" type="curve" smooth="yes"/>
      <point x="296" y="464"/>
      <point x="261" y="423"/>
      <point x="180" y="340" type="curve"/>
      <point x="190" y="496"/>
      <point x="204" y="622"/>
      <point x="204" y="626" type="curve" smooth="yes"/>
      <point x="204" y="644"/>
      <point x="174" y="652"/>
      <point x="151" y="652" type="curve" smooth="yes"/>
      <point x="143" y="652"/>
      <point x="141" y="650"/>
      <point x="141" y="645" type="curve" smooth="yes"/>
      <point x="138" y="544"/>
      <point x="131" y="415"/>
      <point x="125" y="298" type="curve"/>
      <point x="80" y="256"/>
      <point x="40" y="219"/>
      <point x="33" y="210" type="curve" smooth="yes"/>
      <point x="28" y="204"/>
      <point x="25" y="199"/>
      <point x="25" y="188" type="curve" smooth="yes"/>
      <point x="25" y="173"/>
      <point x="30" y="147"/>
      <point x="39" y="147" type="curve" smooth="yes"/>
      <point x="43" y="147"/>
      <point x="58" y="168"/>
      <point x="121" y="232" type="curve"/>
      <point x="114" y="123"/>
      <point x="108" y="34"/>
    </contour>
  </outline>
</glyph>
<glyph name="Eng" format="2">
  <advance width="777"/>
  <unicode hex="014A"/>
  <outline>
    <contour>
      <point x="474" y="-244" type="curve" smooth="yes"/>
      <point x="507" y="-244"/>
      <point x="550" y="-225"/>
      <point x="587" y="-190" type="curve" smooth="yes"/>
      <point x="624" y="-155"/>
      <point x="648" y="-99"/>
      <point x="652" y="-28" type="curve" smooth="yes"/>
      <point x="659" y="161"/>
      <point x="688" y="483"/>
      <point x="688" y="550" type="curve" smooth="yes"/>
      <point x="688" y="578"/>
      <point x="687" y="596"/>
      <point x="683" y="603" type="curve"/>
      <point x="677" y="618"/>
      <point x="647" y="643"/>
      <point x="633" y="643" type="curve" smooth="yes"/>
      <point x="560" y="643"/>
      <point x="236" y="352"/>
      <point x="161" y="175" type="curve"/>
      <point x="161" y="189"/>
      <point x="190" y="554"/>
      <point x="190" y="610" type="curve" smooth="yes"/>
      <point x="190" y="632"/>
      <point x="168" y="643"/>
      <point x="141" y="643" type="curve" smooth="yes"/>
      <point x="133" y="643"/>
      <point x="131" y="640"/>
      <point x="131" y="633" type="curve" smooth="yes"/>
      <point x="131" y="473"/>
      <point x="98" y="25"/>
      <point x="98" y="20" type="curve" smooth="yes"/>
      <point x="98" y="-2"/>
      <point x="124" y="-13"/>
      <point x="147" y="-13" type="curve" smooth="yes"/>
      <point x="156" y="-13"/>
      <point x="160" y="-9"/>
      <point x="160" y="-3" type="curve" smooth="yes"/>
      <point x="160" y="57"/>
      <point x="194" y="139"/>
      <point x="240" y="220" type="curve" smooth="yes"/>
      <point x="328" y="378"/>
      <point x="587" y="577"/>
      <point x="609" y="577" type="curve" smooth="yes"/>
      <point x="624" y="577"/>
      <point x="628" y="569"/>
      <point x="627" y="519" type="curve" smooth="yes"/>
      <point x="627" y="512"/>
      <point x="597" y="46"/>
      <point x="597" y="40" type="curve" smooth="yes"/>
      <point x="581" y="-173"/>
      <point x="558" y="-193"/>
      <point x="477" y="-193" type="curve" smooth="yes"/>
      <point x="407" y="-193"/>
      <point x="326" y="-161"/>
      <point x="293" y="-147" type="curve" smooth="yes"/>
      <point x="287" y="-145"/>
      <point x="280" y="-141"/>
      <point x="278" y="-141" type="curve" smooth="yes"/>
      <point x="275" y="-141"/>
      <point x="271" y="-146"/>
      <point x="271" y="-164" type="curve" smooth="yes"/>
      <point x="271" y="-174"/>
      <point x="275" y="-185"/>
      <point x="281" y="-189" type="curve" smooth="yes"/>
      <point x="293" y="-198"/>
      <point x="385" y="-244"/>
    </contour>
  </outline>
</glyph>
<glyph name="OE" format="2">
  <advance width="929"/>
  <unicode hex="0152"/>
  <outline>
    <contour>
      <point x="406" y="0" type="curve" smooth="yes"/>
      <point x="858" y="0" type="line" smooth="yes"/>
      <point x="865" y="0"/>
      <point x="875" y="26"/>
      <point x="875" y="44" type="curve" smooth="yes"/>
      <point x="875" y="52"/>
      <point x="875" y="58"/>
      <point x="873" y="58" type="curve" smooth="yes"/>
      <point x="870" y="58"/>
      <point x="791" y="37"/>
      <point x="650" y="37" type="curve" smooth="yes"/>
      <point x="573" y="37"/>
      <point x="562" y="43"/>
      <point x="562" y="82" type="curve" smooth="yes"/>
      <point x="562" y="149"/>
      <point x="563" y="228"/>
      <point x="568" y="312" type="curve"/>
      <point x="608" y="312" type="line" smooth="yes"/>
      <point x="749" y="312"/>
      <point x="797" y="304"/>
      <point x="801" y="304" type="curve" smooth="yes"/>
      <point x="805" y="304"/>
      <point x="811" y="326"/>
      <point x="811" y="341" type="curve" smooth="yes"/>
      <point x="811" y="349"/>
      <point x="809" y="355"/>
      <point x="806" y="355" type="curve" smooth="yes"/>
      <point x="571" y="355" type="line"/>
      <point x="577" y="458"/>
      <point x="586" y="552"/>
      <point x="592" y="596" type="curve"/>
      <point x="625" y="596" type="line" smooth="yes"/>
      <point x="766" y="596"/>
      <point x="814" y="587"/>
      <point x="817" y="587" type="curve" smooth="yes"/>
      <point x="821" y="587"/>
      <point x="828" y="610"/>
      <point x="828" y="625" type="curve" smooth="yes"/>
      <point x="828" y="633"/>
      <point x="825" y="639"/>
      <point x="823" y="639" type="curve" smooth="yes"/>
      <point x="398" y="639" type="line" smooth="yes"/>
      <point x="156" y="639"/>
      <point x="67" y="506"/>
      <point x="67" y="335" type="curve" smooth="yes"/>
      <point x="67" y="122"/>
      <point x="188" y="0"/>
    </contour>
    <contour>
      <point x="438" y="37" type="line" smooth="yes"/>
      <point x="332" y="37"/>
      <point x="269" y="55"/>
      <point x="205" y="114" type="curve" smooth="yes"/>
      <point x="151" y="164"/>
      <point x="128" y="237"/>
      <point x="128" y="319" type="curve" smooth="yes"/>
      <point x="128" y="511"/>
      <point x="216" y="596"/>
      <point x="388" y="596" type="curve" smooth="yes"/>
      <point x="531" y="596" type="line"/>
      <point x="522" y="407"/>
      <point x="508" y="140"/>
      <point x="499" y="37" type="curve"/>
    </contour>
  </outline>
</glyph>
<glyph name="Tbar" format="2">
  <advance width="527"/>
  <unicode hex="0166"/>
  <outline>
    <contour>
      <point x="273" y="-13" type="curve" smooth="yes"/>
      <point x="282" y="-13"/>
      <point x="284" y="-10"/>
      <point x="284" y="-5" type="curve" smooth="yes"/>
      <point x="284" y="264"/>
      <point x="306" y="514"/>
      <point x="314" y="596" type="curve"/>
      <point x="321" y="596" type="line"/>
      <point x="452" y="596"/>
      <point x="514" y="588"/>
      <point x="524" y="588" type="curve" smooth="yes"/>
      <point x="534" y="588"/>
      <point x="539" y="607"/>
      <point x="539" y="630" type="curve" smooth="yes"/>
      <point x="539" y="638"/>
      <point x="537" y="639"/>
      <point x="532" y="639" type="curve" smooth="yes"/>
      <point x="49" y="639" type="line" smooth="yes"/>
      <point x="39" y="639"/>
      <point x="34" y="620"/>
      <point x="34" y="597" type="curve" smooth="yes"/>
      <point x="34" y="590"/>
      <point x="37" y="588"/>
      <point x="42" y="588" type="curve" smooth="yes"/>
      <point x="53" y="588"/>
      <point x="104" y="596"/>
      <point x="245" y="596" type="curve"/>
      <point x="253" y="596" type="line"/>
      <point x="248" y="358"/>
      <point x="221" y="24"/>
      <point x="221" y="14" type="curve" smooth="yes"/>
      <point x="221" y="-4"/>
      <point x="251" y="-13"/>
    </contour>
    <contour>
      <point x="78" y="341" type="curve" smooth="yes"/>
      <point x="80" y="341"/>
      <point x="176" y="341"/>
      <point x="273" y="342" type="curve" smooth="yes"/>
      <point x="370" y="342"/>
      <point x="467" y="342"/>
      <point x="469" y="342" type="curve" smooth="yes"/>
      <point x="478" y="342"/>
      <point x="483" y="356"/>
      <point x="483" y="374" type="curve" smooth="yes"/>
      <point x="483" y="380"/>
      <point x="480" y="384"/>
      <point x="475" y="384" type="curve"/>
      <point x="86" y="384" type="line"/>
      <point x="77" y="384"/>
      <point x="71" y="369"/>
      <point x="71" y="351" type="curve" smooth="yes"/>
      <point x="71" y="345"/>
      <point x="73" y="341"/>
    </contour>
  </outline>
</glyph>
<glyph name="tbar" format="2">
  <advance width="359"/>
  <unicode hex="0167"/>
  <anchor x="180" y="0" name="bottom"/>
  <anchor x="180" y="262" name="center"/>
  <anchor x="180" y="524" name="top"/>
  <anchor x="339" y="524" name="topright"/>
  <outline>
    <contour>
      <point x="190" y="-13" type="curve" smooth="yes"/>
      <point x="228" y="-13"/>
      <point x="292" y="0"/>
      <point x="354" y="62" type="curve" smooth="yes"/>
      <point x="358" y="66"/>
      <point x="359" y="71"/>
      <point x="359" y="77" type="curve" smooth="yes"/>
      <point x="359" y="89"/>
      <point x="355" y="101"/>
      <point x="349" y="101" type="curve" smooth="yes"/>
      <point x="345" y="101"/>
      <point x="343" y="101"/>
      <point x="327" y="86" type="curve" smooth="yes"/>
      <point x="291" y="52"/>
      <point x="243" y="34"/>
      <point x="219" y="34" type="curve" smooth="yes"/>
      <point x="188" y="34"/>
      <point x="174" y="54"/>
      <point x="174" y="156" type="curve" smooth="yes"/>
      <point x="174" y="283"/>
      <point x="193" y="441"/>
      <point x="193" y="453" type="curve"/>
      <point x="360" y="453" type="line" smooth="yes"/>
      <point x="377" y="453"/>
      <point x="383" y="474"/>
      <point x="383" y="491" type="curve" smooth="yes"/>
      <point x="383" y="497"/>
      <point x="380" y="499"/>
      <point x="375" y="499" type="curve" smooth="yes"/>
      <point x="195" y="499" type="line"/>
      <point x="200" y="542"/>
      <point x="209" y="616"/>
      <point x="209" y="625" type="curve" smooth="yes"/>
      <point x="209" y="642"/>
      <point x="180" y="651"/>
      <point x="159" y="651" type="curve" smooth="yes"/>
      <point x="151" y="651"/>
      <point x="150" y="649"/>
      <point x="150" y="644" type="curve" smooth="yes"/>
      <point x="150" y="636"/>
      <point x="141" y="530"/>
      <point x="139" y="499" type="curve"/>
      <point x="79" y="499" type="line" smooth="yes"/>
      <point x="63" y="499"/>
      <point x="57" y="478"/>
      <point x="57" y="461" type="curve" smooth="yes"/>
      <point x="57" y="454"/>
      <point x="59" y="453"/>
      <point x="64" y="453" type="curve" smooth="yes"/>
      <point x="137" y="453" type="line"/>
      <point x="137" y="443"/>
      <point x="118" y="271"/>
      <point x="118" y="137" type="curve" smooth="yes"/>
      <point x="118" y="21"/>
      <point x="137" y="-13"/>
    </contour>
    <contour>
      <point x="44" y="263" type="curve"/>
      <point x="337" y="263" type="line"/>
      <point x="354" y="263"/>
      <point x="360" y="284"/>
      <point x="360" y="301" type="curve" smooth="yes"/>
      <point x="360" y="307"/>
      <point x="357" y="309"/>
      <point x="352" y="309" type="curve"/>
      <point x="59" y="309" type="line"/>
      <point x="43" y="309"/>
      <point x="37" y="288"/>
      <point x="37" y="271" type="curve" smooth="yes"/>
      <point x="37" y="264"/>
      <point x="39" y="263"/>
    </contour>
  </outline>
</glyph>
<glyph name="florin" format="2">
  <advance width="269"/>
  <unicode hex="0192"/>
  <outline>
    <contour>
      <point x="-15" y="-244" type="curve" smooth="yes"/>
      <point x="18" y="-244"/>
      <point x="61" y="-225"/>
      <point x="98" y="-190" type="curve" smooth="yes"/>
      <point x="135" y="-155"/>
      <point x="163" y="-99"/>
      <point x="163" y="-28" type="curve" smooth="yes"/>
      <point x="163" y="453" type="line"/>
      <point x="362" y="453" type="line" smooth="yes"/>
      <point x="378" y="453"/>
      <point x="385" y="474"/>
      <point x="385" y="491" type="curve" smooth="yes"/>
      <point x="385" y="497"/>
      <point x="382" y="499"/>
      <point x="377" y="499" type="curve" smooth="yes"/>
      <point x="163" y="499" type="line"/>
      <point x="166" y="571" type="line" smooth="yes"/>
      <point x="170" y="668"/>
      <point x="203" y="704"/>
      <point x="254" y="704" type="curve" smooth="yes"/>
      <point x="316" y="704"/>
      <point x="365" y="687"/>
      <point x="371" y="685" type="curve" smooth="yes"/>
      <point x="374" y="684"/>
      <point x="387" y="678"/>
      <point x="392" y="678" type="curve" smooth="yes"/>
      <point x="398" y="678"/>
      <point x="402" y="691"/>
      <point x="402" y="703" type="curve" smooth="yes"/>
      <point x="402" y="709"/>
      <point x="401" y="713"/>
      <point x="396" y="717" type="curve" smooth="yes"/>
      <point x="371" y="734"/>
      <point x="320" y="756"/>
      <point x="278" y="756" type="curve" smooth="yes"/>
      <point x="237" y="756"/>
      <point x="199" y="736"/>
      <point x="164" y="703" type="curve" smooth="yes"/>
      <point x="120" y="662"/>
      <point x="99" y="606"/>
      <point x="99" y="504" type="curve" smooth="yes"/>
      <point x="99" y="499" type="line"/>
      <point x="25" y="499" type="line" smooth="yes"/>
      <point x="9" y="499"/>
      <point x="3" y="478"/>
      <point x="3" y="461" type="curve" smooth="yes"/>
      <point x="3" y="454"/>
      <point x="5" y="453"/>
      <point x="10" y="453" type="curve" smooth="yes"/>
      <point x="104" y="453" type="line"/>
      <point x="104" y="40" type="line" smooth="yes"/>
      <point x="104" y="-169"/>
      <point x="69" y="-193"/>
      <point x="-12" y="-193" type="curve" smooth="yes"/>
      <point x="-52" y="-193"/>
      <point x="-135" y="-161"/>
      <point x="-168" y="-147" type="curve" smooth="yes"/>
      <point x="-174" y="-145"/>
      <point x="-181" y="-141"/>
      <point x="-183" y="-141" type="curve" smooth="yes"/>
      <point x="-186" y="-141"/>
      <point x="-190" y="-146"/>
      <point x="-190" y="-164" type="curve" smooth="yes"/>
      <point x="-190" y="-174"/>
      <point x="-186" y="-185"/>
      <point x="-180" y="-189" type="curve" smooth="yes"/>
      <point x="-168" y="-198"/>
      <point x="-74" y="-244"/>
    </contour>
  </outline>
</glyph>
<glyph name="Iotaafrican" format="2">
  <advance width="304"/>
  <unicode hex="0196"/>
  <outline>
    <contour>
      <point x="150" y="-13" type="curve" smooth="yes"/>
      <point x="192" y="-13"/>
      <point x="277" y="88"/>
      <point x="310" y="131" type="curve" smooth="yes"/>
      <point x="312" y="133"/>
      <point x="313" y="137"/>
      <point x="313" y="141" type="curve" smooth="yes"/>
      <point x="313" y="154"/>
      <point x="303" y="170"/>
      <point x="299" y="170" type="curve" smooth="yes"/>
      <point x="296" y="170"/>
      <point x="295" y="167"/>
      <point x="292" y="164" type="curve"/>
      <point x="271" y="136"/>
      <point x="189" y="41"/>
      <point x="170" y="41" type="curve" smooth="yes"/>
      <point x="158" y="41"/>
      <point x="151" y="48"/>
      <point x="154" y="89" type="curve" smooth="yes"/>
      <point x="161" y="202"/>
      <point x="199" y="580"/>
      <point x="199" y="626" type="curve" smooth="yes"/>
      <point x="199" y="644"/>
      <point x="171" y="653"/>
      <point x="150" y="653" type="curve" smooth="yes"/>
      <point x="142" y="653"/>
      <point x="141" y="650"/>
      <point x="141" y="645" type="curve" smooth="yes"/>
      <point x="124" y="368"/>
      <point x="108" y="191"/>
      <point x="99" y="63" type="curve" smooth="yes"/>
      <point x="97" y="40"/>
      <point x="98" y="26"/>
      <point x="101" y="20" type="curve" smooth="yes"/>
      <point x="106" y="9"/>
      <point x="139" y="-13"/>
    </contour>
  </outline>
</glyph>
<glyph name="Nhookleft" format="2">
  <advance width="854"/>
  <unicode hex="019D"/>
  <anchor x="418" y="0" name="bottom"/>
  <anchor x="452" y="652" name="top"/>
  <outline>
    <contour>
      <point x="-6" y="-163" type="curve" smooth="yes"/>
      <point x="57" y="-163"/>
      <point x="123" y="-126"/>
      <point x="142" y="-35" type="curve" smooth="yes"/>
      <point x="160" y="50"/>
      <point x="158" y="283"/>
      <point x="162" y="366" type="curve" smooth="yes"/>
      <point x="167" y="473"/>
      <point x="176" y="555"/>
      <point x="176" y="563" type="curve"/>
      <point x="206" y="518"/>
      <point x="560" y="123"/>
      <point x="676" y="-1" type="curve" smooth="yes"/>
      <point x="681" y="-6"/>
      <point x="687" y="-13"/>
      <point x="691" y="-13" type="curve" smooth="yes"/>
      <point x="698" y="-13"/>
      <point x="731" y="10"/>
      <point x="731" y="19" type="curve" smooth="yes"/>
      <point x="731" y="132"/>
      <point x="765" y="613"/>
      <point x="765" y="626" type="curve" smooth="yes"/>
      <point x="765" y="644"/>
      <point x="739" y="652"/>
      <point x="716" y="652" type="curve" smooth="yes"/>
      <point x="707" y="652"/>
      <point x="706" y="651"/>
      <point x="706" y="642" type="curve" smooth="yes"/>
      <point x="706" y="290"/>
      <point x="686" y="81"/>
      <point x="685" y="77" type="curve"/>
      <point x="607" y="152"/>
      <point x="243" y="564"/>
      <point x="187" y="641" type="curve" smooth="yes"/>
      <point x="183" y="646"/>
      <point x="176" y="652"/>
      <point x="172" y="652" type="curve" smooth="yes"/>
      <point x="162" y="652"/>
      <point x="132" y="630"/>
      <point x="132" y="621" type="curve" smooth="yes"/>
      <point x="132" y="580"/>
      <point x="115" y="286"/>
      <point x="113" y="244" type="curve" smooth="yes"/>
      <point x="108" y="169"/>
      <point x="103" y="101"/>
      <point x="101" y="58" type="curve" smooth="yes"/>
      <point x="92" y="-50"/>
      <point x="83" y="-81"/>
      <point x="59" y="-102" type="curve" smooth="yes"/>
      <point x="43" y="-116"/>
      <point x="25" y="-124"/>
      <point x="3" y="-124" type="curve" smooth="yes"/>
      <point x="-40" y="-124"/>
      <point x="-87" y="-101"/>
      <point x="-98" y="-101" type="curve" smooth="yes"/>
      <point x="-103" y="-101"/>
      <point x="-107" y="-108"/>
      <point x="-107" y="-119" type="curve" smooth="yes"/>
      <point x="-107" y="-138"/>
      <point x="-104" y="-145"/>
      <point x="-92" y="-151" type="curve" smooth="yes"/>
      <point x="-74" y="-160"/>
      <point x="-48" y="-163"/>
    </contour>
  </outline>
</glyph>
<glyph name="Esh" format="2">
  <advance width="527"/>
  <unicode hex="01A9"/>
  <outline>
    <contour>
      <point x="53" y="0" type="curve" smooth="yes"/>
      <point x="455" y="0" type="line" smooth="yes"/>
      <point x="461" y="0"/>
      <point x="473" y="29"/>
      <point x="473" y="50" type="curve" smooth="yes"/>
      <point x="473" y="59"/>
      <point x="471" y="67"/>
      <point x="466" y="67" type="curve" smooth="yes"/>
      <point x="459" y="67"/>
      <point x="421" y="38"/>
      <point x="172" y="38" type="curve" smooth="yes"/>
      <point x="99" y="38" type="line"/>
      <point x="122" y="87"/>
      <point x="235" y="237"/>
      <point x="294" y="314" type="curve" smooth="yes"/>
      <point x="301" y="324"/>
      <point x="308" y="332"/>
      <point x="308" y="336" type="curve" smooth="yes"/>
      <point x="308" y="354"/>
      <point x="306" y="357"/>
      <point x="298" y="368" type="curve" smooth="yes"/>
      <point x="243" y="447"/>
      <point x="158" y="561"/>
      <point x="133" y="602" type="curve"/>
      <point x="221" y="602" type="line" smooth="yes"/>
      <point x="379" y="602"/>
      <point x="448" y="585"/>
      <point x="451" y="585" type="curve" smooth="yes"/>
      <point x="456" y="585"/>
      <point x="457" y="591"/>
      <point x="457" y="601" type="curve" smooth="yes"/>
      <point x="457" y="622"/>
      <point x="446" y="639"/>
      <point x="440" y="639" type="curve" smooth="yes"/>
      <point x="77" y="639" type="line" smooth="yes"/>
      <point x="71" y="639"/>
      <point x="63" y="621"/>
      <point x="63" y="612" type="curve" smooth="yes"/>
      <point x="63" y="603"/>
      <point x="67" y="595"/>
      <point x="80" y="575" type="curve" smooth="yes"/>
      <point x="88" y="563"/>
      <point x="178" y="446"/>
      <point x="252" y="341" type="curve"/>
      <point x="218" y="294"/>
      <point x="88" y="118"/>
      <point x="44" y="58" type="curve" smooth="yes"/>
      <point x="37" y="48"/>
      <point x="36" y="44"/>
      <point x="36" y="38" type="curve" smooth="yes"/>
      <point x="36" y="24"/>
      <point x="44" y="0"/>
    </contour>
  </outline>
</glyph>
<glyph name="Ezh" format="2">
  <advance width="539"/>
  <unicode hex="01B7"/>
  <anchor x="270" y="0" name="bottom"/>
  <anchor x="290" y="652" name="top"/>
  <outline>
    <contour>
      <point x="231" y="-13" type="curve" smooth="yes"/>
      <point x="357" y="-13"/>
      <point x="457" y="63"/>
      <point x="457" y="186" type="curve" smooth="yes"/>
      <point x="457" y="284"/>
      <point x="400" y="344"/>
      <point x="288" y="354" type="curve"/>
      <point x="384" y="474"/>
      <point x="460" y="564"/>
      <point x="470" y="578" type="curve" smooth="yes"/>
      <point x="478" y="588"/>
      <point x="479" y="598"/>
      <point x="479" y="605" type="curve" smooth="yes"/>
      <point x="479" y="619"/>
      <point x="470" y="639"/>
      <point x="461" y="639" type="curve" smooth="yes"/>
      <point x="119" y="639" type="line" smooth="yes"/>
      <point x="110" y="639"/>
      <point x="101" y="616"/>
      <point x="101" y="594" type="curve" smooth="yes"/>
      <point x="101" y="584"/>
      <point x="102" y="578"/>
      <point x="107" y="578" type="curve" smooth="yes"/>
      <point x="120" y="578"/>
      <point x="132" y="594"/>
      <point x="318" y="594" type="curve" smooth="yes"/>
      <point x="411" y="594" type="line"/>
      <point x="376" y="546"/>
      <point x="319" y="466"/>
      <point x="231" y="359" type="curve"/>
      <point x="225" y="354"/>
      <point x="219" y="344"/>
      <point x="219" y="331" type="curve" smooth="yes"/>
      <point x="219" y="323"/>
      <point x="219" y="320"/>
      <point x="221" y="320" type="curve" smooth="yes"/>
      <point x="307" y="320"/>
      <point x="397" y="285"/>
      <point x="397" y="165" type="curve" smooth="yes"/>
      <point x="397" y="77"/>
      <point x="326" y="24"/>
      <point x="230" y="24" type="curve" smooth="yes"/>
      <point x="135" y="24"/>
      <point x="89" y="85"/>
      <point x="71" y="85" type="curve" smooth="yes"/>
      <point x="61" y="85"/>
      <point x="60" y="77"/>
      <point x="60" y="66" type="curve" smooth="yes"/>
      <point x="60" y="40"/>
      <point x="65" y="29"/>
      <point x="81" y="19" type="curve" smooth="yes"/>
      <point x="112" y="0"/>
      <point x="151" y="-13"/>
    </contour>
  </outline>
</glyph>
<glyph name="jdotless" format="2">
  <advance width="296"/>
  <unicode hex="0237"/>
  <anchor x="148" y="-244" name="bottom"/>
  <anchor x="170" y="524" name="top"/>
  <outline>
    <contour>
      <point x="-18" y="-244" type="curve" smooth="yes"/>
      <point x="23" y="-244"/>
      <point x="87" y="-212"/>
      <point x="121" y="-159" type="curve" smooth="yes"/>
      <point x="148" y="-117"/>
      <point x="171" y="-82"/>
      <point x="184" y="146" type="curve" smooth="yes"/>
      <point x="189" y="241"/>
      <point x="191" y="356"/>
      <point x="191" y="497" type="curve" smooth="yes"/>
      <point x="191" y="515"/>
      <point x="164" y="524"/>
      <point x="142" y="524" type="curve" smooth="yes"/>
      <point x="135" y="524"/>
      <point x="134" y="521"/>
      <point x="134" y="516" type="curve" smooth="yes"/>
      <point x="134" y="382"/>
      <point x="131" y="255"/>
      <point x="124" y="146" type="curve" smooth="yes"/>
      <point x="114" y="-19"/>
      <point x="95" y="-139"/>
      <point x="65" y="-168" type="curve" smooth="yes"/>
      <point x="47" y="-185"/>
      <point x="20" y="-193"/>
      <point x="-9" y="-193" type="curve" smooth="yes"/>
      <point x="-62" y="-193"/>
      <point x="-113" y="-178"/>
      <point x="-119" y="-178" type="curve" smooth="yes"/>
      <point x="-127" y="-178"/>
      <point x="-130" y="-179"/>
      <point x="-130" y="-192" type="curve" smooth="yes"/>
      <point x="-130" y="-211"/>
      <point x="-128" y="-220"/>
      <point x="-120" y="-224" type="curve" smooth="yes"/>
      <point x="-110" y="-229"/>
      <point x="-63" y="-244"/>
    </contour>
  </outline>
</glyph>
<glyph name="Bstroke" format="2">
  <advance width="590"/>
  <unicode hex="0243"/>
  <outline>
    <contour>
      <point x="127" y="0" type="curve"/>
      <point x="285" y="0" type="line" smooth="yes"/>
      <point x="432" y="0"/>
      <point x="511" y="102"/>
      <point x="511" y="196" type="curve" smooth="yes"/>
      <point x="511" y="272"/>
      <point x="462" y="341"/>
      <point x="356" y="350" type="curve"/>
      <point x="382" y="360"/>
      <point x="491" y="397"/>
      <point x="491" y="510" type="curve" smooth="yes"/>
      <point x="491" y="593"/>
      <point x="429" y="639"/>
      <point x="306" y="639" type="curve" smooth="yes"/>
      <point x="163" y="639" type="line"/>
      <point x="154" y="422"/>
      <point x="134" y="76"/>
    </contour>
    <contour>
      <point x="205" y="357" type="curve"/>
      <point x="210" y="460"/>
      <point x="217" y="551"/>
      <point x="224" y="596" type="curve"/>
      <point x="243" y="598"/>
      <point x="279" y="602"/>
      <point x="298" y="602" type="curve" smooth="yes"/>
      <point x="386" y="602"/>
      <point x="432" y="575"/>
      <point x="432" y="503" type="curve" smooth="yes"/>
      <point x="432" y="460"/>
      <point x="412" y="419"/>
      <point x="384" y="397" type="curve" smooth="yes"/>
      <point x="342" y="364"/>
      <point x="295" y="357"/>
    </contour>
    <contour>
      <point x="282" y="37" type="curve" smooth="yes"/>
      <point x="205" y="37"/>
      <point x="193" y="43"/>
      <point x="193" y="82" type="curve" smooth="yes"/>
      <point x="193" y="142"/>
      <point x="197" y="278"/>
      <point x="201" y="320" type="curve"/>
      <point x="230" y="320"/>
      <point x="259" y="320"/>
      <point x="288" y="320" type="curve" smooth="yes"/>
      <point x="350" y="320"/>
      <point x="451" y="305"/>
      <point x="451" y="199" type="curve" smooth="yes"/>
      <point x="451" y="91"/>
      <point x="384" y="37"/>
    </contour>
    <contour>
      <point x="48" y="163" type="curve" smooth="yes"/>
      <point x="323" y="164" type="line" smooth="yes"/>
      <point x="332" y="164"/>
      <point x="337" y="183"/>
      <point x="337" y="201" type="curve" smooth="yes"/>
      <point x="337" y="207"/>
      <point x="334" y="211"/>
      <point x="329" y="211" type="curve" smooth="yes"/>
      <point x="56" y="211" type="line" smooth="yes"/>
      <point x="47" y="211"/>
      <point x="41" y="191"/>
      <point x="41" y="173" type="curve" smooth="yes"/>
      <point x="41" y="167"/>
      <point x="43" y="163"/>
    </contour>
  </outline>
</glyph>
<glyph name="Rstroke" format="2">
  <advance width="580"/>
  <unicode hex="024C"/>
  <unicode hex="024D"/>
  <anchor x="276" y="0" name="bottom"/>
  <anchor x="310" y="652" name="top"/>
  <outline>
    <contour>
      <point x="149" y="-13" type="curve" smooth="yes"/>
      <point x="157" y="-13"/>
      <point x="159" y="-10"/>
      <point x="159" y="-5" type="curve" smooth="yes"/>
      <point x="159" y="112"/>
      <point x="162" y="218"/>
      <point x="168" y="307" type="curve"/>
      <point x="175" y="298"/>
      <point x="194" y="296"/>
      <point x="202" y="293" type="curve"/>
      <point x="252" y="253"/>
      <point x="383" y="125"/>
      <point x="490" y="8" type="curve" smooth="yes"/>
      <point x="501" y="-4"/>
      <point x="511" y="-13"/>
      <point x="521" y="-13" type="curve" smooth="yes"/>
      <point x="538" y="-13"/>
      <point x="564" y="7"/>
      <point x="564" y="14" type="curve" smooth="yes"/>
      <point x="564" y="17"/>
      <point x="563" y="21"/>
      <point x="556" y="27" type="curve" smooth="yes"/>
      <point x="540" y="40"/>
      <point x="319" y="262"/>
      <point x="276" y="306" type="curve"/>
      <point x="402" y="314"/>
      <point x="481" y="407"/>
      <point x="481" y="491" type="curve" smooth="yes"/>
      <point x="481" y="566"/>
      <point x="422" y="639"/>
      <point x="280" y="639" type="curve" smooth="yes"/>
      <point x="134" y="639" type="line"/>
      <point x="128" y="529"/>
      <point x="96" y="26"/>
      <point x="96" y="14" type="curve" smooth="yes"/>
      <point x="96" y="-4"/>
      <point x="126" y="-13"/>
    </contour>
    <contour>
      <point x="170" y="331" type="curve"/>
      <point x="178" y="485"/>
      <point x="189" y="559"/>
      <point x="193" y="597" type="curve"/>
      <point x="209" y="600"/>
      <point x="224" y="602"/>
      <point x="249" y="602" type="curve" smooth="yes"/>
      <point x="382" y="602"/>
      <point x="421" y="554"/>
      <point x="421" y="480" type="curve" smooth="yes"/>
      <point x="421" y="440"/>
      <point x="405" y="411"/>
      <point x="381" y="388" type="curve" smooth="yes"/>
      <point x="327" y="337"/>
      <point x="233" y="324"/>
    </contour>
    <contour>
      <point x="20" y="293" type="curve" smooth="yes"/>
      <point x="23" y="293"/>
      <point x="140" y="294"/>
      <point x="145" y="294" type="curve" smooth="yes"/>
      <point x="154" y="294"/>
      <point x="159" y="313"/>
      <point x="159" y="331" type="curve" smooth="yes"/>
      <point x="159" y="337"/>
      <point x="156" y="341"/>
      <point x="151" y="341" type="curve"/>
      <point x="28" y="341" type="line"/>
      <point x="19" y="341"/>
      <point x="13" y="321"/>
      <point x="13" y="303" type="curve" smooth="yes"/>
      <point x="13" y="297"/>
      <point x="15" y="293"/>
    </contour>
  </outline>
</glyph>
<glyph name="oopen" format="2">
  <advance width="409"/>
  <unicode hex="0254"/>
  <anchor x="139" y="0" name="bottom"/>
  <anchor x="172" y="524" name="top"/>
  <outline>
    <contour>
      <point x="164" y="-13" type="curve" smooth="yes"/>
      <point x="255" y="-13"/>
      <point x="371" y="61"/>
      <point x="371" y="289" type="curve" smooth="yes"/>
      <point x="371" y="458"/>
      <point x="295" y="524"/>
      <point x="197" y="524" type="curve" smooth="yes"/>
      <point x="123" y="524"/>
      <point x="66" y="495"/>
      <point x="23" y="449" type="curve" smooth="yes"/>
      <point x="17" y="443"/>
      <point x="16" y="440"/>
      <point x="16" y="434" type="curve" smooth="yes"/>
      <point x="16" y="422"/>
      <point x="22" y="408"/>
      <point x="28" y="408" type="curve" smooth="yes"/>
      <point x="32" y="408"/>
      <point x="34" y="411"/>
      <point x="47" y="423" type="curve" smooth="yes"/>
      <point x="68" y="442"/>
      <point x="115" y="481"/>
      <point x="176" y="481" type="curve" smooth="yes"/>
      <point x="266" y="481"/>
      <point x="309" y="399"/>
      <point x="309" y="284" type="curve" smooth="yes"/>
      <point x="309" y="124"/>
      <point x="246" y="22"/>
      <point x="176" y="22" type="curve" smooth="yes"/>
      <point x="133" y="22"/>
      <point x="103" y="33"/>
      <point x="70" y="71" type="curve" smooth="yes"/>
      <point x="61" y="81"/>
      <point x="57" y="85"/>
      <point x="49" y="85" type="curve" smooth="yes"/>
      <point x="40" y="85"/>
      <point x="32" y="63"/>
      <point x="32" y="47" type="curve" smooth="yes"/>
      <point x="32" y="39"/>
      <point x="36" y="31"/>
      <point x="46" y="22" type="curve" smooth="yes"/>
      <point x="74" y="-3"/>
      <point x="103" y="-13"/>
    </contour>
  </outline>
</glyph>
<glyph name="iota-latin" format="2">
  <advance width="312"/>
  <unicode hex="0269"/>
  <anchor x="156" y="0" name="bottom"/>
  <anchor x="281" y="10" name="ogonek"/>
  <anchor x="161" y="524" name="top"/>
  <outline>
    <contour>
      <point x="158" y="-13" type="curve" smooth="yes"/>
      <point x="200" y="-13"/>
      <point x="285" y="88"/>
      <point x="318" y="131" type="curve" smooth="yes"/>
      <point x="320" y="133"/>
      <point x="321" y="137"/>
      <point x="321" y="141" type="curve" smooth="yes"/>
      <point x="321" y="154"/>
      <point x="311" y="170"/>
      <point x="307" y="170" type="curve" smooth="yes"/>
      <point x="304" y="170"/>
      <point x="303" y="167"/>
      <point x="300" y="164" type="curve"/>
      <point x="279" y="136"/>
      <point x="197" y="41"/>
      <point x="178" y="41" type="curve" smooth="yes"/>
      <point x="166" y="41"/>
      <point x="162" y="48"/>
      <point x="162" y="89" type="curve" smooth="yes"/>
      <point x="162" y="164"/>
      <point x="187" y="451"/>
      <point x="187" y="497" type="curve" smooth="yes"/>
      <point x="187" y="515"/>
      <point x="160" y="524"/>
      <point x="138" y="524" type="curve" smooth="yes"/>
      <point x="131" y="524"/>
      <point x="130" y="521"/>
      <point x="130" y="516" type="curve" smooth="yes"/>
      <point x="130" y="447"/>
      <point x="109" y="191"/>
      <point x="107" y="63" type="curve" smooth="yes"/>
      <point x="107" y="40"/>
      <point x="106" y="26"/>
      <point x="109" y="20" type="curve" smooth="yes"/>
      <point x="114" y="9"/>
      <point x="147" y="-13"/>
    </contour>
  </outline>
</glyph>
<glyph name="nhookleft" format="2">
  <advance width="649"/>
  <unicode hex="0272"/>
  <outline>
    <contour>
      <point x="-4" y="-245" type="curve" smooth="yes"/>
      <point x="18" y="-245"/>
      <point x="61" y="-226"/>
      <point x="98" y="-191" type="curve" smooth="yes"/>
      <point x="136" y="-155"/>
      <point x="150" y="-100"/>
      <point x="153" y="-28" type="curve"/>
      <point x="156" y="48" type="line"/>
      <point x="167" y="87"/>
      <point x="194" y="133"/>
      <point x="220" y="178" type="curve" smooth="yes"/>
      <point x="292" y="307"/>
      <point x="430" y="470"/>
      <point x="448" y="470" type="curve" smooth="yes"/>
      <point x="460" y="470"/>
      <point x="464" y="463"/>
      <point x="463" y="422" type="curve" smooth="yes"/>
      <point x="462" y="351"/>
      <point x="441" y="140"/>
      <point x="441" y="63" type="curve" smooth="yes"/>
      <point x="441" y="40"/>
      <point x="441" y="26"/>
      <point x="444" y="20" type="curve" smooth="yes"/>
      <point x="449" y="9"/>
      <point x="484" y="-13"/>
      <point x="495" y="-13" type="curve" smooth="yes"/>
      <point x="537" y="-13"/>
      <point x="622" y="88"/>
      <point x="655" y="131" type="curve" smooth="yes"/>
      <point x="657" y="133"/>
      <point x="658" y="137"/>
      <point x="658" y="141" type="curve" smooth="yes"/>
      <point x="658" y="154"/>
      <point x="648" y="170"/>
      <point x="644" y="170" type="curve" smooth="yes"/>
      <point x="641" y="170"/>
      <point x="640" y="167"/>
      <point x="637" y="164" type="curve"/>
      <point x="616" y="136"/>
      <point x="534" y="41"/>
      <point x="515" y="41" type="curve" smooth="yes"/>
      <point x="502" y="41"/>
      <point x="498" y="48"/>
      <point x="498" y="89" type="curve" smooth="yes"/>
      <point x="498" y="164"/>
      <point x="521" y="370"/>
      <point x="521" y="448" type="curve" smooth="yes"/>
      <point x="521" y="471"/>
      <point x="520" y="485"/>
      <point x="517" y="491" type="curve" smooth="yes"/>
      <point x="512" y="503"/>
      <point x="479" y="524"/>
      <point x="468" y="524" type="curve" smooth="yes"/>
      <point x="408" y="524"/>
      <point x="226" y="286"/>
      <point x="165" y="141" type="curve"/>
      <point x="165" y="152"/>
      <point x="189" y="451"/>
      <point x="189" y="497" type="curve" smooth="yes"/>
      <point x="189" y="515"/>
      <point x="161" y="524"/>
      <point x="139" y="524" type="curve" smooth="yes"/>
      <point x="132" y="524"/>
      <point x="131" y="521"/>
      <point x="131" y="516" type="curve" smooth="yes"/>
      <point x="131" y="385"/>
      <point x="104" y="18"/>
      <point x="104" y="14" type="curve" smooth="yes"/>
      <point x="98" y="-92"/>
      <point x="94" y="-126"/>
      <point x="80" y="-152" type="curve" smooth="yes"/>
      <point x="60" y="-187"/>
      <point x="23" y="-193"/>
      <point x="4" y="-193" type="curve" smooth="yes"/>
      <point x="-34" y="-193"/>
      <point x="-57" y="-178"/>
      <point x="-64" y="-178" type="curve" smooth="yes"/>
      <point x="-71" y="-178"/>
      <point x="-74" y="-187"/>
      <point x="-74" y="-200" type="curve" smooth="yes"/>
      <point x="-74" y="-210"/>
      <point x="-70" y="-222"/>
      <point x="-64" y="-225" type="curve" smooth="yes"/>
      <point x="-49" y="-233"/>
      <point x="-22" y="-245"/>
    </contour>
  </outline>
</glyph>
<glyph name="esh" format="2">
  <advance width="275"/>
  <unicode hex="0283"/>
  <anchor x="123" y="0" name="bottom"/>
  <anchor x="169" y="756" name="top"/>
  <outline>
    <contour>
      <point x="-9" y="-244" type="curve" smooth="yes"/>
      <point x="24" y="-244"/>
      <point x="67" y="-225"/>
      <point x="104" y="-190" type="curve" smooth="yes"/>
      <point x="141" y="-155"/>
      <point x="169" y="-99"/>
      <point x="169" y="-28" type="curve" smooth="yes"/>
      <point x="169" y="499" type="line"/>
      <point x="172" y="571" type="line" smooth="yes"/>
      <point x="176" y="668"/>
      <point x="209" y="704"/>
      <point x="260" y="704" type="curve" smooth="yes"/>
      <point x="322" y="704"/>
      <point x="371" y="687"/>
      <point x="377" y="685" type="curve" smooth="yes"/>
      <point x="380" y="684"/>
      <point x="393" y="678"/>
      <point x="398" y="678" type="curve" smooth="yes"/>
      <point x="404" y="678"/>
      <point x="408" y="691"/>
      <point x="408" y="703" type="curve" smooth="yes"/>
      <point x="408" y="709"/>
      <point x="407" y="713"/>
      <point x="402" y="717" type="curve" smooth="yes"/>
      <point x="377" y="734"/>
      <point x="326" y="756"/>
      <point x="284" y="756" type="curve" smooth="yes"/>
      <point x="243" y="756"/>
      <point x="205" y="736"/>
      <point x="170" y="703" type="curve" smooth="yes"/>
      <point x="126" y="662"/>
      <point x="105" y="606"/>
      <point x="105" y="504" type="curve" smooth="yes"/>
      <point x="105" y="499" type="line"/>
      <point x="110" y="40" type="line" smooth="yes"/>
      <point x="110" y="-169"/>
      <point x="75" y="-193"/>
      <point x="-6" y="-193" type="curve" smooth="yes"/>
      <point x="-76" y="-193"/>
      <point x="-165" y="-161"/>
      <point x="-198" y="-147" type="curve" smooth="yes"/>
      <point x="-204" y="-145"/>
      <point x="-211" y="-141"/>
      <point x="-213" y="-141" type="curve" smooth="yes"/>
      <point x="-216" y="-141"/>
      <point x="-220" y="-146"/>
      <point x="-220" y="-164" type="curve" smooth="yes"/>
      <point x="-220" y="-174"/>
      <point x="-216" y="-185"/>
      <point x="-210" y="-189" type="curve" smooth="yes"/>
      <point x="-198" y="-198"/>
      <point x="-98" y="-244"/>
    </contour>
  </outline>
</glyph>
<glyph name="ubar" format="2">
  <advance width="649"/>
  <unicode hex="0289"/>
  <anchor x="295" y="0" name="bottom"/>
  <anchor x="526" y="10" name="ogonek"/>
  <anchor x="315" y="524" name="top"/>
  <anchor x="629" y="524" name="topright"/>
  <outline>
    <contour>
      <point x="145" y="-13" type="curve" smooth="yes"/>
      <point x="208" y="-13"/>
      <point x="382" y="210"/>
      <point x="453" y="355" type="curve"/>
      <point x="447" y="262"/>
      <point x="441" y="121"/>
      <point x="441" y="63" type="curve" smooth="yes"/>
      <point x="441" y="40"/>
      <point x="440" y="26"/>
      <point x="443" y="20" type="curve" smooth="yes"/>
      <point x="448" y="9"/>
      <point x="481" y="-13"/>
      <point x="494" y="-13" type="curve" smooth="yes"/>
      <point x="536" y="-13"/>
      <point x="621" y="88"/>
      <point x="654" y="131" type="curve" smooth="yes"/>
      <point x="656" y="133"/>
      <point x="657" y="137"/>
      <point x="657" y="141" type="curve" smooth="yes"/>
      <point x="657" y="154"/>
      <point x="647" y="170"/>
      <point x="643" y="170" type="curve" smooth="yes"/>
      <point x="640" y="170"/>
      <point x="639" y="167"/>
      <point x="636" y="164" type="curve"/>
      <point x="615" y="136"/>
      <point x="533" y="41"/>
      <point x="514" y="41" type="curve" smooth="yes"/>
      <point x="501" y="41"/>
      <point x="498" y="48"/>
      <point x="498" y="89" type="curve" smooth="yes"/>
      <point x="498" y="237"/>
      <point x="518" y="489"/>
      <point x="518" y="497" type="curve" smooth="yes"/>
      <point x="518" y="515"/>
      <point x="494" y="524"/>
      <point x="475" y="524" type="curve" smooth="yes"/>
      <point x="467" y="524"/>
      <point x="465" y="521"/>
      <point x="465" y="515" type="curve" smooth="yes"/>
      <point x="465" y="465"/>
      <point x="436" y="394"/>
      <point x="402" y="333" type="curve" smooth="yes"/>
      <point x="320" y="188"/>
      <point x="187" y="41"/>
      <point x="164" y="41" type="curve" smooth="yes"/>
      <point x="151" y="41"/>
      <point x="148" y="48"/>
      <point x="148" y="89" type="curve" smooth="yes"/>
      <point x="148" y="180"/>
      <point x="185" y="359"/>
      <point x="189" y="497" type="curve" smooth="yes"/>
      <point x="190" y="515"/>
      <point x="163" y="524"/>
      <point x="141" y="524" type="curve" smooth="yes"/>
      <point x="134" y="524"/>
      <point x="132" y="521"/>
      <point x="132" y="516" type="curve" smooth="yes"/>
      <point x="122" y="316"/>
      <point x="91" y="123"/>
      <point x="91" y="63" type="curve" smooth="yes"/>
      <point x="91" y="40"/>
      <point x="91" y="26"/>
      <point x="94" y="20" type="curve" smooth="yes"/>
      <point x="100" y="9"/>
      <point x="134" y="-13"/>
    </contour>
    <contour>
      <point x="60" y="301" type="curve" smooth="yes"/>
      <point x="63" y="301"/>
      <point x="565" y="302"/>
      <point x="570" y="302" type="curve" smooth="yes"/>
      <point x="579" y="302"/>
      <point x="584" y="318"/>
      <point x="584" y="331" type="curve" smooth="yes"/>
      <point x="584" y="337"/>
      <point x="581" y="341"/>
      <point x="576" y="341" type="curve"/>
      <point x="68" y="341" type="line"/>
      <point x="59" y="341"/>
      <point x="53" y="329"/>
      <point x="53" y="311" type="curve" smooth="yes"/>
      <point x="53" y="305"/>
      <point x="55" y="301"/>
    </contour>
  </outline>
</glyph>
<glyph name="commaturnedmod" format="2">
  <advance width="232"/>
  <unicode hex="02BB"/>
  <outline>
    <contour>
      <point x="79" y="602" type="curve" smooth="yes"/>
      <point x="83" y="602"/>
      <point x="84" y="603"/>
      <point x="86" y="609" type="curve" smooth="yes"/>
      <point x="112" y="670"/>
      <point x="163" y="760"/>
      <point x="174" y="778" type="curve" smooth="yes"/>
      <point x="182" y="790"/>
      <point x="185" y="794"/>
      <point x="185" y="796" type="curve" smooth="yes"/>
      <point x="185" y="799"/>
      <point x="180" y="801"/>
      <point x="174" y="801" type="curve" smooth="yes"/>
      <point x="163" y="801"/>
      <point x="153" y="797"/>
      <point x="148" y="792" type="curve" smooth="yes"/>
      <point x="112" y="752"/>
      <point x="47" y="668"/>
      <point x="47" y="637" type="curve" smooth="yes"/>
      <point x="47" y="629"/>
      <point x="51" y="619"/>
      <point x="58" y="611" type="curve" smooth="yes"/>
      <point x="63" y="606"/>
      <point x="70" y="602"/>
    </contour>
  </outline>
</glyph>
<glyph name="ringhalfright" format="2">
  <advance width="188"/>
  <unicode hex="02BE"/>
  <anchor x="82" y="524" name="_top"/>
  <outline>
    <contour>
      <point x="45" y="622" type="line"/>
      <point x="47" y="622"/>
      <point x="49" y="622"/>
      <point x="51" y="622" type="curve" smooth="yes"/>
      <point x="101" y="622"/>
      <point x="143" y="664"/>
      <point x="143" y="714" type="curve" smooth="yes"/>
      <point x="143" y="764"/>
      <point x="101" y="806"/>
      <point x="51" y="806" type="curve" smooth="yes"/>
      <point x="49" y="806"/>
      <point x="47" y="806"/>
      <point x="45" y="806" type="curve"/>
      <point x="45" y="770" type="line"/>
      <point x="46" y="770"/>
      <point x="48" y="770"/>
      <point x="50" y="770" type="curve" smooth="yes"/>
      <point x="80" y="770"/>
      <point x="105" y="743"/>
      <point x="105" y="714" type="curve" smooth="yes"/>
      <point x="105" y="684"/>
      <point x="80" y="659"/>
      <point x="50" y="659" type="curve" smooth="yes"/>
      <point x="48" y="659"/>
      <point x="46" y="659"/>
      <point x="45" y="659" type="curve"/>
    </contour>
  </outline>
</glyph>
<glyph name="ringhalfleft" format="2">
  <advance width="118"/>
  <unicode hex="02BF"/>
  <anchor x="82" y="524" name="_top"/>
  <outline>
    <contour>
      <point x="92" y="622" type="curve" smooth="yes"/>
      <point x="94" y="622"/>
      <point x="96" y="622"/>
      <point x="98" y="622" type="curve"/>
      <point x="98" y="659" type="line"/>
      <point x="97" y="659"/>
      <point x="95" y="659"/>
      <point x="93" y="659" type="curve" smooth="yes"/>
      <point x="63" y="659"/>
      <point x="38" y="684"/>
      <point x="38" y="714" type="curve" smooth="yes"/>
      <point x="38" y="743"/>
      <point x="63" y="770"/>
      <point x="93" y="770" type="curve" smooth="yes"/>
      <point x="95" y="770"/>
      <point x="97" y="770"/>
      <point x="98" y="770" type="curve"/>
      <point x="98" y="806" type="line"/>
      <point x="96" y="806"/>
      <point x="94" y="806"/>
      <point x="92" y="806" type="curve" smooth="yes"/>
      <point x="42" y="806"/>
      <point x="0" y="764"/>
      <point x="0" y="714" type="curve" smooth="yes"/>
      <point x="0" y="664"/>
      <point x="42" y="622"/>
    </contour>
  </outline>
</glyph>
<glyph name="verticallinemod" format="2">
  <advance width="204"/>
  <unicode hex="02C8"/>
  <outline>
    <contour>
      <point x="108" y="532" type="curve" smooth="yes"/>
      <point x="114" y="532"/>
      <point x="119" y="536"/>
      <point x="119" y="544" type="curve" smooth="yes"/>
      <point x="119" y="553"/>
      <point x="134" y="715"/>
      <point x="134" y="724" type="curve" smooth="yes"/>
      <point x="134" y="749"/>
      <point x="106" y="752"/>
      <point x="96" y="752" type="curve" smooth="yes"/>
      <point x="89" y="752"/>
      <point x="82" y="750"/>
      <point x="82" y="743" type="curve" smooth="yes"/>
      <point x="82" y="732"/>
      <point x="70" y="572"/>
      <point x="70" y="563" type="curve" smooth="yes"/>
      <point x="70" y="537"/>
      <point x="96" y="532"/>
    </contour>
  </outline>
</glyph>
<glyph name="firsttonechinese" format="2">
  <advance width="364"/>
  <unicode hex="02C9"/>
  <anchor x="182" y="524" name="_top"/>
  <anchor x="196" y="651" name="top"/>
  <outline>
    <contour>
      <point x="28" y="628" type="curve" smooth="yes"/>
      <point x="321" y="628" type="line" smooth="yes"/>
      <point x="338" y="628"/>
      <point x="344" y="649"/>
      <point x="344" y="669" type="curve" smooth="yes"/>
      <point x="344" y="677"/>
      <point x="341" y="678"/>
      <point x="336" y="678" type="curve" smooth="yes"/>
      <point x="43" y="678" type="line" smooth="yes"/>
      <point x="26" y="678"/>
      <point x="20" y="655"/>
      <point x="20" y="637" type="curve" smooth="yes"/>
      <point x="20" y="629"/>
      <point x="23" y="628"/>
    </contour>
  </outline>
</glyph>
<glyph name="gravecomb" format="2">
  <unicode hex="0300"/>
  <anchor x="88" y="524" name="_top"/>
  <anchor x="75" y="745" name="top"/>
  <outline>
    <contour>
      <point x="89" y="600" type="curve"/>
      <point x="92" y="601"/>
      <point x="115" y="613"/>
      <point x="115" y="624" type="curve" smooth="yes"/>
      <point x="115" y="633"/>
      <point x="109" y="646"/>
      <point x="105" y="653" type="curve" smooth="yes"/>
      <point x="83" y="689"/>
      <point x="39" y="754"/>
      <point x="9" y="793" type="curve" smooth="yes"/>
      <point x="5" y="798"/>
      <point x="3" y="799"/>
      <point x="-8" y="799" type="curve" smooth="yes"/>
      <point x="-19" y="799"/>
      <point x="-38" y="783"/>
      <point x="-38" y="771" type="curve" smooth="yes"/>
      <point x="-38" y="766"/>
      <point x="-30" y="757"/>
      <point x="-25" y="752" type="curve" smooth="yes"/>
      <point x="0" y="725"/>
      <point x="87" y="603"/>
    </contour>
  </outline>
</glyph>
<glyph name="dotaccentcomb" format="2">
  <unicode hex="0307"/>
  <anchor x="137" y="524" name="_top"/>
  <anchor x="137" y="699" name="top"/>
  <outline>
    <contour>
      <point x="134" y="654" type="curve" smooth="yes"/>
      <point x="154" y="654"/>
      <point x="173" y="679"/>
      <point x="173" y="700" type="curve" smooth="yes"/>
      <point x="173" y="734"/>
      <point x="159" y="746"/>
      <point x="144" y="746" type="curve" smooth="yes"/>
      <point x="123" y="746"/>
      <point x="100" y="722"/>
      <point x="100" y="689" type="curve" smooth="yes"/>
      <point x="100" y="665"/>
      <point x="114" y="654"/>
    </contour>
  </outline>
</glyph>
<glyph name="hookabovecomb" format="2">
  <unicode hex="0309"/>
  <anchor x="96" y="524" name="_top"/>
  <anchor x="106" y="716" name="top"/>
  <outline>
    <contour>
      <point x="78" y="599" type="curve" smooth="yes"/>
      <point x="110" y="599"/>
      <point x="167" y="631"/>
      <point x="167" y="686" type="curve" smooth="yes"/>
      <point x="167" y="731"/>
      <point x="138" y="745"/>
      <point x="88" y="746" type="curve"/>
      <point x="59" y="745" type="line"/>
      <point x="54" y="745"/>
      <point x="46" y="745"/>
      <point x="41" y="721" type="curve" smooth="yes"/>
      <point x="38" y="706"/>
      <point x="46" y="697"/>
      <point x="56" y="697" type="curve" smooth="yes"/>
      <point x="102" y="697"/>
      <point x="123" y="693"/>
      <point x="123" y="670" type="curve" smooth="yes"/>
      <point x="123" y="647"/>
      <point x="108" y="622"/>
      <point x="65" y="618" type="curve" smooth="yes"/>
      <point x="59" y="617"/>
      <point x="56" y="616"/>
      <point x="56" y="611" type="curve" smooth="yes"/>
      <point x="56" y="604"/>
      <point x="65" y="599"/>
    </contour>
  </outline>
</glyph>
<glyph name="ringcomb" format="2">
  <unicode hex="030A"/>
  <anchor x="82" y="524" name="_top"/>
  <anchor x="231" y="654" name="top"/>
  <outline>
    <contour>
      <point x="92" y="607" type="curve" smooth="yes"/>
      <point x="142" y="607"/>
      <point x="184" y="649"/>
      <point x="184" y="699" type="curve" smooth="yes"/>
      <point x="184" y="749"/>
      <point x="142" y="791"/>
      <point x="92" y="791" type="curve" smooth="yes"/>
      <point x="42" y="791"/>
      <point x="0" y="749"/>
      <point x="0" y="699" type="curve" smooth="yes"/>
      <point x="0" y="649"/>
      <point x="42" y="607"/>
    </contour>
    <contour>
      <point x="93" y="644" type="curve" smooth="yes"/>
      <point x="63" y="644"/>
      <point x="38" y="669"/>
      <point x="38" y="699" type="curve" smooth="yes"/>
      <point x="38" y="728"/>
      <point x="63" y="755"/>
      <point x="93" y="755" type="curve" smooth="yes"/>
      <point x="123" y="755"/>
      <point x="149" y="728"/>
      <point x="149" y="699" type="curve" smooth="yes"/>
      <point x="149" y="669"/>
      <point x="123" y="644"/>
    </contour>
  </outline>
</glyph>
<glyph name="verticallineabovecomb" format="2">
  <unicode hex="030D"/>
  <outline>
    <contour>
      <point x="20" y="618" type="curve" smooth="yes"/>
      <point x="23" y="617"/>
      <point x="48" y="612"/>
      <point x="55" y="621" type="curve" smooth="yes"/>
      <point x="61" y="628"/>
      <point x="64" y="642"/>
      <point x="65" y="650" type="curve" smooth="yes"/>
      <point x="70" y="692"/>
      <point x="75" y="742"/>
      <point x="76" y="792" type="curve" smooth="yes"/>
      <point x="76" y="798"/>
      <point x="75" y="800"/>
      <point x="66" y="807" type="curve" smooth="yes"/>
      <point x="57" y="813"/>
      <point x="32" y="813"/>
      <point x="25" y="803" type="curve" smooth="yes"/>
      <point x="22" y="799"/>
      <point x="23" y="787"/>
      <point x="24" y="780" type="curve" smooth="yes"/>
      <point x="27" y="743"/>
      <point x="20" y="622"/>
    </contour>
  </outline>
</glyph>
<glyph name="dotbelowcomb" format="2">
  <unicode hex="0323"/>
  <anchor x="46" y="0" name="_bottom"/>
  <anchor x="37" y="-138" name="bottom"/>
  <outline>
    <contour>
      <point x="34" y="-188" type="curve" smooth="yes"/>
      <point x="54" y="-188"/>
      <point x="73" y="-163"/>
      <point x="73" y="-142" type="curve" smooth="yes"/>
      <point x="73" y="-108"/>
      <point x="59" y="-96"/>
      <point x="44" y="-96" type="curve" smooth="yes"/>
      <point x="23" y="-96"/>
      <point x="0" y="-120"/>
      <point x="0" y="-153" type="curve" smooth="yes"/>
      <point x="0" y="-177"/>
      <point x="14" y="-188"/>
    </contour>
  </outline>
</glyph>
<glyph name="verticallinebelowcomb" format="2">
  <unicode hex="0329"/>
  <anchor x="104" y="0" name="_bottom"/>
  <anchor x="104" y="-249" name="bottom"/>
  <outline>
    <contour>
      <point x="110" y="-249" type="curve" smooth="yes"/>
      <point x="116" y="-249"/>
      <point x="121" y="-245"/>
      <point x="121" y="-237" type="curve" smooth="yes"/>
      <point x="121" y="-228"/>
      <point x="136" y="-66"/>
      <point x="136" y="-57" type="curve" smooth="yes"/>
      <point x="136" y="-32"/>
      <point x="108" y="-29"/>
      <point x="98" y="-29" type="curve" smooth="yes"/>
      <point x="91" y="-29"/>
      <point x="84" y="-31"/>
      <point x="84" y="-38" type="curve" smooth="yes"/>
      <point x="84" y="-49"/>
      <point x="72" y="-209"/>
      <point x="72" y="-218" type="curve" smooth="yes"/>
      <point x="72" y="-244"/>
      <point x="98" y="-249"/>
    </contour>
  </outline>
</glyph>
<glyph name="circumflexbelowcomb" format="2">
  <unicode hex="032D"/>
  <anchor x="179" y="0" name="_bottom"/>
  <anchor x="147" y="-216" name="bottom"/>
  <outline>
    <contour>
      <point x="42" y="-234" type="curve"/>
      <point x="45" y="-229"/>
      <point x="143" y="-145"/>
      <point x="181" y="-117" type="curve"/>
      <point x="206" y="-141"/>
      <point x="268" y="-229"/>
      <point x="269" y="-234" type="curve"/>
      <point x="271" y="-233"/>
      <point x="290" y="-220"/>
      <point x="290" y="-210" type="curve" smooth="yes"/>
      <point x="290" y="-201"/>
      <point x="285" y="-189"/>
      <point x="280" y="-181" type="curve" smooth="yes"/>
      <point x="259" y="-145"/>
      <point x="225" y="-100"/>
      <point x="195" y="-61" type="curve" smooth="yes"/>
      <point x="191" y="-56"/>
      <point x="186" y="-55"/>
      <point x="183" y="-55" type="curve" smooth="yes"/>
      <point x="179" y="-55"/>
      <point x="176" y="-56"/>
      <point x="171" y="-61" type="curve" smooth="yes"/>
      <point x="153" y="-76"/>
      <point x="45" y="-168"/>
      <point x="32" y="-189" type="curve" smooth="yes"/>
      <point x="29" y="-194"/>
      <point x="27" y="-200"/>
      <point x="27" y="-205" type="curve" smooth="yes"/>
      <point x="27" y="-219"/>
      <point x="40" y="-231"/>
    </contour>
  </outline>
</glyph>
<glyph name="brevebelowcomb" format="2">
  <unicode hex="032E"/>
  <anchor x="103" y="0" name="_bottom"/>
  <anchor x="103" y="-161" name="bottom"/>
  <outline>
    <contour>
      <point x="111" y="-161" type="curve" smooth="yes"/>
      <point x="159" y="-161"/>
      <point x="205" y="-133"/>
      <point x="205" y="-76" type="curve" smooth="yes"/>
      <point x="205" y="-51"/>
      <point x="186" y="-47"/>
      <point x="170" y="-47" type="curve" smooth="yes"/>
      <point x="160" y="-47"/>
      <point x="159" y="-51"/>
      <point x="159" y="-66" type="curve" smooth="yes"/>
      <point x="159" y="-104"/>
      <point x="130" y="-119"/>
      <point x="101" y="-119" type="curve" smooth="yes"/>
      <point x="81" y="-119"/>
      <point x="67" y="-114"/>
      <point x="55" y="-104" type="curve" smooth="yes"/>
      <point x="26" y="-79"/>
      <point x="26" y="-31"/>
      <point x="14" y="-31" type="curve" smooth="yes"/>
      <point x="5" y="-31"/>
      <point x="0" y="-37"/>
      <point x="0" y="-57" type="curve" smooth="yes"/>
      <point x="0" y="-124"/>
      <point x="57" y="-161"/>
    </contour>
  </outline>
</glyph>
<glyph name="breveinvertedbelowcomb" format="2">
  <unicode hex="032F"/>
  <anchor x="113" y="0" name="_bottom"/>
  <anchor x="113" y="-161" name="bottom"/>
  <outline>
    <contour>
      <point x="191" y="-159" type="curve" smooth="yes"/>
      <point x="200" y="-159"/>
      <point x="205" y="-153"/>
      <point x="205" y="-133" type="curve" smooth="yes"/>
      <point x="205" y="-78"/>
      <point x="148" y="-41"/>
      <point x="94" y="-41" type="curve" smooth="yes"/>
      <point x="46" y="-41"/>
      <point x="0" y="-72"/>
      <point x="0" y="-129" type="curve" smooth="yes"/>
      <point x="0" y="-154"/>
      <point x="19" y="-158"/>
      <point x="35" y="-158" type="curve" smooth="yes"/>
      <point x="45" y="-158"/>
      <point x="46" y="-154"/>
      <point x="46" y="-139" type="curve" smooth="yes"/>
      <point x="46" y="-101"/>
      <point x="75" y="-83"/>
      <point x="104" y="-83" type="curve" smooth="yes"/>
      <point x="124" y="-83"/>
      <point x="138" y="-88"/>
      <point x="150" y="-98" type="curve" smooth="yes"/>
      <point x="179" y="-123"/>
      <point x="179" y="-159"/>
    </contour>
  </outline>
</glyph>
<glyph name="tildebelowcomb" format="2">
  <unicode hex="0330"/>
  <anchor x="161" y="0" name="_bottom"/>
  <anchor x="151" y="-185" name="bottom"/>
  <outline>
    <contour>
      <point x="244" y="-204" type="curve" smooth="yes"/>
      <point x="265" y="-204"/>
      <point x="278" y="-199"/>
      <point x="293" y="-176" type="curve" smooth="yes"/>
      <point x="304" y="-159"/>
      <point x="317" y="-118"/>
      <point x="317" y="-93" type="curve" smooth="yes"/>
      <point x="317" y="-88"/>
      <point x="307" y="-84"/>
      <point x="298" y="-84" type="curve" smooth="yes"/>
      <point x="294" y="-84"/>
      <point x="293" y="-86"/>
      <point x="292" y="-91" type="curve" smooth="yes"/>
      <point x="280" y="-139"/>
      <point x="272" y="-155"/>
      <point x="251" y="-155" type="curve" smooth="yes"/>
      <point x="221" y="-155"/>
      <point x="99" y="-74"/>
      <point x="65" y="-74" type="curve" smooth="yes"/>
      <point x="44" y="-74"/>
      <point x="30" y="-79"/>
      <point x="16" y="-102" type="curve" smooth="yes"/>
      <point x="5" y="-120"/>
      <point x="-8" y="-160"/>
      <point x="-8" y="-185" type="curve" smooth="yes"/>
      <point x="-8" y="-190"/>
      <point x="2" y="-194"/>
      <point x="11" y="-194" type="curve" smooth="yes"/>
      <point x="15" y="-194"/>
      <point x="16" y="-193"/>
      <point x="17" y="-188" type="curve" smooth="yes"/>
      <point x="29" y="-140"/>
      <point x="37" y="-123"/>
      <point x="57" y="-123" type="curve" smooth="yes"/>
      <point x="88" y="-123"/>
      <point x="210" y="-204"/>
    </contour>
  </outline>
</glyph>
<glyph name="Delta" format="2">
  <advance width="617"/>
  <unicode hex="0394"/>
  <outline>
    <contour>
      <point x="18" y="0" type="curve" smooth="yes"/>
      <point x="106" y="0"/>
      <point x="194" y="0"/>
      <point x="282" y="0" type="curve" smooth="yes"/>
      <point x="377" y="0"/>
      <point x="471" y="0"/>
      <point x="566" y="0" type="curve" smooth="yes"/>
      <point x="576" y="0"/>
      <point x="577" y="3"/>
      <point x="577" y="8" type="curve" smooth="yes"/>
      <point x="577" y="11"/>
      <point x="576" y="14"/>
      <point x="573" y="23" type="curve" smooth="yes"/>
      <point x="543" y="115"/>
      <point x="392" y="563"/>
      <point x="371" y="634" type="curve" smooth="yes"/>
      <point x="368" y="642"/>
      <point x="345" y="652"/>
      <point x="321" y="652" type="curve" smooth="yes"/>
      <point x="314" y="652"/>
      <point x="311" y="651"/>
      <point x="309" y="646" type="curve" smooth="yes"/>
      <point x="253" y="533"/>
      <point x="39" y="110"/>
      <point x="10" y="63" type="curve" smooth="yes"/>
      <point x="2" y="50"/>
      <point x="0" y="45"/>
      <point x="0" y="38" type="curve" smooth="yes"/>
      <point x="0" y="24"/>
      <point x="9" y="0"/>
    </contour>
    <contour>
      <point x="58" y="50" type="curve"/>
      <point x="62" y="59"/>
      <point x="79" y="96"/>
      <point x="104" y="146" type="curve" smooth="yes"/>
      <point x="169" y="280"/>
      <point x="283" y="510"/>
      <point x="328" y="578" type="curve"/>
      <point x="342" y="547"/>
      <point x="407" y="356"/>
      <point x="454" y="206" type="curve" smooth="yes"/>
      <point x="473" y="143"/>
      <point x="490" y="87"/>
      <point x="499" y="53" type="curve"/>
      <point x="468" y="48"/>
      <point x="377" y="47"/>
      <point x="281" y="47" type="curve" smooth="yes"/>
      <point x="201" y="47"/>
      <point x="107" y="48"/>
    </contour>
  </outline>
</glyph>
